<svg xmlns="http://www.w3.org/2000/svg" xmlns:xlink="http://www.w3.org/1999/xlink" width="810" height="1500" version="1.0"><g transform="translate(125 509.066)"><g transform="translate(16039.946 -129.672)"><rect style="fill:#fff;fill-opacity:1;fill-rule:evenodd;stroke:none;stroke-width:3.99999762;stroke-linejoin:miter;stroke-miterlimit:4;stroke-dasharray:none;stroke-opacity:1" width="810" height="1500" x="-16164.946" y="-379.395" ry="46.912" rx="46.912"/><rect ry="42.408" y="-307.395" x="-16095.946" height="1356" width="672" style="fill:none;fill-opacity:1;fill-rule:evenodd;stroke:#000;stroke-width:4.00000048;stroke-linejoin:miter;stroke-miterlimit:4;stroke-dasharray:none;stroke-opacity:1" rx="42.408"/></g><g id="a"><path transform="matrix(2.90214 0 0 2.90214 358.484 -2536.514)" d="M47.071 1162.552a8.787 8.787 0 1 1-17.573 0 8.787 8.787 0 1 1 17.573 0z" style="fill:#cf2c38;fill-opacity:1;stroke:#000;stroke-width:2.41201067;stroke-linecap:round;stroke-linejoin:round;stroke-miterlimit:4;stroke-dasharray:none;stroke-opacity:1"/><path d="M459.859 806.244c0 14.352-7.168 26-16 26s-16-11.648-16-26 7.168-26 16-26 16 11.648 16 26zM511.323 806.663c0 14.352-7.168 26-16 26s-16-11.648-16-26 7.168-26 16-26 16 11.648 16 26z" style="fill:#cf2c38;fill-opacity:1;stroke:#000;stroke-width:6.99999952;stroke-linecap:round;stroke-linejoin:round;stroke-miterlimit:4;stroke-opacity:1"/><g style="fill:#fef137;fill-opacity:1"><path style="opacity:1;fill:#fef137;fill-opacity:1;stroke:#000;stroke-width:7;stroke-linecap:round;stroke-linejoin:round;stroke-miterlimit:4;stroke-dasharray:none;stroke-opacity:1" d="M438.502 545.67c-20.566 67.653-10.141 188.555 13.032 234.906h48.718c23.173-46.351 33.599-167.253 13.032-234.906h-74.782z" transform="translate(-6.302 -4.79)"/><path style="opacity:1;fill:#fef137;fill-opacity:1;stroke:#000;stroke-width:6;stroke-linecap:round;stroke-linejoin:round;stroke-miterlimit:4;stroke-dasharray:none;stroke-opacity:1" d="M429.634 665.781c14.869 21.906 54.66 55.019 83.433 73.374M429.634 683.829c14.869 21.905 55.843 53.835 80.474 65.977M433.125 715.527c16.915 21.711 47.273 42.954 71.362 52.622M437.03 735.309c18.42 21.313 44.305 34.9 64.202 42.604M429.634 600.988c14.869 21.905 63.83 76.32 90.238 92.9M428.45 623.473c13.39 20.722 63.831 72.179 89.942 84.912M436.439 556.017c12.797 18.651 60.28 72.474 86.687 90.533M433.48 569.33c13.094 20.131 57.618 69.812 89.942 91.422M479.29 546.912c11.556 15.829 28.452 32.84 41.765 44.313M463.66 545.66c15.406 19.961 42.307 48.288 59.762 60.95" transform="translate(-6.302 -4.79)"/><path style="opacity:1;fill:#fef137;fill-opacity:1;stroke:#000;stroke-width:3.70000005;stroke-linecap:round;stroke-linejoin:round;stroke-miterlimit:4;stroke-dasharray:none;stroke-opacity:1" d="M486.44 694.48v16.716M494.576 700.397l-1.036 15.829M502.12 706.758l-1.48 14.497M509.664 711.936l-1.923 15.828M486.735 639.45v16.716M493.614 646.846v16.716M500.937 653.947l-.444 16.716M508.111 659.716l-.74 16.125M515.138 664.45l-.888 16.42M495.537 594.48v16.715M502.416 603.207v16.716M509.295 608.828v16.716M515.878 614.893l.295 17.16M488.658 587.97v9.764M487.031 743.297v7.248M494.058 748.77l-.296 7.101M501.232 752.912l-.74 6.657" transform="translate(-6.302 -4.79)"/></g><path d="M469.59-373.94c-14.18 19.519-26.304 32.283-40.874 46.813V534.81h81.75v-861.937c-14.57-14.53-26.694-27.294-40.875-46.813z" style="fill:#3e609e;fill-opacity:1;fill-rule:evenodd;stroke:#000;stroke-width:4;stroke-linecap:butt;stroke-linejoin:miter;stroke-miterlimit:4;stroke-dasharray:none;stroke-opacity:1"/><path style="fill:#3e609e;fill-opacity:1;fill-rule:evenodd;stroke:#000;stroke-width:4;stroke-linecap:round;stroke-linejoin:round;stroke-miterlimit:4;stroke-dasharray:none;stroke-opacity:1" d="M469.59-372.369v847.443M484.667-342.19v829.056M498.167-324.222v824.99"/><path style="fill:none;fill-opacity:1;fill-rule:evenodd;stroke:none;stroke-width:1px;stroke-linecap:butt;stroke-linejoin:miter;stroke-opacity:1" d="m509.453 507.172-80.118-.807-.062-832.56 40.446-46.808 41.274 48.783-1.54 831.392z"/><path style="fill:none;fill-opacity:1;fill-rule:nonzero;stroke:none;stroke-width:2;stroke-linecap:butt;stroke-linejoin:miter;stroke-miterlimit:4;stroke-dasharray:none;stroke-dashoffset:0;stroke-opacity:1" d="M3448 1404.375a9.5 14.125 0 1 1-19 0 9.5 14.125 0 1 1 19 0z" transform="matrix(1.89523 .0211 -.02113 1.89248 -6017.03 -2199.476)"/><path d="M464.801 851.932c10.654 2.254 19.289-4.903 20.414-15.09M497.315 791.39c6.637 5.859 6.193 24.896 0 30.126" style="fill:none;fill-opacity:1;stroke:#000;stroke-width:6;stroke-linecap:round;stroke-linejoin:round;stroke-miterlimit:4;stroke-dasharray:none;stroke-opacity:1"/><path d="M485.59 811.893c0 14.352-7.167 26-16 26-8.831 0-16-11.648-16-26s7.169-26 16-26c8.833 0 16 11.648 16 26z" style="fill:#cf2c38;fill-opacity:1;stroke:#000;stroke-width:6.99999952;stroke-linecap:round;stroke-linejoin:round;stroke-miterlimit:4;stroke-opacity:1"/><path d="M444.072 790.822c1.73.233 3.442 1.807 3.87 2.824M470.746 796.83c6.637 5.858 6.193 24.896 0 30.126" style="fill:none;fill-opacity:1;stroke:#000;stroke-width:6;stroke-linecap:round;stroke-linejoin:round;stroke-miterlimit:4;stroke-dasharray:none;stroke-opacity:1"/><g style="fill:#fef137;fill-opacity:1"><path style="opacity:1;fill:#fef137;fill-opacity:1;stroke:#000;stroke-width:7.37098598;stroke-linecap:round;stroke-linejoin:round;stroke-miterlimit:4;stroke-dasharray:none;stroke-opacity:1" d="M-179.292 1145.561a40.829 15.976 0 1 1-81.657 0 40.829 15.976 0 1 1 81.657 0z" transform="matrix(.94565 0 0 .9537 677.748 -320.329)"/><path style="opacity:1;fill:#fef137;fill-opacity:1;stroke:#000;stroke-width:6;stroke-linecap:round;stroke-linejoin:round;stroke-miterlimit:4;stroke-dasharray:none;stroke-opacity:1" d="M448.526 777.727c11.736-8.226 41.815-8.01 54.734 0" transform="translate(-6.302 -4.79)"/></g><path d="M469.59 461.53c-13.448 19.958-52.562 36.878-52.562 78.937 0 21.125 9.815 39.437 25.219 39.437 12.142 0 12.74 4.906 27.344 4.906 14.603 0 15.202-4.906 27.344-4.906 15.404 0 25.218-18.312 25.218-39.437 0-42.059-39.113-58.979-52.562-78.938z" style="fill:#000;fill-opacity:1;stroke:none;stroke-width:1;stroke-linecap:round;stroke-linejoin:round;stroke-miterlimit:4;stroke-dasharray:none;stroke-opacity:1"/><path style="opacity:1;fill:#cf2c38;fill-opacity:1;stroke:#000;stroke-width:6.48267651;stroke-linecap:round;stroke-linejoin:round;stroke-miterlimit:4;stroke-dasharray:none;stroke-opacity:1" d="M-200.298 903.251a17.16 29.29 0 1 1-34.32 0 17.16 29.29 0 1 1 34.32 0z" transform="matrix(1.12069 0 0 1.0404 713.293 -410.894)"/><path style="opacity:1;fill:none;fill-opacity:1;stroke:#000;stroke-width:4;stroke-linecap:round;stroke-linejoin:round;stroke-miterlimit:4;stroke-dasharray:none;stroke-opacity:1" d="M-221.6 892.009c8.024-3.205 6.59 25.246.888 23.669" transform="translate(689.12 -373.808)"/><path style="opacity:1;fill:none;fill-opacity:1;stroke:#000;stroke-width:4;stroke-linecap:round;stroke-linejoin:round;stroke-miterlimit:4;stroke-dasharray:none;stroke-opacity:1" d="M-224.854 886.683c.479-2.673 4.06-5.213 7.683-3.532 4.631 2.15 8.266 9.263 8.266 18.998 0 9.735-3.046 22.282-10.624 20.375" transform="translate(689.12 -373.808)"/><path d="M469.59 476.474c-9.62 10.007-40.75 29.72-40.75 63.625 0 17.03 7.614 31.812 19.552 31.812 3.674 0 6.341-3.051 6.341-6.156 0-3.105-2.602-6.125-6.34-6.125-4.779 0-8.673-12.926-8.673-20.875 0-25.577 21.775-43.613 29.87-52.5 8.097 8.887 29.872 26.923 29.872 52.5 0 7.95-3.895 20.875-8.673 20.875-3.738 0-6.34 3.02-6.34 6.125s2.666 6.156 6.34 6.156c11.939 0 19.552-14.782 19.552-31.812 0-33.905-31.13-53.618-40.75-63.625zm0 81.53c-5.969 0-10.816 3.517-10.816 7.845 0 4.327 4.847 7.812 10.817 7.812s10.817-3.485 10.817-7.812c0-4.328-4.847-7.844-10.817-7.844z" style="fill:#fef137;fill-opacity:1;stroke:none;stroke-width:1;stroke-linecap:round;stroke-linejoin:round;stroke-miterlimit:4;stroke-dasharray:none;stroke-opacity:1"/><g style="fill:#fef137;fill-opacity:1"><path transform="matrix(1.89523 .0211 -.02113 1.89248 -5665.77 -2192.144)" d="M3229.29 1406.959a20.79 20.79 0 1 1-41.579 0 20.79 20.79 0 1 1 41.579 0z" style="fill:#fef137;fill-opacity:1;fill-rule:nonzero;stroke:#000;stroke-width:4.22392082;stroke-linecap:butt;stroke-linejoin:miter;stroke-miterlimit:4;stroke-dasharray:none;stroke-dashoffset:0;stroke-opacity:1"/><path transform="matrix(1.89523 .0211 -.02113 1.89248 -5497.291 -2192.144)" d="M3229.29 1406.959a20.79 20.79 0 1 1-41.579 0 20.79 20.79 0 1 1 41.579 0z" style="fill:#fef137;fill-opacity:1;fill-rule:nonzero;stroke:#000;stroke-width:4.22392082;stroke-linecap:butt;stroke-linejoin:miter;stroke-miterlimit:4;stroke-dasharray:none;stroke-dashoffset:0;stroke-opacity:1"/></g><g><path style="fill:#3c6d3d;fill-opacity:1;fill-rule:nonzero;stroke:#000;stroke-width:5;stroke-linecap:butt;stroke-linejoin:miter;stroke-miterlimit:4;stroke-dasharray:none;stroke-dashoffset:0;stroke-opacity:1" d="M39.706 507.292c-6.329-.07-11.523 4.993-11.594 11.313-.07 6.32 5.015 11.523 11.344 11.593 6.33.07 11.523-5.024 11.594-11.343.07-6.32-5.015-11.493-11.344-11.563zm0 31.938c-6.329-.07-11.523 5.023-11.594 11.343-.07 6.32 5.015 11.492 11.344 11.563 6.33.07 11.523-4.993 11.594-11.313.07-6.32-5.015-11.523-11.344-11.593z" transform="translate(345.77 3.494)"/><path d="M12.16 534.589c-.071 6.329 4.992 11.523 11.312 11.594 6.32.07 11.523-5.015 11.594-11.344.07-6.33-5.024-11.523-11.344-11.594-6.32-.07-11.492 5.015-11.563 11.344zm31.937 0c-.07 6.329 5.024 11.523 11.344 11.594 6.32.07 11.492-5.015 11.562-11.344.07-6.33-4.993-11.523-11.312-11.594-6.32-.07-11.524 5.015-11.594 11.344z" style="fill:#3c6d3d;fill-opacity:1;fill-rule:nonzero;stroke:#000;stroke-width:5;stroke-linecap:butt;stroke-linejoin:miter;stroke-miterlimit:4;stroke-dasharray:none;stroke-dashoffset:0;stroke-opacity:1" transform="translate(345.77 3.494)"/><path style="fill:#3c6d3d;fill-opacity:1;fill-rule:nonzero;stroke:#000;stroke-width:2.63995051;stroke-linecap:butt;stroke-linejoin:miter;stroke-miterlimit:4;stroke-dasharray:none;stroke-dashoffset:0;stroke-opacity:1" d="M3212.362 1405.728a6.05 6.05 0 1 1-12.1 0 6.05 6.05 0 1 1 12.1 0z" transform="matrix(1.89523 .0211 -.02113 1.89248 -5661.65 -2189.768)"/></g><g><path d="M39.706 507.292c-6.329-.07-11.523 4.993-11.594 11.313-.07 6.32 5.015 11.523 11.344 11.593 6.33.07 11.523-5.024 11.594-11.343.07-6.32-5.015-11.493-11.344-11.563zm0 31.938c-6.329-.07-11.523 5.023-11.594 11.343-.07 6.32 5.015 11.492 11.344 11.563 6.33.07 11.523-4.993 11.594-11.313.07-6.32-5.015-11.523-11.344-11.593z" style="fill:#3c6d3d;fill-opacity:1;fill-rule:nonzero;stroke:#000;stroke-width:5;stroke-linecap:butt;stroke-linejoin:miter;stroke-miterlimit:4;stroke-dasharray:none;stroke-dashoffset:0;stroke-opacity:1" transform="translate(514.249 3.494)"/><path style="fill:#3c6d3d;fill-opacity:1;fill-rule:nonzero;stroke:#000;stroke-width:5;stroke-linecap:butt;stroke-linejoin:miter;stroke-miterlimit:4;stroke-dasharray:none;stroke-dashoffset:0;stroke-opacity:1" d="M12.16 534.589c-.071 6.329 4.992 11.523 11.312 11.594 6.32.07 11.523-5.015 11.594-11.344.07-6.33-5.024-11.523-11.344-11.594-6.32-.07-11.492 5.015-11.563 11.344zm31.937 0c-.07 6.329 5.024 11.523 11.344 11.594 6.32.07 11.492-5.015 11.562-11.344.07-6.33-4.993-11.523-11.312-11.594-6.32-.07-11.524 5.015-11.594 11.344z" transform="translate(514.249 3.494)"/><path transform="matrix(1.89523 .0211 -.02113 1.89248 -5493.172 -2189.768)" d="M3212.362 1405.728a6.05 6.05 0 1 1-12.1 0 6.05 6.05 0 1 1 12.1 0z" style="fill:#3c6d3d;fill-opacity:1;fill-rule:nonzero;stroke:#000;stroke-width:2.63995051;stroke-linecap:butt;stroke-linejoin:miter;stroke-miterlimit:4;stroke-dasharray:none;stroke-dashoffset:0;stroke-opacity:1"/></g></g><use xlink:href="#a" transform="translate(-379.182)" width="810" height="1500"/><use xlink:href="#a" transform="matrix(1 0 0 -1 -189.591 481.145)" width="810" height="1500"/></g></svg>