<svg xmlns="http://www.w3.org/2000/svg" version="1.0" width="292.585" height="446.444"><path d="M917.414 306.19c-3.987 2.512-10.8 2.918-15.94.951-5.118-1.959-12.896-7.843-12.896-9.757 0-.68-.9-2.38-2-3.778-2.476-3.147-2.772-13.333-.516-17.698 2.223-4.297 7.016-7.262 12.086-7.475 2.417-.102 4.671-.462 5.009-.8.338-.338-1.286-4.133-3.61-8.434-11.184-20.71-13.347-25.334-16.988-36.32-7.476-22.556.114-48.832 16.154-55.922 2.95-1.304 6.94-3.092 8.865-3.974 2.37-1.085 6.168-1.579 11.761-1.529 7.916.07 8.234-.013 7.604-1.997-1.255-3.956-11.618-22.144-13.433-23.578-2.644-2.088-3.61-8.362-2.298-14.921 1.337-6.687 14.427-16.15 31.866-23.036 3.3-1.304 6.45-2.69 7-3.083 2.436-1.74 18.868-6.184 27.921-7.554 5.458-.825 10.183-1.66 10.5-1.854 1.334-.817 8.469-1.456 22.578-2.024 31.2-1.256 41.518-.96 53 1.52 2.2.475 9.231 1.963 15.624 3.307 6.394 1.344 15.844 3.86 21 5.59 5.157 1.73 11.626 3.861 14.376 4.734 9.014 2.86 22.904 10.976 27.867 16.282 5.664 6.055 6.977 9.223 6.141 14.817-.666 4.46-4.282 12.222-5.693 12.222-.448 0-.815.675-.815 1.5s-.4 1.5-.89 1.5c-.489 0-1.824 1.913-2.966 4.25-1.143 2.338-3.076 5.93-4.296 7.981-1.22 2.052-2.011 3.939-1.757 4.193.253.253 2.7.536 5.435.629 4.965.168 18.474 4.457 18.474 5.866 0 .409 1.035 1.297 2.3 1.974 5.544 2.967 11.482 14.422 13.102 25.275 1.487 9.965-3.285 31.472-9.91 44.662-1.37 2.728-2.491 5.427-2.491 5.997 0 .57-1.406 3.88-3.124 7.355-4.464 9.032-5.726 11.969-6.419 14.943-.561 2.41-.298 2.678 3.216 3.29 6.793 1.184 10.214 3.662 13.05 9.454 2.438 4.982 2.54 5.704 1.403 10-2.355 8.905-9.67 15.166-17.626 15.09-2.2-.022-6.472-1.105-9.493-2.408-3.02-1.303-5.774-2.195-113.246-.116-107.38 1.613-108.64 2.068-109.925 2.877zm140.368 93.494c.658.657 1.556 1.195 1.996 1.195 1.155 0 7.985 7.146 10.11 10.577 5.2 8.402 6.514 14.012 5.873 25.09-.16 2.752-.742 3.375-4.433 4.748-2.338.868-6.163 1.455-8.5 1.304-2.338-.152-4.25.111-4.25.584s3.937 4.791 8.75 9.597c8.733 8.72 17.482 14.672 29.088 19.787 3.114 1.373 8.362 3.725 11.662 5.227 3.3 1.502 9.937 3.543 14.75 4.536 4.812.993 8.791 1.86 8.843 1.928.05.067.302 9.417.557 20.778.348 15.514.163 20.842-.747 21.404-.666.412-19.704.867-42.307 1.011-22.603.145-71.929.556-109.613.913s-68.847.32-69.25-.084c-.403-.403-.733-10.558-.733-22.566v-21.834l2.75-.142c8.646-.448 12.521-1.304 19.75-4.364 1.65-.698 7.605-3.167 13.234-5.485 9.576-3.944 12.858-5.736 24.266-13.249 5.2-3.425 17.118-15.76 16.38-16.953-.274-.444-1.56-.807-2.855-.807-2.84 0-7.676-5.757-9.468-11.27-1.371-4.217-.68-10.504 1.673-15.23 1.883-3.782 8.608-11.905 13.563-16.383 2.087-1.886 3.437-3.715 3-4.066-.436-.35-4.611-2.156 30.342-1.86 35.551 3.91 34.642 4.687 35.57 5.614zm-144.126-99.453c5.826-2.331 8.42-8.49 9.623-22.852.875-10.433-4.948-30.3-11.915-40.654-.983-1.46-1.786-3.416-1.786-4.346 0-.93-.851-2.885-1.89-4.345-1.04-1.46-1.997-3.105-2.128-3.655-.387-1.632-1.103-3.821-2.243-6.86-.59-1.572-1.073-6.184-1.073-10.249 0-6.899.248-7.75 3.735-12.812 5.094-7.396 10.517-9.975 19.4-9.228 3.722.314 7.143 1.194 8.139 2.095 2.528 2.288 3.364 1.903 2.588-1.19-1.016-4.046-2.185-5.045-8.079-6.903-5.009-1.58-5.716-1.577-11.641.034-12.562 3.416-19.869 11.696-20.399 23.113-.544 11.716 1.429 20.285 7.416 32.223 3.121 6.222 6.735 13.442 8.03 16.045 1.296 2.603 2.713 4.957 3.15 5.232 1.632 1.026 4.323 12.714 4.286 18.617-.047 7.544-2.1 15.9-4.423 18.002-2.74 2.48-3.982.803-2.14-2.891a443.226 443.226 0 0 0 2.44-4.964c1.062-2.219 1.088-15.059.033-16.314-.439-.522-1.63-3.425-2.645-6.45-2.695-8.021-7.286-17.655-10.962-22.999-1.767-2.569-4.309-7.783-5.648-11.586-2.099-5.96-2.436-8.71-2.44-19.915-.006-12.287.14-13.247 2.654-17.5 3.502-5.922 7.164-9.268 13.736-12.554 5.642-2.821 16.919-4.843 18.554-3.327 1.42 1.318 4.554 1.062 4.518-.369-.103-4.028-5.932-6.677-14.8-6.726-4.4-.024-17.187 4.852-19.938 7.603-.763.763-2.229 1.837-3.258 2.388-1.03.55-3.46 4.26-5.4 8.243-2.692 5.523-3.541 8.548-3.578 12.742-.048 5.43 1.352 18.615 2.389 22.5 3.082 11.55 4.462 14.675 12.494 28.294 1.717 2.912 3.123 5.577 3.123 5.922 0 .344.6 1.337 1.334 2.205.735.869 1.908 4.28 2.608 7.58.7 3.3 1.675 7.304 2.165 8.898a19.457 19.457 0 0 1-.308 12.28c-1.735 4.797-2.8 4.087-2.8-1.864 0-10.137-7.752-13.1-14.175-5.418-4.824 5.77-1.645 16.2 6.409 21.027 4.96 2.973 9.09 3.231 14.845.928zm243.688-2.573c2.57-2.134 5.24-9.493 4.602-12.686-.337-1.683-1.007-2.816-1.49-2.518-.483.299-.878-.14-.878-.977 0-1.757-5.989-3.656-10.473-3.32-2.729.204-3.04-.115-3.879-3.978-1.044-4.81.391-10.228 5.776-21.8 1.79-3.85 3.801-8.651 4.467-10.67.666-2.018 1.863-4.21 2.66-4.872.796-.662 1.448-1.998 1.448-2.971 0-.973.89-3.73 1.979-6.128 2.385-5.257 2.905-10.213 3.866-14.609 3.567-16.322.991-28.178-8.098-37.267-5.419-5.42-8.108-6.71-16.787-8.057-8.029-1.246-11.327-.453-12.213 2.936-.474 1.81-.082 2.02 3.611 1.926 2.278-.058 5.942.249 8.142.682 4.583.902 14.355 6.924 15.222 9.38.32.908 1.097 2.325 1.726 3.15 2.598 3.41 4.86 12.486 4.757 19.087-.096 6.124-4.606 24.825-7.18 29.777-6.279 12.076-15.025 35.72-15.025 40.617 0 3.717 3.157 9.923 7.213 14.183 2.923 3.07 3.064 5.336.332 5.336-1.96 0-7.423-6.596-8.09-9.768-.317-1.503-.998-3.513-1.515-4.468-2.675-4.944-.5-17.187 5.21-29.324 1.568-3.332 2.85-6.73 2.85-7.55 0-.82.378-1.917.84-2.44.462-.522 1.424-2.525 2.137-4.45.714-1.925 2.421-5.962 3.794-8.97 6.88-15.076 7.917-29.075 2.91-39.271-2.581-5.257-3.368-5.995-9.32-8.75-9.919-4.591-19.563-3.834-21.891 1.718-.745 1.775-1.042 3.416-.662 3.646.381.231 3.079.04 5.996-.425 6.251-.995 7.412-.669 12.696 3.57 2.914 2.338 4.51 4.713 5.879 8.746 1.834 5.406 1.82 6.596-.182 15.236-1.592 6.871-9.105 24.5-10.44 24.5-.416 0-.757.533-.757 1.185 0 .65-.82 3.013-1.821 5.25-6.155 13.734-7.763 22.398-6.531 35.195.953 9.905 1.169 10.586 4.427 13.974 4.397 4.57 6.219 5.55 12.926 6.953 5.471 1.144 8.863.632 11.766-1.778zm-38.517-27.441c-.687-.277-1.812-.277-2.5 0-.687.277-.124.504 1.25.504 1.376 0 1.938-.227 1.25-.504zm-4.813-5.235c-12.15-49.343-12.764-34.45-3.898-4.284 1.465 4.932 2.675 6.262 3.898 4.284zM929.41 248.617c6.31-25 8.664-44.676 6.227-52.06-1.552-4.703-3.464-5.678-11.379-5.796-7.717-.116-9.9.924-13.325 6.35-4.899 7.759-3.77 18.284 3.42 31.873 1.631 3.082 3.99 8.707 5.244 12.5 1.253 3.792 2.571 7.12 2.929 7.395.357.275 1.209 2.413 1.891 4.75.683 2.338 1.561 4.245 1.952 4.238.39-.007 1.759-4.17 3.041-9.25zm199.662-3.311c.892-3.322 3.754-9.924 7.69-17.742.504-.998 2.243-5.417 3.866-9.818 3.21-8.709 3.801-15.873 1.498-18.176-.799-.8-1.196-1.709-.883-2.022 1.071-1.07-6.097-6.66-9.317-7.263-1.77-.332-4.792-.084-6.717.551-3.306 1.091-3.543 1.473-4.266 6.85-.909 6.758-.906 16.575.01 24.193 2.821 23.55 3.873 28.419 5.986 27.715.595-.199 1.557-2.128 2.136-4.288z" style="fill:#e32033" transform="translate(-879.666 -82.562)"/><path d="M1016.903 396.713c2.087-1.886-24.595-.432-25.032-.783-.436-.35-4.611-2.156-9.278-4.014-8.634-3.437-13.271-6.335-25.225-15.765-8.478-6.688-10.133-8.298-16.72-16.272-8.734-10.57-18.55-34.653-19.512-47.87-.256-3.503-.671-6.576-.925-6.83l6.303-43.973 33.063 11.68 44.062 4.327 103.209-4.034 14.332-6.211 11.393 34.984c.126.385 1.214 3.874 1.146 8.753-.068 4.88-.739 10.627-1.49 12.773-.752 2.146-1.679 6.007-2.06 8.58-.381 2.575-1.57 5.796-2.642 7.159-1.072 1.363-1.95 3.084-1.95 3.825 0 1.754-7.032 12.837-8.145 12.837-.47 0-.855.861-.855 1.913 0 2.053-12.23 15.002-17.993 19.052-13.55 9.523-26.728 16.965-30.235 17.075-.7.023-3.632 1.06-6.517 2.305-4.068 1.757-17.099.765-16.172 1.692zm82.281-33.832c-.059-1.673-.073 2.998-.01 2.998.064 0 .068-1.349.01-2.998z" style="fill:#218848" transform="translate(-879.666 -82.562)"/><path d="m43.184 60.061 5.556 12.627c12.102 27.505 9.155 8.79 10.606 41.921 1.739 39.676-11.111 62.63-9.849 64.145 1.263 1.515 3.283.758 7.072 1.515 3.788.758 5.555 9.092 11.616 8.587 6.061-.506 11.112-1.768 12.627.757 1.515 2.526 2.778 6.819 7.829 4.546 5.05-2.273 16.415-6.314 21.718-2.526 5.303 3.789 7.071 12.122 15.91 7.324s23.739-11.87 30.557-5.556c6.819 6.314 6.566 9.092 11.617 4.04 5.05-5.05 13.89-13.131 19.445-8.333 5.556 4.798 8.84 14.142 12.122 7.829 3.283-6.314 4.04-14.395 12.375-9.85 8.333 4.546 6.818 8.587 14.394 3.789 7.576-4.798 9.344-6.061 10.86-5.556 1.515.505 6.313 4.293 6.565 0 .253-4.293-7.576-31.315-7.07-38.386.504-7.07-4.294-35.355.252-42.426 4.546-7.071 16.415-31.82 12.627-33.588-3.788-1.768-13.89 2.273-36.113 6.314-22.224 4.04-39.144 7.07-62.125 6.313-22.98-.757-42.679-1.515-60.861-6.818-18.183-5.304-47.73-16.668-47.73-16.668z" style="color:#000;fill:#f7cc28;fill-opacity:1;fill-rule:nonzero;stroke:none;stroke-width:1px;marker:none;visibility:visible;display:inline;overflow:visible;enable-background:accumulate"/><path d="M910.444 527.654c-.201-.7-.366-10.725-.366-22.275v-21l3.5-.252c7.255-.522 15.593-2.515 20.12-4.809 2.578-1.306 7.526-3.357 10.996-4.558 6.934-2.4 12.08-5.242 23.158-12.792 7.827-5.334 19.21-16.495 18.31-17.952-.299-.483-1.825-1.135-3.391-1.448-1.893-.379-3.83-2.017-5.771-4.88-2.498-3.683-2.922-5.265-2.922-10.899 0-8.578 3.566-15.601 12.206-24.035 3.461-3.38 6.294-6.498 6.294-6.93 0-.432-1.463-1.103-3.25-1.49-6.422-1.39-20.836-9.405-28.666-15.94-11.134-9.291-13.739-11.8-21.318-20.533-4.215-4.856-10.189-17.023-13.285-27.054-.92-2.985-2.29-7.084-3.042-9.108-.752-2.024-1.43-5.4-1.504-7.5-.326-9.066-1.5-10.928-4.936-7.819-2.43 2.2-11.793 2.158-16.58-.073-5.078-2.367-11.378-7.533-11.401-9.349-.01-.782-.725-2.202-1.588-3.155-1.092-1.207-1.624-4.034-1.75-9.306l-.18-7.571 4-4c3.36-3.36 4.75-4.048 8.694-4.301 2.583-.166 4.979-.586 5.326-.933.755-.755-3.423-9.606-9.178-19.448-4.03-6.893-9.993-21.483-12.254-29.986-.603-2.267-1.131-8.792-1.173-14.5-.086-11.55 2.434-22.075 6.074-25.37 1.106-1 2.01-2.343 2.01-2.983 0-2.009 5.072-5.689 12.689-9.208 9.51-4.394 16.683-5.862 21.777-4.455 2.116.584 4.238.82 4.716.525.966-.597-8.085-18.072-13.624-26.302-2.718-4.04-3.557-6.31-3.557-9.627 0-2.388.45-4.619 1-4.959.55-.34 1-1.293 1-2.118 0-3.578 8.317-10.339 19.4-15.77 6.13-3.002 12.376-5.768 13.881-6.146 1.506-.378 2.977-1.075 3.27-1.55.415-.671 5.914-2.64 9.449-3.382.275-.057 1.512-.667 2.75-1.354 1.237-.688 2.25-1.02 2.25-.74 0 .281 1.237.036 2.75-.544 1.512-.58 7.025-1.707 12.25-2.506 5.225-.798 10.85-1.664 12.5-1.924 9.18-1.446 16.317-1.777 38.5-1.788 19.15-.01 26.246.355 32.5 1.67 4.4.925 8.674 1.724 9.5 1.777 5.395.342 26.034 5.36 28.5 6.929.55.35 3.25 1.205 6 1.9 2.75.695 6.417 1.89 8.15 2.655 1.734.765 3.534 1.397 4 1.404.902.013 9.508 4.319 15.35 7.678 8.072 4.642 15.978 14.513 15.465 19.31-.088.824-.23 2.679-.313 4.12-.084 1.443-2.402 6.07-5.152 10.282s-5 8.063-5 8.557c0 .493-.563 1.499-1.25 2.234-1.813 1.938-5.157 8.733-4.582 9.308.27.27 2.704.74 5.41 1.045 20.597 2.327 33.33 16.045 33.37 35.953.014 7.116-1.907 19.751-4.106 27l-1.364 4.5c-.572 1.895-1.914 5.005-3.452 8-.988 1.925-2.096 4.625-2.461 6-.365 1.375-1.954 5.2-3.531 8.5-8.395 17.568-8.795 19.5-4.041 19.5 8.238 0 15.007 6.757 15.007 14.98 0 8.054-5.883 16.345-12.474 17.581-4.954.93-13.036-.104-15.765-2.016-4.186-2.931-5.756-2.066-5.815 3.205-.089 7.917-1.102 16.64-2.166 18.645-.554 1.043-1.194 3.901-1.423 6.353-.345 3.7-3.418 11.3-5.357 13.25-.275.276-.638 1.14-.806 1.919-.558 2.585-5.254 9.892-6.72 10.454-.792.305-1.212 1.15-.933 1.877.607 1.58-11.98 14.741-17.326 18.116-2.06 1.3-4.356 3.1-5.103 4-.746.9-1.784 1.636-2.305 1.636-.52 0-2.828 1.289-5.127 2.863-5.765 3.949-12.112 7.076-17.77 8.757-2.627.78-6.669 2.265-8.983 3.301l-4.206 1.884 2.889 1.577c3.803 2.076 7.39 5.193 7.39 6.422 0 .54.631 1.225 1.403 1.52 2.11.81 7.506 12.528 8.22 17.848.345 2.57.325 6.686-.044 9.148-.564 3.758-1.158 4.677-3.708 5.734-1.67.691-5.25 1.18-7.954 1.084-3.41-.121-4.909.215-4.89 1.094.065 2.883 21.567 22.768 24.62 22.768.325 0 3.125 1.504 6.222 3.342 3.097 1.839 7.206 3.918 9.13 4.62 1.926.703 6.2 2.528 9.5 4.056 3.3 1.529 9.938 3.57 14.75 4.537 8.698 1.747 8.751 1.776 8.844 4.852.23 7.63-.102 38.936-.416 39.25-.193.192-45.761.577-101.264.856-55.502.28-105.023.74-110.047 1.023-6.899.389-9.223.203-9.5-.76zm19.494-11.856c.148-2.43-.037-5.821-.41-7.535-.374-1.714-.255-3.875.264-4.802.615-1.1.564-2.144-.147-3-.6-.724-1.015-2.163-.92-3.198.503-5.57-.182-8.384-2.04-8.384-2.52 0-3.317 2.42-2.53 7.674.468 3.118.304 4.326-.586 4.326-.867 0-.931.374-.215 1.25.562.688 1.346 5.3 1.743 10.25s.946 9.38 1.22 9.846c1.073 1.826 3.366-2.242 3.62-6.427zm40.895 4.936c-.816-.815-.811-1.594.018-2.921.838-1.342.84-2.409.007-4.122-.618-1.271-1.094-2.987-1.058-3.812.036-.825-.24-5.775-.613-11-.504-7.073-1.098-9.817-2.323-10.742-1.334-1.006-1.967-.952-3.333.284-1.28 1.16-1.62 2.902-1.414 7.242.15 3.144-.191 6.279-.756 6.966-.707.86-.7 1.25.024 1.25.652 0 1.034 3.01 1.004 7.904-.054 8.83.496 10.45 3.253 9.576 1.042-.331 2.688-.158 3.657.384 2.117 1.185 3.088.546 1.534-1.009zm152.98-1.355c1.067-1.453.933-29.278-.145-29.944-1.948-1.204-4.249.677-3.667 2.997.343 1.363.07 2.486-.675 2.788-.994.404-.991.689.014 1.4.969.685 1.006 1.624.162 4.046-.81 2.327-.793 4.08.067 6.687.642 1.943.876 4.855.521 6.471-.355 1.616-.15 3.864.457 4.997.736 1.376.758 2.058.067 2.058-.57 0-1.035.505-1.035 1.123 0 1.134 2.705-.542 4.234-2.623zm-203.162-6.25c.127-15.277-.182-23.728-.897-24.458-1.668-1.705-3.185 1.18-3.296 6.267-.137 6.31 1.152 25.087 1.798 26.191 1.472 2.514 2.33-.356 2.395-8zm16.752-7.5c-.32-15.955-.366-16.256-2.565-16.568-2.165-.307-2.222-.106-1.694 6 1.188 13.758 1.233 17.355.232 18.562-.732.882-.709 1.256.079 1.256.617 0 1.122 1.275 1.122 2.834 0 2.925.668 4.166 2.243 4.166.521 0 .77-6.93.583-16.25zm7.253 13.545c.565-1.488.789-4.3.497-6.25-.292-1.95-.626-8.045-.742-13.545-.194-9.181-.81-11.44-3.13-11.484-.857-.017-.848 26.777.01 31.269.663 3.464 2.05 3.468 3.364.01zm14.077 1.705c.555 0 .88-2.12.738-4.803-.14-2.641.06-5.313.445-5.936.385-.623.289-2.964-.214-5.203-.567-2.521-.556-4.291.029-4.653.591-.365.59-1.017-.003-1.744-.52-.638-.782-3.055-.58-5.371.383-4.402-.39-5.68-2.861-4.732-1.148.44-1.522 2.918-1.7 11.254-.377 17.674.02 22.391 1.823 21.7.732-.282 1.778-.512 2.324-.512zm20.187-8.902c-.141-5.011.174-9.3.709-9.63 1.37-.846 1.904 1.112 2.33 8.532.204 3.575.428 7.319.495 8.32.088 1.29.78 1.726 2.374 1.5 2.174-.31 2.251-.688 2.296-11.36.063-14.926-.425-19.2-2.272-19.908-2.342-.898-4.309 2.478-4.047 6.948.137 2.357-.17 3.795-.747 3.5-.887-.452-1.124-1.923-1.394-8.643-.095-2.35-2.238-3.62-4.586-2.718-1.221.468-1.5 2.86-1.5 12.843 0 14.858.546 18.003 3.353 19.288 1.18.54 2.393.842 2.695.672.301-.17.434-4.376.294-9.344zm27.473 9c1.445-.773 1.667-2.585 1.562-12.75-.186-17.913-.23-18.354-1.945-19.012-.862-.33-2.04-.129-2.617.449-1.234 1.234-1.765 26.607-.627 29.965.85 2.51 1.209 2.643 3.627 1.349zm23.126-4.848c-.366-3.162-.495-6.056-.287-6.43.208-.375-.053-.948-.578-1.273-.594-.367-.611-1.625-.045-3.319.752-2.252.803-8.981.112-14.977-.089-.773-1.384-1.154-3.393-1l-3.25.25.217 6c.12 3.3.41 9.374.646 13.5.236 4.124.476 8.483.533 9.686.08 1.689.843 2.278 3.354 2.59 1.787.222 3.273.475 3.302.563.03.088-.246-2.427-.611-5.59zm10.634 3.51c.305-.958.312-2.133.016-2.612-.295-.478-.59-6.484-.655-13.346-.064-6.861-.414-12.887-.777-13.389-.362-.502-1.634-1.013-2.826-1.136-1.805-.186-2.28.445-2.843 3.78-.596 3.527-.921 21.78-.436 24.443.1.55.105 1.409.011 1.909-.513 2.72 6.65 3.055 7.51.35zm7.506-1.51c.045-2.062-.016-6.45-.135-9.75-.12-3.3-.22-8.776-.223-12.17 0-5.142-.311-6.25-1.84-6.65-1.288-.337-2.268.384-3.279 2.411-.793 1.59-1.074 3.119-.624 3.397.45.278.85 5.12.888 10.76.086 12.783.273 14.09 2.132 14.932 2.66 1.206 2.998.884 3.081-2.93zm8.146 2.75c.73 0 .836-3.22.34-10.25-.399-5.637-.687-12.275-.641-14.75.104-5.606-1.01-7.612-3.465-6.238-1.544.864-1.762 2.418-1.664 11.866.154 14.893.99 20.668 2.887 19.94.814-.312 1.958-.568 2.543-.568zm53.28-14.698c.285-15.134-.16-17.302-3.548-17.302-1.659 0-1.771 1.089-1.477 14.25.176 7.838.364 15.005.419 15.927.085 1.439 2.873 2.98 3.963 2.19.201-.144.49-6.924.644-15.065zm-158.007 13.933c1.232-.906 1.363-30.47.139-31.362-.474-.345-1.697-.409-2.719-.142-1.724.451-1.834 1.55-1.529 15.248.367 16.446.913 18.604 4.109 16.256zm48.01-6.274c.006-3.553.35-6.992.766-7.642.416-.65.335-1.441-.18-1.76-.516-.318-.942-3.387-.948-6.819-.017-10.591-.36-11.259-4.965-9.654-3.131 1.092-3.554 2.014-3.4 7.414.03 1.1.143 6.725.249 12.5.106 5.775.603 11.01 1.104 11.632.502.622 2.364 1.055 4.138.96l3.226-.17.01-6.46zm19.835-8.244c-.093-8.848-.587-15.303-1.231-16.08-.627-.754-2.338-1.11-4.095-.853l-3.02.443-.145 11.637c-.15 12.027.08 18.192.718 19.243.203.334 2.07.559 4.148.5l3.78-.107-.155-14.783zm46.01 2.533c-.21-18.33-.202-18.254-1.933-18.918-1.933-.742-4.507 1.656-4.565 4.254-.106 4.767 1.155 23.877 1.686 25.55.339 1.069 1.523 1.864 2.774 1.864 2.137 0 2.18-.267 2.037-12.75zm18 4.096c-.28-2.665-.56-8.753-.622-13.529-.101-7.767-.322-8.737-2.097-9.202-1.09-.285-2.373-.278-2.848.016-.93.574-.999 23.333-.083 27.199.303 1.281 1.506 2.687 2.673 3.124 2.78 1.04 3.652-1.19 2.977-7.608zm7.738 4.797c.513-14.433-.25-26.439-1.777-27.967-1.097-1.1-1.393-1.1-1.738 0-.879 2.796-1.706 7.408-1.673 9.324.035 2.042.031 10.192-.01 12-.027 1.31 1.08 7.656 1.61 9.233.726 2.156 3.487.16 3.585-2.59zm9.417 2.84c.345-.558 1.16-.697 1.809-.307.893.535.903.357.042-.734-.627-.793-1.458-4.254-1.849-7.692-.642-5.662-.535-6.253 1.139-6.282 1.749-.03 1.754-.103.098-1.36-1.295-.983-1.75-2.764-1.75-6.846 0-3.802-.49-5.923-1.576-6.825-2.13-1.767-3.366.214-3.474 5.563-.4 19.802-.218 23.718 1.138 24.576 1.88 1.19 3.652 1.154 4.422-.092zm16.185-.233c.517-.687.766-4.85.554-9.25-.213-4.4-.366-10.842-.341-14.316.043-5.924-.09-6.297-2.125-6-2.09.305-2.179.813-2.409 13.816-.13 7.425-.013 14.288.261 15.25.581 2.038 2.706 2.3 4.06.5zm-42.4-7.262a933.094 933.094 0 0 1-.26-13.988c-.076-7.98-.908-9.992-3.758-9.088-1.84.584-1.949 1.389-1.613 11.857.199 6.177.395 12.356.437 13.731.093 3.127 1.727 5.18 3.801 4.78 1.29-.248 1.55-1.607 1.393-7.292zm-95.764-31.488c1.647 0 1.836-.872.608-2.808-.883-1.393-6.14-.668-6.14.847 0 .452-1.012.966-2.25 1.142-3.729.53-1.536 2.229 2.5 1.937 2.18-.157 4.387-1.118 5.282-1.118zm-12.031 1c.356-.577-.57-.993-2.191-.984-2.182.011-2.474.232-1.31.984 1.922 1.242 2.733 1.242 3.5 0zm134.5.04c0-.528-1.8-1.499-4-2.158-2.2-.66-4-1.577-4-2.04 0-.463-.9-.842-2-.842s-2-.394-2-.875-1.288-1.132-2.86-1.447c-1.574-.315-4.227-1.72-5.895-3.125-1.669-1.404-3.532-2.553-4.14-2.553-.608 0-1.105-.45-1.105-1s-.563-1.01-1.25-1.021c-.688-.012-2.596-1.587-4.241-3.5-1.645-1.914-3.377-3.479-3.849-3.479-2.01 0-12.66-13.386-12.66-15.912 0-.464-.69-1.416-1.534-2.115-.843-.7-1.365-1.768-1.16-2.373.205-.605-.793-1.603-2.217-2.217-2.29-.988-2.902-.785-5.283 1.75-1.8 1.916-3.685 2.867-5.683 2.867-3.776 0-4.716 2.504-2.562 6.824 2.016 4.04 1.534 6.588-1.322 6.996-1.985.283-2.24-.116-2.24-3.51 0-2.826-.558-4.178-2.134-5.161-1.78-1.112-2.275-1.11-2.984.009-.978 1.542-1.055 2.916-.885 15.688.085 6.36-.214 9.137-.936 8.691-.583-.36-1.071-3.216-1.084-6.346-.013-3.13-.416-7.379-.895-9.441-.479-2.063-.543-3.75-.143-3.75 1.245 0 .798-3.406-.635-4.84-2.058-2.058-6.296-.648-6.335 2.109-.043 2.993-2.37 5.898-4.17 5.207-1.729-.663-1.748-5.973-.033-9.095 1.313-2.391.748-3.381-1.933-3.381-1.008 0-1.833-.353-1.833-.785 0-.431-1.304-1.554-2.898-2.496-2.852-1.684-2.948-1.665-6 1.186-1.706 1.593-3.102 3.617-3.102 4.496 0 .88-.45 1.599-1 1.599s-1 .8-1 1.779c0 .979-.9 2.428-2 3.22-1.1.794-2 2.243-2 3.222 0 2.383-3.963 2.411-4.102.029-.056-.963-.59-.225-1.185 1.639-1.424 4.458-5.226 8.156-8.646 8.408-2.027.15-2.632.642-2.31 1.877.604 2.316-4.935 5.244-6.667 3.524-.941-.933-1.075-.849-.607.383.443 1.165-.5 2.015-3.579 3.224-2.299.903-4.637 1.36-5.196 1.014-.597-.369-.709-.13-.271.579.484.784-.338 1.615-2.346 2.373-3.219 1.215-4.406 3.27-1.341 2.322.962-.298 5.119-1.245 9.236-2.103 4.117-.86 7.92-1.996 8.45-2.526.53-.53 1.568-.964 2.306-.964 1.396 0 2.738-.927 6.944-4.796 3.02-2.777 7.493-2.44 10.086.76 1.698 2.096 1.789 2.102 5.228.335l3.5-1.8-2.75-.316c-1.513-.174-2.75-.756-2.75-1.294 0-.537.562-.904 1.25-.815 3.046.396 3.791-.408 5.351-5.775 2.746-9.443 6.017-10.602 8.464-2.997.743 2.309 2.157 4.925 3.143 5.815.986.89 1.792 2.352 1.792 3.25 0 .898.45 1.633 1 1.633s1 .9 1 2 .45 2 1 2 1 .707 1 1.571c0 1.937 1.951 3.974 4.547 4.746 2.82.84 7.516-3.703 10.925-10.567 1.57-3.163 3.231-5.75 3.691-5.75.46 0 .837-.815.837-1.812 0-2.233 3.772-6.447 5.06-5.651.517.32.94 1.23.94 2.022 0 .792.408 1.44.906 1.44.499 0 .682.858.408 1.906-.734 2.81 2.554 9.095 4.76 9.095 1.014 0 2.88-1.116 4.145-2.48 2.115-2.282 2.599-2.39 6.025-1.338 2.048.63 3.98 1.947 4.292 2.93.333 1.05 1.163 1.557 2.015 1.23.797-.306 1.449-.135 1.449.38s2.25 1.99 5 3.278 5 2.715 5 3.17c0 .457 1.098.83 2.441.83 1.342 0 2.72.45 3.059 1 .34.55 1.69 1 3 1s2.66.45 3 1c.34.55 1.829 1.007 3.309 1.015 1.48.008 3.366.452 4.191.985 1.938 1.252 5 1.277 5 .04zm-153.5-1.502c1.1-.112 2-.573 2-1.025 0-1.337-3.602-1.467-5.626-.202-2.367 1.478-2.463 3.15-.124 2.167.962-.405 2.65-.828 3.75-.94zm48.5.023c2.957-.04 4.465-.49 4.4-1.31-.291-3.637-.471-4.25-1.247-4.25-.466 0-1.885.9-3.153 2-2.962 2.567-5.4 2.633-4.744.126.384-1.468.063-1.762-1.486-1.357-1.086.284-2.334-.063-2.772-.772-.438-.71-1.512-1.015-2.386-.68-1.255.482-1.387 1.146-.626 3.146.53 1.395.638 2.568.239 2.606-.4.04.175.453 1.275.92 1.1.468 2.9.576 4 .241 1.1-.335 4.025-.636 6.5-.67zm39.343-.767c.802-3.066.172-3.31-2.26-.877-2.568 2.568-2.602 3.083-.2 3.083 1.101 0 2.123-.916 2.46-2.206zm16.452-.044c-.189-1.237-.895-2.137-1.57-2-.674.138-1.226-.473-1.226-1.357 0-1.059-.543-1.398-1.592-.996-1.062.408-1.767-.056-2.117-1.393-.288-1.102-.921-2.004-1.407-2.004s-.884-.627-.884-1.393c0-1.074-1.983-2.624-3.331-2.604-.172.003-.042 7.694.198 11.747.123 2.072.615 2.25 6.203 2.25 5.73 0 6.05-.126 5.726-2.25zm11.005 1.607c1.976-.53 2.21-1.057 1.657-3.737-.664-3.212-2.861-5.62-5.13-5.62-1.645 0-2.732 4.252-1.917 7.5.652 2.597 1.516 2.894 5.39 1.857zm16.2.07c0-.63-5.337-3.107-8.136-3.777-2.076-.497-2.744-.218-3.144 1.312-.28 1.068-.101 2.076.396 2.24 1.383.455 10.884.652 10.884.225zm-65.002-1.177c0-.412-1.125-2.057-2.5-3.655-1.374-1.598-2.498-3.736-2.498-4.75 0-1.015-.499-1.845-1.107-1.845-.61 0-.861-.642-.56-1.427.301-.785-.135-1.993-.97-2.685-1.23-1.021-1.688-.988-2.424.176-1.217 1.923-1.181 5.668.06 6.436.55.34 1 1.293 1 2.118s-.45 1.222-1 .882c-.55-.34-1 .286-1 1.391 0 1.106.788 2.468 1.75 3.029 2.03 1.182 9.251 1.44 9.25.33zm14.502-41.686c.55-.133 2.687-.59 4.75-1.015 2.062-.424 3.75-1.359 3.75-2.077s.473-1.463 1.05-1.656c1.67-.556 1.372-9.99-.421-13.316-.89-1.65-1.62-3.69-1.623-4.534 0-.844-1.388-2.35-3.076-3.348-1.688-.997-2.812-2.07-2.497-2.384.784-.785-2.454-4.234-3.975-4.234-.884 0-1.28 2.894-1.406 10.25-.096 5.638-.354 13.329-.573 17.091-.356 6.14-.222 6.771 1.312 6.154.94-.379 2.159-.797 2.709-.93zm-7.682-13.153c.107-5.897.564-11.214 1.016-11.816 1.222-1.63.576-10.723-.823-11.588-1.09-.674-8.07 4.89-7.363 5.87.525.729-2.711 6.123-3.674 6.123-.536 0-.975.868-.975 1.929 0 1.06-.685 2.614-1.524 3.453-1.697 1.697-2.705 9.359-1.341 10.201.48.297.605 1.606.278 2.909-.487 1.94-.262 2.284 1.247 1.902 1.012-.256 3.865.583 6.34 1.865 3.504 1.816 4.736 2.06 5.562 1.103.584-.676 1.15-6.054 1.257-11.951zm-26.318 7.812c3.784-2.067 5.04-3.337 5.167-5.227.093-1.372.679-4.296 1.302-6.496 1.115-3.93 1.65-6.585 1.903-9.44.094-1.065 8.054-10.06 9.886-10.06 1.316 0 1.276-.304-.259-2-1.08-1.193-3.058-1.99-4.905-1.978-3.855.028-10.475 3-13 5.837-1.047 1.178-2.536 2.141-3.308 2.141-.773 0-1.113.472-.757 1.048.357.577-.914 2.522-2.823 4.322-3.662 3.454-6.706 8.484-6.706 11.08 0 .853-.477 1.55-1.06 1.55-.582 0-.8.42-.483.931.316.512.118 1.214-.441 1.56-1.588.98-1.192 2.514.484 1.87.933-.357 1.5.008 1.5.967 0 .848.438 2.696.975 4.107 1.32 3.471 5.923 3.393 12.525-.212zm-9.5-2.723c0-1.375-.46-2.5-1.024-2.5-.562 0-.327-1.061.523-2.359.85-1.297 1.263-3.097.916-4-.443-1.156-.08-1.645 1.228-1.656 1.332-.011 1.496-.244.58-.825-1.72-1.092 4.03-7.16 6.785-7.16 2.683 0 2.496.892-1.024 4.886-1.642 1.862-3.032 4.337-3.09 5.5-.059 1.163-.19 3.605-.292 5.426-.27 4.819-4.602 7.349-4.602 2.688zm83.879 4.5c1.233 0 .686-8.385-.707-10.828-.73-1.28-1.081-2.968-.78-3.75.3-.782.14-1.422-.357-1.422-.495 0-1.213-.983-1.594-2.184s-2.774-4.239-5.317-6.75c-4.352-4.297-6.186-5.62-12.031-8.68-2.783-1.458-14.775-1.71-15.628-.33-.316.512 1.025 2.578 2.98 4.59 1.955 2.014 3.554 4.212 3.554 4.885s.62 1.738 1.376 2.366c1.181.98 2.473 5.566 3.146 11.163.103.858.816 2.872 1.584 4.475 1.081 2.255 2.165 2.976 4.792 3.19 1.867.15 4.761.956 6.431 1.79 3.562 1.776 5.57.136 3.133-2.558-.79-.873-1.722-3.01-2.07-4.75-.348-1.739-1.253-3.677-2.012-4.307-.759-.63-1.38-1.818-1.38-2.64 0-.823-1.384-3.073-3.077-5-3.706-4.222-2.693-6.419 1.749-3.795 2.963 1.75 5.328 5.628 5.328 8.735 0 .99.45 1.8 1 1.8s1 .9 1 2 .45 2 1 2 1 .9 1 2 .45 2 1 2 1 .863 1 1.918c0 3.222 1.173 5.23 2.711 4.64.8-.307 1.775-.558 2.169-.558zm-50.88-41.932c0-1.063-.9-2.219-2-2.568-1.1-.349-2-1.311-2-2.139 0-.827-.679-2.183-1.509-3.013-.83-.83-1.253-1.923-.94-2.428.312-.506.064-.92-.55-.92-.615 0-.905-.346-.643-.769.261-.422-.372-2.56-1.407-4.75-1.036-2.19-1.898-4.742-1.917-5.672-.019-.93-.449-1.947-.956-2.261-.508-.314-1.24-2.013-1.628-3.776-.736-3.351-1.078-4.196-3.864-9.524-.936-1.788-1.423-3.7-1.084-4.25.339-.549.205-.998-.299-.998-.503 0-.945-1.237-.98-2.75-.104-4.324-2.084-22.491-2.743-25.155-.364-1.468-.086-2.728.713-3.235 1.003-.636 1.016-.833.054-.844-.958-.012-1.113-2.306-.658-9.76.327-5.358.878-10.196 1.224-10.75.912-1.457.882-8.506-.036-8.506-.427 0-.776-1.28-.776-2.847 0-6.203-8.321-11.387-16-9.967-2.475.457-5.72 1.728-7.21 2.823-1.49 1.095-3.065 1.99-3.5 1.99-.435-.002-.635 2.758-.445 6.131.218 3.878-.076 6.394-.8 6.842-.718.444-1.16 4.112-1.187 9.868-.034 7.187-.347 9.16-1.451 9.16-.774 0-1.407.48-1.407 1.068 0 .587.787.817 1.75.512 1.447-.46 1.76.09 1.808 3.182.09 5.744 1.245 12.01 2.862 15.54.805 1.76 2.46 6.573 3.677 10.698s2.48 7.725 2.808 8c1.02.857 3.095 4.92 3.095 6.058 0 .597.679 1.764 1.509 2.594.83.83 1.277 1.884.994 2.343-.283.458.774 1.403 2.35 2.1 1.963.87 2.72 1.818 2.408 3.013-.256.98.462 2.532 1.641 3.54 1.154.989 2.098 2.397 2.098 3.13 0 1.612 12.874 14.68 13.674 13.881.31-.31-.165-1.292-1.055-2.183-.89-.89-1.62-1.976-1.62-2.412 0-.436-1.29-2.27-2.867-4.077-1.872-2.145-2.685-3.98-2.342-5.292.327-1.253.129-1.763-.528-1.357-1.16.717-2.262-1.436-2.262-4.42 0-1.055-.614-1.918-1.363-1.918-.86 0-1.261-.922-1.089-2.495.151-1.373-.136-2.75-.637-3.06-.501-.31-.911-1.661-.911-3.004 0-1.342-.365-2.44-.811-2.44-.446 0-1.396-2.363-2.11-5.25-.716-2.888-1.944-6.276-2.732-7.529-.787-1.253-1.219-2.62-.96-3.04.395-.64-.38-10.955-1.875-24.94-.255-2.39.148-3.525 1.51-4.253 2.128-1.14 2.55-.625 2.8 3.41.099 1.595.684 3.507 1.301 4.25.78.94.793 1.351.043 1.351-1.422 0-.766 10.572.771 12.425.87 1.05.838 1.483-.137 1.808-.956.319-.84.872.458 2.169 1.045 1.045 1.741 3.263 1.741 5.548 0 2.093.632 5.323 1.405 7.178.772 1.855 1.623 4.773 1.891 6.485.457 2.92 4.41 11.272 5.863 12.387.362.278.968 2.16 1.348 4.183.38 2.023 1.32 3.92 2.092 4.217.77.295 1.402 1.428 1.402 2.517 0 1.09 1.012 3.132 2.25 4.54 1.237 1.409 3.6 4.328 5.25 6.487s3.675 4.128 4.5 4.375c.825.247 1.612.501 1.75.565.137.064.25-.753.25-1.816zm25-3.566c1.375-1.839 3.75-4.086 5.277-4.994 3.694-2.198 7.723-5.988 7.723-7.265 0-1.545 2.789-2.307 3.427-.937.305.657.327.255.049-.893-.306-1.26.49-3.557 2.009-5.794 1.384-2.04 2.516-4.138 2.516-4.663 0-.526.45-.956 1-.956s1-.62 1-1.377c0-.758.675-1.938 1.5-2.623.825-.684 1.5-2.09 1.5-3.122 0-1.033.34-1.878.755-1.878.874 0 2.832-4.254 3.797-8.25.365-1.512 1.003-2.75 1.417-2.75.414 0 .538-1.127.274-2.506-.263-1.378.041-3.132.677-3.897 1.453-1.751 2.12-4.626 2.693-11.597.249-3.025.86-6.727 1.36-8.228.556-1.672.543-2.953-.033-3.309-1.505-.93-1.086-6.175.63-7.891 1.43-1.429 1.43-1.572 0-1.572-.863 0-1.57-.45-1.57-1s.337-.946.75-.881c2.034.32 2.477-.243 1.074-1.369-.908-.729-2.05-4.376-2.737-8.75-.649-4.125-1.609-7.65-2.134-7.833-.524-.183-.953-1.111-.953-2.062 0-2.157-3.582-6.105-5.54-6.105-.803 0-1.46-.416-1.46-.926 0-1.319-12.346-.538-12.795.81-.205.614-.959 1.116-1.675 1.116-1.841 0-2.728 7.662-1.447 12.5 1.929 7.282 2.766 13.234 3.401 24.178.346 5.952.829 11.802 1.073 13 .244 1.198-.263 2.885-1.128 3.75-.865.865-1.088 1.572-.496 1.572 1.31 0 .561 16.207-.872 18.885-.52.973-1.257 4.107-1.636 6.965-.379 2.857-1.08 5.437-1.557 5.732-.478.295-.868 1.516-.868 2.713 0 1.928-1.233 4.895-6.74 16.224-1.975 4.066-6.067 8.719-7.103 8.079-.874-.54 2.084-11.26 4.305-15.598.703-1.375 1.603-4.3 1.998-6.5s1.071-4.45 1.503-5c.431-.55 1.094-3.137 1.472-5.75.415-2.868 1.2-4.75 1.982-4.75.748 0 1.292-1.161 1.288-2.75-.01-3.747 1.186-21.605 1.86-27.75.3-2.75.492-5.45.425-6-.067-.55-.253-2.852-.414-5.116-.162-2.264-.595-4.605-.964-5.201-.368-.596-.71-2.794-.759-4.884-.104-4.44-4.27-13.668-7.853-17.397-2.938-3.058-12.55-7.298-14.212-6.27-.634.391-3.328.81-5.987.931-2.66.121-5.483.758-6.274 1.415-.792.657-1.842.946-2.333.642-.491-.303-1.487.558-2.213 1.914-.726 1.357-1.645 2.466-2.042 2.466-.397 0-1.032 1.233-1.41 2.74-.379 1.507-1.07 2.976-1.535 3.264-1.233.762-2.841 13.973-1.78 14.628.485.3.38 1.152-.235 1.893-.737.889-.797 1.965-.175 3.161.52.998.613 2.714.208 3.814s-.525 2.563-.267 3.25c.258.688-.018 1.25-.613 1.25-1.133 0-.716 4.107.953 9.398.594 1.885.547 3.34-.134 4.161-.63.758-.676 1.493-.118 1.838.512.317.955 2.349.985 4.516.03 2.167.756 5.298 1.614 6.957.98 1.895 1.19 3.246.564 3.633-.548.338-.996 1.065-.996 1.615s.41.747.91.437c.502-.31 1.21 1.351 1.575 3.691.364 2.34 1.53 6.162 2.589 8.493 1.059 2.332 1.926 5.054 1.926 6.05 0 .996.48 2.292 1.069 2.88.588.589 1.194 1.691 1.346 2.45.583 2.908 2.443 6.519 4.038 7.843.914.758 2.288 2.877 3.053 4.709.765 1.83 1.862 3.33 2.436 3.33 1.321 0 .734-8.952-.646-9.851-1.265-.824-2.502-7.965-2.668-15.399-.071-3.162-.421-5.75-.779-5.75-.358 0-.559-1.323-.447-2.938.112-1.615-.158-2.714-.6-2.441-.441.273-.863-2.343-.937-5.813a739.27 739.27 0 0 0-.25-9.309c-.063-1.65.255-4.125.708-5.5.453-1.375 1.042-4.716 1.308-7.425.267-2.708.942-5.777 1.5-6.82.557-1.042.75-3.838.428-6.213-.461-3.405-.246-4.448 1.018-4.933 3.015-1.157 3.682.405 2.893 6.771-.418 3.366-.903 7.47-1.078 9.12-.452 4.248-.405 39.49.057 42.5.21 1.375.42 3.288.467 4.25.046.963.553 1.75 1.127 1.75s.939-.562.81-1.25c-.219-1.176.834-16.047 1.682-23.75.212-1.925.876-5.975 1.475-9 .6-3.025 1.325-6.85 1.614-8.5.288-1.65.785-3.675 1.103-4.5.32-.825.654-4.65.745-8.5.131-5.58.494-7.062 1.789-7.312 3.804-.732 2.846 18.486-1.07 21.463-1.578 1.2-1.572 1.288.094 1.317 1.388.025 1.576.422.848 1.783-.516.963-1.073 3.55-1.238 5.75-.166 2.2-.857 4.9-1.536 6-.821 1.33-1.04 4.104-.655 8.289l.58 6.29 1.858-4.15c1.022-2.281 1.857-4.972 1.857-5.98 0-1.007.405-2.082.9-2.388.495-.305 1.466-2.92 2.158-5.809.692-2.889 1.839-6.646 2.55-8.348.71-1.703 1.553-5.978 1.873-9.5 1.484-16.31 1.484-16.69 0-17.921-1.63-1.353-1.083-2.984 1-2.984 3.489 0 4.063 9.926 1.615 27.915-1.38 10.138-2.095 13.085-3.175 13.085-.506 0-.92 1.7-.92 3.778 0 2.077-.622 4.665-1.382 5.75-.76 1.085-1.394 2.197-1.408 2.472-.144 2.76-1.604 8-2.228 8-.438 0-.586.8-.33 1.78.256.978-.461 2.847-1.594 4.152-2.237 2.58-2.633 3.541-1.059 2.568.55-.34 1-.141 1 .441 0 .583-.48 1.06-1.067 1.06-.61 0-.797.851-.436 1.989.347 1.094.033 2.844-.699 3.888-.798 1.14-1.185 3.721-.967 6.454.298 3.755.74 4.612 2.516 4.88 3.947.598 6.132-.339 8.653-3.71zm5-7.912c0-.922 5.425-12.154 6.086-12.6.416-.28 1.057-1.71 1.425-3.177.369-1.468 1.262-2.895 1.985-3.173.724-.277 1.618-1.88 1.987-3.56.37-1.682 1.087-3.314 1.594-3.627.508-.314.933-1.557.946-2.762.012-1.205.902-3.316 1.977-4.69 1.076-1.376 1.966-3.262 1.978-4.192.012-.93.48-1.973 1.039-2.319.559-.345.78-1.01.493-1.475-.288-.466-.037-2.122.558-3.68.595-1.56 1.29-4.185 1.544-5.835.254-1.65.778-4.8 1.165-7 .817-4.65.712-22.634-.176-30.22-.509-4.348-.365-5.126.863-4.656.81.311 1.416.86 1.346 1.221-.07.36.136 1.33.457 2.155 1.698 4.357 2.933 30.768 1.462 31.258-.424.14-.808 2.053-.852 4.25-.097 4.78-1.46 10.881-3.35 14.992a104.373 104.373 0 0 0-2.574 6.25c-.657 1.788-1.639 3.25-2.18 3.25-.543 0-.76.59-.483 1.312.277.721-.34 2.409-1.37 3.75-1.032 1.341-1.885 3.403-1.897 4.581-.012 1.179-.697 2.402-1.522 2.719-.825.316-1.5 1.42-1.5 2.454 0 1.033-.892 2.96-1.982 4.281-3.115 3.779-3.434 4.239-4.91 7.1-1.142 2.216-4.108 4.666-4.108 3.393zm7-26.771c0-.547 1.521-4.454 3.38-8.681 1.859-4.228 3.646-9.476 3.972-11.662.326-2.187.843-5.1 1.15-6.476.306-1.375.836-6.227 1.178-10.783.402-5.343 1.012-8.152 1.721-7.914 1.503.503 1.81 11.955.502 18.697-1.574 8.11-4.924 19-5.845 19-.44 0-1.081 1.747-1.423 3.882-.437 2.737-1.212 4.036-2.627 4.406-1.104.289-2.008.078-2.008-.47zm-55 37.27c0-.501-1.237-1.963-2.75-3.25-2.949-2.508-10.25-11.155-10.25-12.14 0-.328-1.107-1.79-2.46-3.251-2.15-2.32-3.616-4.785-8.027-13.498-.543-1.072-1.33-1.95-1.75-1.95-.42 0-.762-.68-.762-1.513 0-.833-.448-2.295-.995-3.25-.547-.955-1.93-4.324-3.072-7.487-1.142-3.162-2.495-5.75-3.005-5.75-.51 0-.94-.787-.953-1.75-.014-.962-.958-4.45-2.1-7.75-2.336-6.756-3.002-11.289-2.94-20 .023-3.3.022-6.9-.004-8-.128-5.49.012-9.52.518-14.838.462-4.855.22-6.265-1.433-8.368-1.094-1.39-1.744-2.926-1.444-3.411.3-.486.403-.883.23-.883-.174 0-1.716-.401-3.427-.892-4.927-1.413-9.235 1.162-10.006 5.981-.337 2.107-1.064 3.736-1.616 3.62-.552-.114-1.23.416-1.508 1.18-.31.851-.067 1.119.625.691.727-.449 1.13.214 1.13 1.861 0 1.408-.398 2.56-.884 2.56-1.159 0-2.155 3.857-1.156 4.475.425.262.557 4.178.294 8.701-.473 8.136.151 12.383 3.794 25.823 1.66 6.127 3.815 11.602 5.903 15 1.501 2.443 4.048 8.236 4.048 9.207 0 .495 2.42 3.913 5.377 7.597 2.957 3.683 5.687 7.709 6.067 8.946.38 1.238 1.411 2.25 2.29 2.25.88 0 1.296.304.924.676-.372.372.201 1.61 1.273 2.75 1.072 1.14 1.976 2.412 2.009 2.824.07.864 4.06 5.018 4.06 4.227 0-.287 1.049.164 2.33 1.004 3.475 2.276 4.014.643.784-2.375-1.55-1.447-3.577-4.102-4.508-5.9-.93-1.8-2.122-3.005-2.648-2.68-.527.326-.958-.03-.958-.79 0-.761-1.575-3.599-3.5-6.307-1.925-2.707-3.5-5.486-3.5-6.176 0-.689-.45-1.253-1-1.253s-1-.675-1-1.5-.644-1.5-1.432-1.5c-1.479 0-1.933-1.023-3.104-7-.377-1.925-1.38-4.287-2.23-5.25-.849-.962-1.194-1.75-.766-1.75.428 0 .217-.675-.467-1.5-.685-.825-.91-1.5-.5-1.5.41 0 .2-.655-.464-1.456-.665-.8-.918-1.926-.564-2.5.355-.574.217-1.044-.308-1.044-.524 0-.995-1.012-1.046-2.25-.052-1.237-.324-3.825-.604-5.75-2.188-14.995-2.3-17.205-.906-17.688.624-.216 1.825 2.172 2.75 5.468 1.968 7.015 2.051 9.379.392 11.167-1 1.077-1 1.205 0 .64.808-.455 1.25-.036 1.25 1.188 0 1.04.298 2.19.663 2.555 1.125 1.126 4.313 10.9 3.816 11.703-.257.417.204 1.016 1.026 1.331.822.315 1.495 1.69 1.495 3.055 0 1.365.562 2.842 1.25 3.282 1.454.93 6.75 11.377 6.75 13.316 0 .724.262 1.054.583.733.945-.945 3.837 2.49 7.432 8.829 1.847 3.257 4.062 6.597 4.921 7.423 2.164 2.08 6.064 7.732 6.064 8.789 0 .48 1.125 1.473 2.5 2.21 1.375.735 2.5 1.697 2.5 2.137 0 .44.675.54 1.5.224.825-.317 1.5-.078 1.5.531 0 .61.45 1.107 1 1.107s1-.41 1-.91zm54.25-.496c.963-.012 1.75-.375 1.75-.807 0-.432.863-.786 1.917-.786s2.073-.47 2.265-1.044c.191-.575 1.406-1.124 2.7-1.222 2.658-.2 23.118-19.564 23.118-21.88 0-.775.9-2.18 2-3.122 1.1-.942 2-2.292 2-3 0-.708.9-2.058 2-3 1.1-.942 2-2.617 2-3.722s.378-2.01.84-2.01c.462 0 1.414-1.912 2.114-4.25 1.94-6.472 3.23-8.748 4.965-8.765 1.288-.013 1.325-.178.203-.888-.758-.48-1.115-1.299-.793-1.82.707-1.143 1.77-6.639 2.1-10.856.133-1.693.568-3.606.966-4.25.447-.723.032-1.2-1.086-1.25-1.407-.061-1.476-.205-.309-.65 2.36-.898 2.722-2.045 2.393-7.587-.169-2.851-.375-8.675-.458-12.942-.083-4.267-.575-8.02-1.092-8.339-.559-.345-.465-1.152.231-1.992.842-1.014.856-1.41.048-1.41-.617 0-1.122-.885-1.122-1.966 0-1.08-1.397-3.556-3.104-5.5-2.63-2.995-3.746-3.535-7.313-3.535-5.919 0-9.656 3.93-9.905 10.416-.122 3.203.29 4.953 1.322 5.605.864.546 1.002.955.327.964-.86.011-.818.75.158 2.765 1.557 3.217 1.95 31.25.439 31.25-.508 0-.924 2.674-.924 5.941 0 3.268-.45 6.22-1 6.56-.55.34-1.01 1.603-1.022 2.808-.032 3.228-3.778 10.933-4.96 10.202-.56-.346-1.018.265-1.018 1.359 0 1.093-.562 2.582-1.25 3.309-.687.727-1.31 2.091-1.382 3.033-.268 3.46-5.384 10.788-7.533 10.788-1.613 0-1.833.298-.98 1.325.846 1.02-.102 2.586-4.128 6.82-2.875 3.021-5.889 6.475-6.698 7.675-.809 1.199-1.898 2.18-2.421 2.18-1.234 0-4.608 3.056-4.608 4.174 0 .476 1.238.544 2.75.152 1.513-.392 3.538-.722 4.5-.733zm3.782-5.843c.041-1.604 2.417-4.75 3.588-4.75.495 0 1.472-.917 2.173-2.039.7-1.12 1.72-1.762 2.265-1.425.546.337.868.177.717-.355-.15-.533.872-2.029 2.273-3.325 1.401-1.295 3.646-4.83 4.99-7.856 1.342-3.025 3.008-5.86 3.702-6.3.693-.44 1.26-1.622 1.26-2.627 0-1.005.675-2.388 1.5-3.073.825-.684 1.5-1.865 1.5-2.622 0-.758.36-1.378.8-1.378 1.12 0 2.945-5.575 3.764-11.5.38-2.75.927-5.404 1.214-5.897.288-.494.7-5.43.918-10.97.217-5.538.728-10.31 1.135-10.602 1.12-.803 1.35-17.714.294-21.54-.742-2.689-.62-3.47.618-3.946.85-.325 1.743-.392 1.987-.149 1.152 1.152 1.459 18.673.35 20.008-.877 1.057-.886 1.598-.036 2.123 1.759 1.087-.194 29.663-2.071 30.307-.535.183-.973 2.77-.973 5.75 0 3.293-.433 5.416-1.107 5.416-.608 0-.864.632-.568 1.403.296.772-.091 2.234-.861 3.25s-1.414 2.683-1.432 3.704c-.02 1.166-.548 1.66-1.418 1.325-.973-.373-1.237.043-.884 1.393.286 1.094 0 1.925-.672 1.925-.647 0-.944.375-.66.833 1.265 2.049-11.395 16.482-18.784 21.413-4.58 3.057-5.628 3.34-5.582 1.504zm38.676-63c.244-5.637.474-16.623.512-24.413.052-10.915.355-14.053 1.32-13.683 1.67.64 2.435 4.972 1.112 6.295-.735.735-.523 1.051.707 1.051.968 0 1.482.449 1.144.996-1.29 2.087-1.416 5.441-.234 6.207.943.61.88 1.028-.269 1.782-.825.542-1.026.992-.448 1 1.109.016 1.058 5.745-.09 10.015-.369 1.375-.72 3.288-.78 4.25-.06.963-.554 1.75-1.096 1.75s-.446.54.214 1.2c1.464 1.464 1.58 5.448.184 6.31-.56.346-.742 1.073-.406 1.616.79 1.277-.357 5.874-1.465 5.874-.467 0-.65-4.612-.405-10.25zm-130.773 51.5c-1.328-1.512-2.91-3.2-3.514-3.75-1.862-1.692-10.42-14.562-10.42-15.67 0-.574-.686-.78-1.523-.46-1.931.742-5.477-2.735-5.477-5.37 0-1.1-.42-2-.933-2-.513 0-1.25-1.012-1.638-2.25-.389-1.237-2.03-4.95-3.648-8.25-1.619-3.3-3.608-8.475-4.42-11.5-1.858-6.914-2.832-21.591-1.488-22.422 1.679-1.037 2.6 1.617 3.27 9.422.355 4.125 1.308 10.297 2.12 13.715.81 3.418 1.297 6.391 1.081 6.607-.216.216.293.962 1.131 1.658.839.696 1.525 2.308 1.525 3.584 0 1.275.43 2.584.956 2.91.526.324.69 1.363.365 2.308-.477 1.388-.3 1.345.92-.222 1.526-1.96 1.014-6.26-1.061-8.907-.497-.634-1.188-3.328-1.535-5.986-.346-2.658-.968-5.358-1.381-6-.88-1.366-.936-1.873-1.748-15.752-.347-5.92-.14-14.292.472-19 2.235-17.225 2.235-17.236.04-19.783-1.558-1.808-2.355-2.105-3.376-1.258-.735.61-1.6.846-1.92.525-.82-.82-3.732 5.072-3.732 7.552 0 1.127-.338 2.05-.75 2.05-1.026 0-1.25 4.128-1.114 20.5.16 19.187.268 21.5 1 21.5.35 0 .883 1.237 1.185 2.75.302 1.512 1.03 4.974 1.62 7.693.589 2.719.79 5.824.45 6.901-.463 1.456-.244 1.812.856 1.39.995-.381 2.24.795 3.81 3.6 1.282 2.29 2.923 4.764 3.646 5.496.723.732 1.057 1.748.741 2.259-.315.51-.282 1.848.075 2.972.518 1.632.934 1.807 2.065.868 1.145-.95 1.416-.77 1.416.948 0 1.167.44 2.122.98 2.122s1.27 1.152 1.624 2.56c.407 1.624 1.146 2.366 2.019 2.031.757-.29 1.377-.086 1.377.453 0 1.83 14.627 16.92 16.424 16.944.508.007-.162-1.225-1.49-2.738zm123.982-.421c2.897-.672 11.192-8.815 10.41-10.218-.353-.633-.052-.585.699.111 1.401 1.299 2.494.04 5.183-5.972.676-1.512 1.706-2.75 2.288-2.75 1.648 0 5.409-5.03 8.037-10.75.84-1.83 2.252-3.256 3.23-3.265 1.365-.012 1.444-.2.37-.881-1.146-.726-1.153-1.492-.043-4.735.728-2.128 1.37-4.094 1.426-4.369.055-.275.464-2.525.907-5 .444-2.475 1.048-4.904 1.343-5.399 1.842-3.092 2.16-32.474.445-41.1-1.669-8.391-3.915-10.849-8.467-9.262-1.597.557-3.141 1.63-3.431 2.387-.29.756-1.181 1.374-1.98 1.374-.799 0-1.244.338-.989.75.255.413.157 4.688-.217 9.5-.375 4.813-.409 8.75-.076 8.75.947 0 .81 32.23-.148 34.75-.47 1.238-1.54 2.25-2.38 2.25-1.72 0-2.045 1.56-.52 2.503.552.34.774 1.605.493 2.809a75.712 75.712 0 0 0-.833 4.188c-.295 1.825-2.532 7.297-4.82 11.79-.502.986-.645 2.223-.319 2.75.326.529.189.96-.306.96-1.174 0-3.22 4.53-3.22 7.13 0 1.177-.523 1.862-1.24 1.623-1.393-.464-3.76 1.535-3.76 3.176 0 .59-.377 1.071-.839 1.071-.461 0-1.354 1.013-1.984 2.25-.63 1.238-1.925 3.375-2.877 4.75-1.701 2.457-1.697 2.471.235.829 1.081-.92 2.603-1.82 3.383-2zm12.684-19.579c.352-1.512 1.26-3.25 2.02-3.86.758-.61 1.38-1.61 1.38-2.22 0-.61.868-2.655 1.929-4.544 1.06-1.889 1.66-3.702 1.333-4.03-.328-.328-.17-.596.352-.596.951 0 4.021-8.805 3.589-10.29-.127-.435.204-1.603.735-2.595 2.073-3.873 3.145-25.918 1.935-39.805-.483-5.545-.318-7.309.718-7.707 1.944-.745 2.296.292 2.796 8.215.246 3.909.709 7.529 1.027 8.044.319.516.561 1.995.539 3.288-.023 1.293.076 3.25.219 4.35.143 1.1-.128 4.925-.602 8.5s-.763 7.727-.643 9.227-.49 3.737-1.355 4.973c-.865 1.235-1.573 3.067-1.573 4.072s-.625 3.043-1.39 4.528c-.764 1.485-1.624 4.46-1.911 6.611-.287 2.151-1.237 4.311-2.11 4.8-.874.489-1.589 1.706-1.589 2.704 0 .999-.9 2.96-2 4.358-1.1 1.399-2 3.034-2 3.635 0 .6-.908 1.092-2.019 1.092-1.69 0-1.915-.447-1.38-2.75zm-152.566-6.072c-.569-.19-1.034-.776-1.034-1.303 0-.527-.9-1.924-2-3.105l-2-2.147v2.72c0 1.496.675 2.979 1.5 3.296.825.316 1.514 1.54 1.531 2.718.032 2.123.047 2.124 1.535.155.914-1.21 1.097-2.124.468-2.334zm-35.034-48.038c8.777-4.112 11.78-24.813 6.077-41.89-4.16-12.456-5.289-15.278-7.827-19.565-1.238-2.09-2.25-4.21-2.25-4.712 0-.502-1.316-3.514-2.923-6.693-3.555-7.03-5.458-16.881-4.544-23.527 1.15-8.357 4.624-13.232 11.829-16.597 4.035-1.885 5.821-2.159 10.5-1.608 3.1.365 6.634 1.291 7.852 2.058 3.093 1.947 3.764 1.76 3.93-1.1.078-1.37-.193-2.285-.604-2.03-.412.254-1.23-.596-1.82-1.89-1.267-2.782-9.018-5.03-14.952-4.336-4.777.56-13.912 4.887-17.606 8.34-5.31 4.966-6.879 10.52-6.497 23.004l.339 11.095 7.898 15.905c4.343 8.749 8.75 17.128 9.791 18.622 4.814 6.904 6.352 20.84 3.398 30.789-1.784 6.005-3.192 8.086-5.002 7.391-.943-.362-.678-1.682 1.042-5.19 5.305-10.825 1.25-27.832-11.79-49.455-5.395-8.946-7.817-18.48-7.92-31.177-.102-12.578.398-14.885 4.451-20.534 3.564-4.968 8.924-8.865 15.128-11 4.92-1.692 15.193-2.344 16.014-1.016 1.039 1.68 3.486 1.065 3.486-.878 0-3.546-4.522-7.132-9.203-7.299-8.951-.318-12.035.248-18.552 3.404-15.543 7.527-21.525 19.76-19.282 39.43 1.507 13.212 4.134 20.931 11.17 32.82 8.35 14.106 10.578 19.82 13.546 34.742.583 2.93-1.593 11.757-2.898 11.757-.43 0-.781-2.266-.781-5.035 0-2.986-.669-6.055-1.643-7.542-1.43-2.181-2.26-2.469-6.406-2.217-2.62.16-4.564.611-4.321 1.005.243.394-.536 1.695-1.732 2.891-5.486 5.486-2.398 15.74 6.495 21.567 5.335 3.496 8.919 3.604 15.607.471zm7.806-.666c-.308-.308-.867.247-1.242 1.233-.543 1.425-.428 1.54.56.56.683-.678.99-1.485.682-1.793zm232.73.328c3.766-1.716 7.822-10.077 7.004-14.438-.347-1.85-1.06-3.364-1.586-3.364-.525 0-.955-.621-.955-1.381 0-1.693-7.477-3.682-11.116-2.958-2.236.446-2.692.12-3.144-2.242-.851-4.454.217-10.436 2.924-16.377 1.39-3.048 3.436-7.567 4.548-10.042a292.96 292.96 0 0 1 4.406-9.25c1.31-2.613 2.382-5.441 2.382-6.285 0-.845.68-2.573 1.512-3.842.831-1.269 1.619-4.066 1.75-6.215.131-2.15.6-4.174 1.042-4.5 1.465-1.08 3.625-12.307 3.66-19.033.049-8.926-4.888-20.17-11.464-26.113-6.614-5.977-22.515-9.122-27.125-5.364-.07.056-.459 1.182-.865 2.502-.705 2.288-.572 2.372 2.862 1.815 2.273-.37 3.883-.148 4.365.6.42.652 2.563 1.233 4.763 1.292 5.443.146 13.638 5.594 16.389 10.893 6.212 11.97 6.623 18.662 2.15 35-.603 2.2-1.277 4.675-1.497 5.5-1.264 4.728-4.877 14.11-6.932 18-1.307 2.475-3.599 8.1-5.092 12.5-1.494 4.4-3.346 9.418-4.116 11.151-3.119 7.014-.889 15.59 6.007 23.1 2.683 2.921 2.782 3.25.984 3.25-4.748 0-11.393-11.69-11.393-20.044 0-4.68 2.77-14.592 6.085-21.777 1.603-3.475 2.915-6.59 2.915-6.921 0-1.063 4.802-12.565 7.901-18.928 3.405-6.988 6.55-20.857 5.814-25.64-1.895-12.321-5.55-17.797-14.608-21.885-7.111-3.208-12.034-3.404-17.606-.7-2.461 1.195-5.283 6.445-4.1 7.629.185.184 2.804-.053 5.822-.526 6.553-1.028 8.59-.388 13.64 4.284 10.006 9.258 7.766 23.178-8.97 55.744-.49.955-.907 2.53-.924 3.5-.017.97-.693 2.637-1.5 3.704-.808 1.068-1.469 2.905-1.469 4.084 0 1.178-.313 2.455-.695 2.838-1.267 1.266-1.484 15.11-.364 23.162.942 6.774 1.563 8.4 4.282 11.205 5.597 5.775 16.471 8.734 22.314 6.072zm-149.943-19.651c-.888-1.436 3.738-4.702 9.182-6.483 4.416-1.444 6.513-1.541 14.268-.663 5 .567 9.459.803 9.908.525 1.333-.823-.364-21.055-2.464-29.378-.742-2.942-1.135-5.907-.873-6.59.64-1.67-2.22-3.927-4.073-3.216-.816.313-2.128-.075-2.915-.863-1.133-1.132-1.535-1.163-1.926-.146-.542 1.414-18.262 1.479-27.994.103-2.864-.405-6.331-.84-7.706-.968-6.056-.56-16.602-1.432-18.43-2.07-1.497-.522-.562 1.87-2.348 10.256-1.154 5.413-2.77 12.472-3.591 15.685-2.574 10.065-2.476 12.684.557 14.949 2.389 1.783 3.112 1.863 6.988.772 2.378-.67 7.366-1.18 11.085-1.136 7.597.09 11.89 1.881 16.602 6.926 2.711 2.902 4.96 4.287 3.73 2.297zm70.406-2.15c0-.55-.45-1-1-1s-1 .45-1 1 .45 1 1 1 1-.45 1-1zm-27.484-2.25c.49-1.992-1.335-13.873-4.528-29.476-1.316-6.43-3.687-12.275-4.981-12.275-1.152 0-.57 8.02.945 13 .585 1.925 1.336 8.9 1.667 15.5.438 8.724 1.024 12.478 2.147 13.75 2.119 2.401 4.087 2.194 4.75-.5zm31.363-1c.764-2.406.646-5.201-.456-10.75-.819-4.126-1.587-8.476-1.706-9.668-.119-1.192-.554-2.504-.967-2.916-.412-.413-.756-1.688-.764-2.833-.025-3.56-3.666-13.98-5.228-14.965-2.254-1.422-5.121.032-4.22 2.14 1 2.34 3.423 11.138 3.923 14.241.221 1.375 1.027 7.004 1.79 12.51 1.275 9.198 3.626 15.49 5.787 15.49.444 0 1.272-1.462 1.84-3.25zm28.532-4.5c.518-1.664-.184-5.065-3.869-18.75-.889-3.3-1.868-7.516-2.176-9.368-.308-1.851-1.096-5.226-1.751-7.5-.993-3.445-1.663-4.187-4.025-4.46-4.486-.52-5.159 1.085-2.672 6.376 1.208 2.57 1.95 4.918 1.648 5.22-.302.3-.1 1.087.447 1.746 1.018 1.227 2.326 6.737 3.913 16.485 1.405 8.626 3.113 11.891 6.257 11.962.926.021 1.928-.75 2.228-1.712zm-7.41-.81c0-.242-.45-.44-1-.44s-1 .476-1 1.058c0 .583.45.781 1 .441s1-.816 1-1.059zm-43.605-1.457c1.092-1.067-1.694-20.386-4.504-31.234-.824-3.178-1.385-3.747-3.682-3.734-4.447.025-5.704 1.336-4.45 4.642.592 1.563 1.039 3.554.992 4.423-.047.87.65 4.695 1.55 8.5.898 3.806 2.166 9.763 2.817 13.24 1.145 6.106 1.272 6.298 3.783 5.679 1.43-.353 3.002-1.035 3.494-1.516zm12.762.266c-.502-.962-1.24-5.332-1.64-9.711-.4-4.379-1.186-9.104-1.745-10.5-.56-1.396-1.108-3.439-1.219-4.539-.11-1.1-.946-3.718-1.855-5.818-1.419-3.276-2.048-3.774-4.426-3.5-3.011.346-2.99.223-1.456 8.818 2.367 13.251 3.533 20.67 3.605 22.955.08 2.51 2.351 3.727 7.364 3.946 1.868.081 2.118-.22 1.372-1.65zm-117.432.126c2.375-.636 2.993-2.707 3.543-11.876.165-2.75.552-5.45.86-6 .308-.55.649-3.025.758-5.5.11-2.475.554-7.086.988-10.247.668-4.86.519-5.992-.968-7.337-.967-.875-2.579-1.433-3.582-1.24-1.849.356-2.165 1.425-2.912 9.824-.942 10.601-3.518 26.422-4.493 27.598-.746.898-.732 1.883.046 3.338 1.163 2.173 2.127 2.414 5.76 1.44zm9.28-2.292c.003-1.421.436-4.159.963-6.084.527-1.925 1.177-5.075 1.446-7 .746-5.345 3.298-18.52 4.04-20.855.525-1.655.14-2.209-1.895-2.72-4.633-1.162-5.387-.147-5.205 7.008.092 3.612-.175 6.567-.593 6.567-.419 0-.683.338-.587.75.096.413-.146 3.9-.54 7.75-1.69 16.57-1.659 17.167.909 17.167.898 0 1.459-.99 1.462-2.583zm129.376.364c.342-.89.174-1.291-.393-.94-.545.336-.989-.45-.989-1.752 0-1.299-1.116-6.613-2.48-11.809-1.365-5.196-2.49-10.438-2.5-11.65-.032-3.66-2.219-7.309-4.764-7.948-3.542-.888-4.72.851-2.927 4.32 1.624 3.14 4.786 15.967 5.143 20.859.12 1.665.74 3.998 1.374 5.184.635 1.186 1.154 2.861 1.154 3.723 0 2.117 5.57 2.13 6.382.013zm6.027-2.364c-.34-1.971-1.048-5.384-1.573-7.584-.525-2.2-1.613-7.233-2.419-11.185-.806-3.952-2.112-8.735-2.903-10.63-1.459-3.49-3.985-5.349-5.012-3.687-.824 1.333.475 5.738 2.086 7.075.765.634 1.173 1.505.908 1.934-.265.43.226 2.74 1.09 5.137.865 2.396 1.777 5.481 2.027 6.856.25 1.375.928 5.194 1.507 8.486 1.234 7.011 1.314 7.18 3.35 7.18 1.237 0 1.43-.74.94-3.582zm17.767-1.998c-.501-.322-2.681-7.526-4.845-16.01-3.896-15.277-5.787-19.02-8.326-16.48-.734.734-.295 2.76 1.46 6.727 1.38 3.123 2.315 5.677 2.077 5.677-.239 0 .375 2.363 1.363 5.25.988 2.888 2.116 7.05 2.506 9.25.39 2.2 1.236 5.497 1.879 7.327l1.168 3.327s3.22-4.746 2.718-5.068zm-186.175 2.914c0-.55-.45-1-1-1s-1 .45-1 1 .45 1 1 1 1-.45 1-1zm193-.333c0-2.308-2.14-13.078-3.014-15.167-1.003-2.4-1.81-6.42-2.51-12.5-.908-7.888-2.337-11-5.054-11-1.332 0-2.47.563-2.529 1.25-.251 2.968.254 7.4 1.055 9.25 2.392 5.528 4.078 10.807 3.602 11.283-.293.293-.092 1.064.446 1.713.539.65 1.516 4.628 2.17 8.842 1.09 7.006 1.39 7.662 3.513 7.662 1.276 0 2.32-.6 2.32-1.333zm-176.095-8.417c.688-3.712 1.458-8.55 1.712-10.75.253-2.2 1.117-7.532 1.919-11.849 1.573-8.462 1.379-9.65-1.576-9.65-1.802 0-2.694 1.838-2.912 6-.154 2.949-2.943 26.55-3.442 29.131-.28 1.448-.231 2.91.109 3.25 1.798 1.799 3.063-.053 4.19-6.132zm-9.01 4.807c1.824-.977 2.327-3.232 5.663-25.425 1.48-9.844 1.487-11.015.074-12.428-1.319-1.319-1.63-1.339-2.015-.131-.545 1.708-1.518 6.361-2.14 10.232-.248 1.543-1.132 5.433-1.964 8.645-.833 3.211-1.514 7.18-1.514 8.819 0 1.639-.655 4.836-1.455 7.106-1.293 3.664-1.286 4.125.066 4.125.836 0 2.314-.424 3.284-.943zm-8.895-3.85c0-.986 1.169-5.824 2.598-10.75 2.898-9.99 3.799-14.424 5.882-28.957 1.768-12.328 1.076-20.74-2-24.317-1.995-2.32-2.93-2.572-9.739-2.625-8.339-.064-10.012.814-14.247 7.475-3.206 5.043-3.982 10.865-2.06 15.462.86 2.062 1.566 4.793 1.566 6.068 0 1.276.393 2.562.874 2.86 1.27.784 5.993 10.974 8.844 19.077 1.354 3.85 2.82 7.45 3.256 8 .437.55 1.124 2.575 1.528 4.5.403 1.925.931 3.838 1.174 4.25.834 1.417 2.324.749 2.324-1.043zm201.688-11.763c1.46-4.262 2.986-7.705 7.443-16.796 1.577-3.22 2.868-6.398 2.868-7.063 0-.666 1.125-3.542 2.5-6.393 2.933-6.078 3.181-11.149.762-15.537-5.033-9.129-11.791-12.018-19.177-8.198-2.688 1.39-3.092 2.137-3.142 5.819-.032 2.323-.385 6.024-.784 8.224-.635 3.492.432 16.467 2.385 29 .342 2.2.809 5.35 1.036 7 .602 4.361 2.534 8.63 3.726 8.232.568-.19 1.64-2.119 2.383-4.288zm-84.006-25.426c-.968-7.007-2.846-10.255-4.8-8.3-.777.777-.906 3.542-.41 8.826.597 6.375 1.047 7.78 2.624 8.192 1.047.274 1.948 1.008 2.003 1.63.055.624.41.017.791-1.348.38-1.365.286-5.415-.208-9zm-7.866 7.704c.678-.818.812-3.796.372-8.25l-.689-6.972h-5c-4.395 0-4.977.242-4.813 2 .709 7.62.636 9.893-.328 10.214-1.123.374-2.836-8.122-2.562-12.714.105-1.764-.105-2.094-.712-1.121-.676 1.082-3.414 1.297-12.723 1l-11.861-.379.26 3c.144 1.65.3 5.342.345 8.203l.083 5.203 5.656.358c15.296.968 30.938.703 31.972-.542zm-40.026-7.972-.29-8.25-3.5-.297-3.5-.298.339 7.298c.375 8.058 1.23 9.797 4.823 9.797 2.386 0 2.414-.111 2.128-8.25zm58.453 2.75c-.513-9.983-1.052-11.5-4.089-11.5-4.008 0-4.9 1.465-4.448 7.299.742 9.55.905 9.856 5.077 9.51l3.716-.309-.256-5zm9.528 4.663c1.606-1.02-.164-15.158-2.047-16.354-1.926-1.224-5.711-.938-5.854.441-.346 3.358.406 11.351 1.142 12.122.457.48.607 1.456.333 2.17-.299.779.434 1.477 1.828 1.742 1.28.244 2.551.498 2.826.565.275.066 1.073-.243 1.772-.686zm-86.04-1.413c.746-14.484.584-15.28-3.231-15.916-1.7-.284-2.028.268-2.184 3.666-.1 2.2-.416 5.033-.701 6.295-.712 3.156.245 5.205 2.432 5.205 1.01 0 2.113.45 2.453 1 .82 1.329 1.153 1.261 1.23-.25zm8.62-1.5c.266-.962.371-4.152.233-7.088-.256-5.422-1.402-7.116-4.834-7.146-1.487-.013-1.75.95-1.75 6.402 0 3.53.273 7.13.606 8 .83 2.161 5.133 2.035 5.744-.168zm85.863-5.25c-.374-8.514-.603-9-4.244-9h-3.092l.69 7.25c.38 3.988.9 7.614 1.155 8.058.256.444 1.66.669 3.121.5 2.604-.302 2.65-.433 2.37-6.808zm9.43 6.235c1.158-.743.305-15.619-.969-16.892-.32-.32-2.15-.289-4.065.07-3.273.615-3.428.818-2.57 3.37.503 1.495 1.067 4.933 1.254 7.64.26 3.744.804 5.105 2.273 5.68 2.529.99 2.73.997 4.077.132zm-113.063-2.235c.23 0 .419-2.777.419-6.171 0-7.358-1.673-9.829-6.655-9.829h-3.345v7.032c0 5.824.3 7.124 1.75 7.572.962.297 2.425.932 3.25 1.41.825.48 2.099.672 2.831.429.733-.244 1.52-.443 1.75-.443zm119.584-7.026c-.358-7.99-1.057-9.613-3.699-8.6-1.44.553-1.57 1.63-.954 7.884.821 8.324 1.075 8.973 3.33 8.522 1.403-.28 1.606-1.48 1.323-7.806zm8.235 6.064c2.426-.922 2.51-1.224 1.992-7.25-.75-8.724-.879-8.964-4.636-8.602l-3.257.314.107 5.612c.126 6.568 1.057 10.888 2.347 10.888.504 0 2.055-.433 3.447-.962zm-139.4-6.473c0-2.989-.44-6.589-.976-8-1.322-3.476-3.994-3.357-4.129.185-.057 1.513-.225 4.55-.373 6.75-.3 4.483.817 6.5 3.6 6.5 1.606 0 1.878-.785 1.878-5.435zm149 4.378c0-.581-.425-2.944-.943-5.25a624.752 624.752 0 0 1-1.519-6.943c-.317-1.512-1.243-2.75-2.058-2.75-1.145 0-1.48 1.376-1.48 6.066 0 3.336.465 6.936 1.035 8 1.082 2.023 4.964 2.709 4.964.877zm-157.54-1.877c.993-1.608 1.441-11.607.582-12.997-1.667-2.698-2.863.135-2.927 6.934-.059 6.345.799 8.563 2.344 6.063zm162.713-8.125-.326-7.96-2.712.206-2.711.206.745 6.97c.93 8.712 1.275 9.595 3.52 9.01 1.593-.413 1.771-1.428 1.484-8.432zm-167.006.81c.31-6.765-.392-9.119-2.521-8.45-1.324.416-1.843 11.464-.644 13.703 1.927 3.602 2.828 2.107 3.165-5.254zm54.333-2.75c-.34-.55-1.154-.994-1.81-.985-.715.009-.592.402.31.984 1.92 1.242 2.267 1.242 1.5 0zm28.196-3.318c.365-.592.78-5.6.92-11.13.142-5.529.44-12.865.666-16.303.366-5.592.212-6.25-1.468-6.25-1.033 0-2.06.563-2.285 1.25-.224.688-.773 8.717-1.219 17.843-.761 15.588-.704 16.564.955 16.129.971-.255 2.065-.947 2.43-1.539zm-5.941-16.203c.153-17.238-.098-18.902-2.644-17.54-2.002 1.072-4.12 13.795-4.096 24.612.016 7.259.494 8.808 2.984 9.664 3.126 1.075 3.618-1.115 3.756-16.736zm16.281 15.955c.295-.159.663-5.834.817-12.612.154-6.777.363-14.348.463-16.823.178-4.374.095-4.508-3.01-4.809-2.927-.283-3.237-.033-3.708 3-1.686 10.848-2.35 29.783-1.115 31.782.533.863 4.566.532 6.553-.538zm-24.322-14.435c.118-7.425.23-14.589.247-15.92.018-1.33-.127-2.578-.322-2.774-.195-.195-3.231-.623-6.747-.95l-6.393-.596-.123 7.87c-.21 13.326-.694 19.37-1.553 19.37-1.238 0-1.467-24.149-.248-26.122.688-1.113-4.965-3.88-6.243-3.055-.577.373-.881 1.577-.676 2.677.365 1.952.435 3.45.306 6.5-.034.825.03 2.175.145 3 .114.825.108 4.65-.013 8.5-.347 10.97-1.886 4.77-2.268-9.131-.31-11.294-.432-11.884-2.493-12.177-2.142-.305-2.165-.144-2 13.845.091 7.785-.124 14.334-.479 14.553-1.403.867-1.921-3.496-1.921-16.172v-13.245l-3.116-1.087c-1.714-.597-3.52-1.086-4.016-1.086-.495 0-.83 4.388-.746 9.75.188 11.933-1.003 26.25-2.185 26.25-.837 0-1.373-3.426-.86-5.5.136-.55.203-3.38.15-6.29-.069-3.68.243-5.078 1.025-4.595.618.382.856.261.528-.269-.327-.53-.815-5.165-1.084-10.302-.325-6.19-.935-9.622-1.81-10.176-1.84-1.167-5.82-1.076-5.82.132 0 .55.338 1.002.75 1.004.791.004 1.128 5.98 1.42 25.206.218 14.443-1.292 13.403 20.743 14.285 6.827.273 12.528.613 12.67.755.142.141 3.106.03 6.588-.246l6.33-.504.214-13.5zm-7.063 4c-.91-3.14-1.065-5.78-.835-14.25.164-6.015.4-6.75 2.177-6.75 1.738 0 1.922.482 1.43 3.75-.31 2.063-.898 7.35-1.306 11.75-.539 5.81-.94 7.316-1.466 5.5zm39.913 9.693c.538-1.402.746-8.625.597-20.693-.05-4.125 0-8.625.123-10 .164-1.905-.26-2.5-1.785-2.5-1.636 0-2.131.908-2.724 5-1.577 10.887-2.426 27.024-1.488 28.25 1.257 1.642 4.64 1.605 5.277-.057zm9.246-12.693c.17-7.425.396-15.3.5-17.5.175-3.69 0-3.979-2.249-3.728-1.34.15-2.627.46-2.858.691-.231.232-.6 5.734-.821 12.229-.221 6.494-.598 13.916-.837 16.493-.456 4.905.228 5.858 3.954 5.505 1.875-.178 2.02-1.035 2.311-13.69zm6.806 1.414c.064-6.002.379-13.726.7-17.164.525-5.609.397-6.25-1.25-6.25-1.53 0-2.03 1.328-3.001 7.968-1.61 11.005-1.537 25.117.134 26.176 2.74 1.736 3.303-.029 3.417-10.73zm7.97-4.414c.268-7.975.583-15.625.7-17 .16-1.866-.321-2.576-1.894-2.8-1.817-.26-2.2.359-2.789 4.5-.375 2.64-.953 10.574-1.284 17.63l-.601 12.83 2.69-.33 2.689-.33.488-14.5zm6.79 5.25c.668-8.969 1.793-17.248 3.122-23 .686-2.967.545-3.248-1.624-3.234-3.192.02-4.328 1.002-4.614 3.984-.132 1.375-.45 4.075-.706 6-.931 7.005-1.627 23.074-1.04 24.025.332.536 1.415.975 2.406.975 1.55 0 1.894-1.228 2.455-8.75zm-111.957-1.833c-.075-8.345-1.897-29.277-2.602-29.891-.174-.153-1.33-.589-2.567-.969-2.741-.842-2.769-.395-.725 11.943.82 4.95 1.733 12.825 2.03 17.5.623 9.856.99 11.318 2.695 10.75.883-.294 1.226-3.03 1.17-9.333zm120.648 8.597c.312-.008.604-3.051.648-6.764.083-7.017.442-9.702 2.64-19.75.924-4.223 1.732-5.906 2.729-5.683 1.081.241 1.029-.078-.223-1.353-3.772-3.843-8.988 1.977-9.112 10.165-.036 2.404-.472 4.371-.967 4.371s-.619.456-.274 1.013c.344.558-.014 3.37-.796 6.25-2.666 9.818-1.847 13.42 2.787 12.264 1.1-.275 2.256-.506 2.568-.513zm-126.476-4.264c-.613-6.065-1.707-14.827-2.216-17.75-.24-1.375-.708-5.65-1.042-9.5-.698-8.06-1.675-10.5-4.202-10.5-2.368 0-3.333 1.05-2.214 2.408.495.6 1.02 3.117 1.168 5.592.147 2.475.638 4.997 1.092 5.604.453.607.832 2.182.841 3.5.016 2.142.787 21.38.926 23.077.047.583 1.188.944 5.316 1.683.418.075.567-1.776.33-4.114zm135.617 3.574c-.999-.4-1.025-.84-.116-1.935.647-.78 1.295-3.773 1.44-6.653.146-2.88.368-5.236.494-5.236s.355-.9.51-2c1.056-7.495 3.63-18.055 4.47-18.335 1.597-.533.07-2.165-2.027-2.165-2.492 0-5.98 3.804-5.98 6.522 0 1.18-.313 2.458-.695 2.84-.383.383-.802 1.246-.931 1.917-1.576 8.176-2.335 13.24-2.76 18.41-.503 6.107-.474 6.194 2.188 6.6 3.975.606 4.853.615 3.407.035zm-144.222-15.457c-2.033-19.11-3.568-25.75-6.6-28.559l-2.666-2.471.679 5.332c.373 2.932 1.552 10.056 2.62 15.831 1.07 5.775 2.014 12.975 2.099 16 .183 6.504 1.464 8.846 3.644 6.667 1.221-1.222 1.254-3.119.224-12.8zm-6.929-.683c-.67-5.876-1.693-12.484-2.275-14.684-.581-2.2-1.045-4.675-1.03-5.5.016-.825-.408-3.343-.942-5.595-.84-3.547-1.588-4.38-5.587-6.22-2.54-1.168-4.786-1.956-4.99-1.751-.205.205.501 2.104 1.57 4.22 1.068 2.115 2.937 6.996 4.153 10.846 1.217 3.85 2.587 7.722 3.044 8.603.804 1.548 1.556 6.023 2.42 14.397.226 2.2.72 5.224 1.097 6.72.616 2.448.839 2.567 2.221 1.184 1.347-1.346 1.386-2.858.32-12.22zm160.43 12.566c.233-.687.67-3.275.97-5.75 1.036-8.533 1.476-10.735 3.124-15.609.91-2.69 2.726-7.013 4.036-9.608 2.796-5.534 2.836-5.783.93-5.783-2.297 0-6.547 2.212-6.554 3.41 0 .6-.67 2.365-1.483 3.923-1.416 2.714-3.34 8.931-4.075 13.167-.191 1.1-.78 4.7-1.31 8s-1.273 6.788-1.651 7.75c-.567 1.441-.134 1.75 2.45 1.75 1.726 0 3.33-.562 3.563-1.25zm6.596-2.81c.399-.792 1.77-4.702 3.048-8.69 1.277-3.987 2.67-7.25 3.095-7.25.426 0 .773-.741.773-1.647 0-2.404 4.134-13.353 5.04-13.353.426 0 .551-.849.28-1.887-.272-1.038 0-2.19.593-2.559 1.644-1.015 1.307-2.263-.756-2.803-1.561-.408-4.238 2.02-4.685 4.25-.285 1.418-2.696 8.55-5.834 17.252-4.102 11.38-5.624 19.243-3.592 18.565.722-.24 1.638-1.085 2.037-1.877zm-92.083-32.062c0-.797.37-.815 1.276-.064 1.626 1.35 31.76 1.34 33.43-.01.663-.537 1.626-.716 2.14-.399.96.594 9.782-.372 28.154-3.083 5.775-.853 11.625-1.649 13-1.77 1.375-.12 3.766-.744 5.315-1.386 1.548-.641 3.348-1.173 4-1.18 1.61-.021 8.483-2.45 9.333-3.3.376-.377 1.467-.686 2.424-.686 2.695 0 10.066-4.15 13.792-7.764 1.85-1.795 3.893-3.595 4.539-4 2.113-1.324 4.631-9.302 3.565-11.295-.533-.995-.968-3.159-.968-4.808 0-2.12-.586-3.184-2-3.633-1.1-.349-2-1.054-2-1.567 0-.513-1.185-.933-2.633-.933-1.481 0-3.482-.979-4.573-2.237-1.067-1.23-2.47-2.243-3.117-2.25-.648-.007-3.653-1.18-6.678-2.608-6.711-3.167-11.94-4.905-14.761-4.905-1.166 0-2.399-.45-2.738-1-.34-.55-1.69-1-3-1s-2.66-.45-3-1c-.34-.55-1.492-1-2.56-1-1.067 0-1.94-.45-1.94-1s-1.8-1-4-1-4-.45-4-1-1.321-1-2.935-1c-1.615 0-4.053-.425-5.42-.944-1.365-.52-4.882-1.157-7.814-1.418-2.932-.26-6.006-.713-6.831-1.008-2.634-.939-15.283-1.92-21.896-1.698-4.412.148-6.656-.196-7.235-1.109-.528-.833-.844-.9-.854-.18-.011.792-4.086 1.188-13.265 1.288-12.38.135-23.25.615-23.25 1.027 0 .1-1.3.35-2.89.558-1.59.208-3.615.704-4.5 1.102-.886.4-2.51.826-3.61.948s-5.118.922-8.928 1.778c-3.81.855-7.282 1.336-7.716 1.068-.433-.268-2.49.368-4.572 1.413-2.082 1.046-6.26 2.693-9.284 3.661-3.025.968-5.893 2.12-6.372 2.559-.48.44-1.492.56-2.25.27-.758-.29-1.378-.02-1.378.603 0 .968-4.023 3.238-6.2 3.498-.385.046-1.263.647-1.95 1.334-.688.688-1.723 1.26-2.3 1.272-.578.013-2.175.903-3.55 1.978-1.375 1.076-3.175 1.97-4 1.986-1.576.031-4 4.283-4 7.014 0 .88-.46 2.06-1.023 2.623-2.26 2.26 4.785 13.79 7.733 12.658 1.23-.472 1.477-.212.994 1.046-.619 1.614.344 2.291 1.547 1.088.605-.605-1.127-6.53-2.167-7.415-1.278-1.087-3.385-6.033-2.813-6.604 1.308-1.308 7.729 7.075 7.729 10.09 0 .833.45 1.514 1 1.514s1 1.135 1 2.522c0 1.72.795 2.884 2.504 3.662 3.118 1.421 4.16.5 2.754-2.435-.593-1.237-2.041-4.274-3.218-6.749-1.176-2.475-2.515-5.175-2.974-6-3.202-5.753-3.63-9-1.185-9 1.388 0 6.119 8.136 6.119 10.523 0 1.464.75 2.58 2 2.977 1.213.385 2 1.513 2 2.868 0 1.228.417 2.66.927 3.182.51.523 1.1 2.525 1.31 4.45.321 2.937.815 3.551 3.073 3.817 2.265.266 2.69-.066 2.69-2.101 0-3.381-1.953-8.842-4.012-11.216-.954-1.1-1.529-2.562-1.278-3.25.25-.687-.01-1.25-.58-1.25s-1.83-1.687-2.8-3.75c-.971-2.062-2.567-4.622-3.548-5.688-.98-1.067-1.782-2.587-1.782-3.379 0-2.192 6.066 2.847 8.337 6.926 1.039 1.865 2.181 3.616 2.539 3.891 1.824 1.402 7.124 15.085 7.124 18.393 0 2.32 2.862 5.145 4.03 3.977 1.08-1.08-1.39-11.139-4.126-16.803-1.047-2.168-1.904-4.54-1.904-5.268 0-1.61-1.46-4.716-6.095-12.966-1.048-1.867-1.905-4.092-1.905-4.947 0-2.304 2.31-1.128 3.804 1.938.718 1.472 1.7 2.676 2.183 2.676.483 0 1.192 1.013 1.576 2.25.385 1.238 1.527 3.426 2.538 4.863 1.012 1.437 1.567 2.886 1.234 3.219-.334.333.153 1.765 1.082 3.183.929 1.417 1.426 3.403 1.106 4.412-.362 1.14-.002 2.06.947 2.423.975.375 1.53 1.873 1.53 4.132 0 1.95.397 4.327.882 5.282.485.955 1.273 3.05 1.75 4.654 1.343 4.518 3.376 4.466 3.323-.084-.047-4.104-2.06-12.772-3.24-13.952-.394-.393-.715-1.976-.715-3.518 0-1.542-.9-4.405-2-6.364-1.1-1.958-2.007-4.334-2.015-5.28-.008-.946-.65-2.845-1.427-4.22-4.494-7.955-4.914-9.162-3.49-10.042 1.868-1.155 4.646 1.467 5.454 5.147.35 1.593 1.726 4.945 3.057 7.449 1.331 2.504 2.42 5.653 2.42 7 0 1.345.45 2.446 1 2.446s1 1.05 1 2.334c0 1.283.302 2.634.67 3.002.709.709 1.607 6.322 1.747 10.914.046 1.513.4 2.75.786 2.75.387 0 .66 1.013.609 2.25-.187 4.466.216 5.75 1.807 5.75 1.435 0 1.53-1.11.837-9.75-.43-5.362-.805-10.537-.833-11.5-.028-.962-.405-1.75-.837-1.75-.432 0-.785-.932-.785-2.071 0-1.14-.656-2.728-1.458-3.53-.802-.8-1.201-2.124-.888-2.94.313-.817.09-2.063-.498-2.77-.587-.707-1.182-3.002-1.324-5.1-.14-2.098-.805-4.025-1.475-4.282-1.487-.57-3.556-6.177-2.756-7.47 1.16-1.877 5.612 3.997 5.86 7.733.04.588.924 2.37 1.966 3.96 1.041 1.59 2.016 4.006 2.166 5.37.15 1.365.697 3.408 1.216 4.54 1.603 3.498 3.19 13.854 3.19 20.811 0 3.647.458 6.914 1.017 7.26.559.345.757 1.046.44 1.558-.316.512.797.931 2.472.931h3.048l-.495-5.195c-.272-2.857-.99-5.5-1.595-5.875-.79-.488-.775-.88.055-1.394.716-.442.812-1.156.252-1.875-.496-.638-.994-3.86-1.106-7.16-.111-3.3-.627-6.428-1.145-6.95-.518-.523-.943-2.41-.943-4.192s-.393-3.484-.875-3.782c-.48-.297-.875-1.61-.875-2.919 0-1.308-1.856-5.173-4.125-8.589-2.268-3.416-4.125-6.403-4.125-6.64 0-1.274 2.492-.086 4.868 2.321 2.543 2.577 7.367 12.224 6.983 13.964-.095.432.382 2.136 1.06 3.786.68 1.65 1.42 5.025 1.647 7.5.227 2.475.587 6.363.8 8.639.213 2.276.71 4.662 1.106 5.301.395.64.935 3.728 1.2 6.862.557 6.587 2.254 9.41 2.494 4.148.087-1.897.078-4.125-.019-4.95-.097-.825-.358-3.525-.58-6-.492-5.471-2.22-19.278-2.976-23.787-.304-1.808-1.03-4.18-1.614-5.27-.583-1.092-.789-2.425-.456-2.963.333-.54-.012-.98-.766-.98s-2.356-2.254-3.56-5.01c-2.58-5.909-2.59-5.99-.801-5.99 1.4 0 4.337 3.748 4.84 6.179.151.727 1.055 1.641 2.008 2.033.953.391 1.508 1.298 1.233 2.016-.522 1.36 2.852 18.86 3.99 20.703.36.58.683 4.208.719 8.062.036 3.854.461 7.007.945 7.007.484 0 .88 2.925.88 6.5 0 6.467 1.226 8.512 2.568 4.283 1.023-3.223 1.277-11.117.394-12.283-.416-.55-1.01-3.475-1.322-6.5-1.096-10.679-1.835-15.496-2.606-16.99-.428-.83-1.089-3.647-1.468-6.26-.379-2.612-1.061-4.75-1.516-4.75-.456 0-1.121-1.563-1.48-3.473-.358-1.91-1.348-3.862-2.2-4.34-1.383-.774-1.37-1.045.131-2.546 1.573-1.573 1.807-1.519 3.67.85 1.094 1.39 1.802 3.087 1.573 3.769-.229.682.63 3.49 1.91 6.24 1.28 2.75 2.33 6.886 2.336 9.191.005 2.305.401 4.433.88 4.73.478.295 1.138 4.034 1.467 8.308.328 4.274.88 10.021 1.228 12.771.662 5.234.74 9.628.235 13-.187 1.245.266 2 1.2 2 1.027 0 1.497-1.023 1.49-3.25 0-1.787.14-3.25.321-3.25 1.225 0 2.877 2.97 2.791 5.02-.096 2.29.324 2.504 6.25 3.169 3.492.392 6.867.924 7.5 1.183 1.955.801 2.648.672 2.648-.494zm-18-14.819c0-1.067-.368-2.168-.817-2.445-.45-.278-.927-5.53-1.063-11.673-.135-6.143-.615-11.905-1.066-12.805-1.832-3.651-2.829-6.76-2.887-9.007-.034-1.305-.985-4.337-2.114-6.74-2.432-5.171-2.602-7.389-.567-7.389 1.66 0 4.842 6.701 4.101 8.633-.261.68-.008 1.394.563 1.584 1.44.48 3.286 9.05 3.777 17.533.04.688.451 1.25.914 1.25 1.85 0-.038-23.903-2.311-29.25-.519-1.22-.29-1.75.756-1.75 1.556 0 2.77 2.054 3.249 5.5 1.144 8.225 2.603 19.904 3.061 24.5.302 3.025.913 7.075 1.359 9 .877 3.79.77 6.686-.433 11.75-.941 3.96-2.587 4.293-2.467.5.356-11.271-.791-18.847-2.582-17.056-.826.826-.769 11.715.086 16.269.436 2.326.283 3.537-.448 3.537-.611 0-1.111-.873-1.111-1.94zm94-9.36c0-2.634 2.131-7.68 3.25-7.691.412-.004.756-1.02.764-2.258.016-2.542 2.315-9.553 4.548-13.87 1.876-3.629 4.352-3.884 3.682-.38-.263 1.375-.875 2.5-1.361 2.5s-.883.455-.883 1.011c0 .897-2.878 7.918-4.914 11.99-.413.824-1.374 3.637-2.137 6.25-1.472 5.043-2.95 6.27-2.95 2.449zm8-.093c0-2.495.575-4.21 4.141-12.345 1.022-2.331 1.859-4.919 1.859-5.75 0-.83.42-1.51.932-1.51.513 0 1.218-.9 1.568-2 .702-2.214 3.5-2.764 3.5-.69 0 .722-.9 2.278-2 3.459-1.1 1.18-2 2.602-2 3.158s-.9 2.614-2 4.572c-1.1 1.959-2 4.447-2 5.53 0 1.084-.45 1.97-1 1.97s-1 1.099-1 2.441c0 1.343-.45 2.72-1 3.06-.566.349-1-.475-1-1.895zm20.5 1.394c-.34-.55-.191-1 .33-1 .522 0 1.943-2.137 3.158-4.75 1.214-2.612 3.142-5.762 4.284-7 2.36-2.556 5.728-2.997 5.728-.75 0 .825-.382 1.5-.847 1.5-1.464 0-5.153 3.67-5.153 5.127 0 .766-.9 1.954-2 2.641s-2 2.145-2 3.24c0 2.064-2.415 2.748-3.5.992zm-4.5-3.565c0-2.4 1.526-6.301 2.909-7.435.335-.275 1.495-2.187 2.578-4.25 1.082-2.062 2.54-3.75 3.24-3.75 2.135 0 1.43 2.382-1.727 5.84-1.65 1.806-3 4.38-3 5.722 0 1.341-.45 2.438-1 2.438s-1 .9-1 2-.45 2-1 2-1-1.154-1-2.565zm-30-2.876c0-2.507.435-4.559.968-4.559.533 0 .713-.666.4-1.48-.312-.814.603-3.827 2.032-6.696 1.43-2.87 2.614-6.14 2.63-7.27.033-2.06 4.611-6.246 5.673-5.184.694.695-1.454 6.238-3.732 9.63-.923 1.375-1.953 4.264-2.29 6.42-.336 2.155-1.092 4.216-1.68 4.58-.588.363-.78 1.412-.428 2.33.36.94.157 1.67-.466 1.67-.61 0-1.107.874-1.107 1.941 0 1.068-.45 2.22-1 2.56-.611.377-1-1.157-1-3.942zm22 1.928c0-1.381.855-3.409 3.157-7.487.466-.825 1.253-2.4 1.749-3.5 1.149-2.548 4.877-6.5 6.133-6.5.528 0 .96.675.96 1.5s-.354 1.5-.788 1.5c-1.017 0-7.211 10.196-7.211 11.87 0 1.281-2.366 4.13-3.43 4.13-.313 0-.57-.68-.57-1.513zm-98.623-.846c-.618-.706-1.209-5.302-1.314-10.212-.22-10.276-.721-17.913-1.62-24.679-.515-3.875-.349-4.75.901-4.75 1.669 0 3.346 7.29 2.82 12.25-.161 1.513.202 2.75.807 2.75.75 0 .792.574.134 1.804-.531.992-.646 2.321-.256 2.953 1.011 1.636 1.438 21.251.461 21.205-.446-.02-1.316-.615-1.933-1.321zm64.353-3.89c.297-2.338.918-4.734 1.38-5.325.48-.612.319-1.596-.376-2.291-.895-.895-.918-1.406-.086-1.926.623-.39 1.383-2.959 1.688-5.709 1.053-9.458 1.854-12.5 3.292-12.5.95 0 1.239.733.885 2.25-.289 1.238-.635 4.725-.77 7.75-.134 3.025-.592 5.758-1.018 6.074-.425.316-.836 2.228-.912 4.25-.076 2.022-.515 3.676-.976 3.676-.46 0-.838 1.8-.838 4 0 2.769-.432 4-1.405 4-1.07 0-1.276-1.01-.865-4.25zm6.589 1c.893-5.393 1.785-9.142 2.678-11.25.466-1.1 1.108-3.887 1.427-6.192.767-5.538 2.256-9.309 3.676-9.309.778 0 .917 1.05.429 3.25-1.14 5.135-1.484 6.888-2.504 12.75-1.518 8.723-1.583 8.958-2.836 10.21-.654.655-1.19 1.775-1.19 2.49 0 .715-.499 1.3-1.109 1.3-.695 0-.909-1.213-.571-3.25zm-13.935-7.75c0-2.75.251-5.001.558-5.002.307 0 .701-3.488.876-7.75.221-5.366.798-8.21 1.874-9.249 1.404-1.353 1.488-.865.861 5-.381 3.575-.826 7.85-.989 9.5-.644 6.551-1.828 12.5-2.486 12.5-.381 0-.694-2.25-.694-5zm-49.513.718c-.47-.797-1.08-16.604-.945-24.528.116-6.822 1.733-3.988 1.974 3.461.12 3.702.42 7.057.666 7.455.246.4.668 3.416.936 6.704.384 4.704.17 6.101-1.007 6.553-.822.315-1.553.475-1.624.355zm6.97-6.969c-.61-23.943-.63-23.651 1.498-21.882.759.631 1.16 4.977 1.16 12.548 0 6.37.354 11.583.786 11.583.432 0 .303.901-.285 2.001-1.916 3.58-2.997 2.124-3.16-4.25zm7.084 6.084c-.041-.184-.28-6.23-.53-13.437-.368-10.596-.18-13.331.986-14.298.792-.658 1.654-.837 1.916-.397.26.439.413 6.835.339 14.212-.1 9.741-.479 13.53-1.386 13.834-.688.23-1.284.269-1.325.086zm21.243-7.82c.183-4.511.669-8.412 1.082-8.667.412-.256.75-2.11.75-4.12 0-3.23.172-3.483 1.483-2.172 1.194 1.194 1.277 2.228.428 5.305-.58 2.102-.818 4.442-.527 5.2.29.757.098 1.642-.428 1.967-.526.325-.956 2.563-.956 4.973 0 2.41-.487 4.683-1.082 5.05-.75.465-.98-1.836-.75-7.535zm-8.168 6.186c0-.44.52-1.32 1.157-1.957.784-.784.835-1.576.16-2.45-1.46-1.894-1.332-8.515.239-12.273.75-1.796 1.093-3.537.761-3.869-.331-.331 0-1.332.743-2.224 1.23-1.483 1.4-1.463 1.997.226.359 1.016.248 3.197-.245 4.847-.493 1.65-.913 6.488-.933 10.75-.033 6.965-.232 7.75-1.958 7.75-1.057 0-1.921-.36-1.921-.8zm15.057-1.165c-.962-.594-1.133-1.792-.596-4.184.414-1.843.94-5.376 1.169-7.85.635-6.867 1.329-9.181 2.623-8.75 1.22.407 1.537 10.293.367 11.462-.341.341-.62 2.544-.62 4.895 0 4.574-.789 5.76-2.943 4.427zm-21.177-7.701c-.066-2.659-.21-7.646-.318-11.084-.138-4.335.173-6.25 1.013-6.25 1.584 0 2.625 2.758 1.34 3.552-.548.34-.774 1.366-.503 2.282 1.098 3.702.92 15.555-.239 15.942-.78.26-1.214-1.23-1.293-4.442z" style="fill:#0d0e0a" transform="translate(-879.666 -82.562)"/><path d="M67.022 395.845c-1.835.24-4.589.846-5.01 2.924 1.101.811 2.77-.653 4.039-.616.974-.505 2.986-.307 3.36-1.493-.481-.664-1.608-.865-2.389-.815zM38.708 406.392c-1.163.219-1.832 2.67-.09 2.377 1.335.244 2.445-1.583.971-2.22a1.55 1.55 0 0 0-.881-.157zM39.545 427.82c-.76 1.45-.167 3.347-.346 4.934.793-.965 1.756-3.513.67-4.877-.105-.04-.21-.096-.324-.056zM39.098 435.678c-1.47.453.458 3.602 1.139 1.707.383-.795-.22-1.81-1.139-1.707z" style="fill:#e32033;fill-opacity:1;stroke:none"/><path d="M38.875 408.725c-1.072-.087-2.366.218-1.942 1.64-.024 8.227.264 16.51 1.295 24.666.61 1.055 2.983.29 2.394-1.138.158-8.144.37-16.33-.04-24.454-.105-.78-1.064-.772-1.707-.714zm.38 19.364c.329 1.256-.532 2.994.2 4.017.854-1.012-.182 1.41-.29.346-.163-1.361-.234-3.262.09-4.363zm.903 2.254c.06.455-.106.351 0 0z" style="fill:#e32033;fill-opacity:1;stroke:none"/><path d="M38.83 408.725c-2.242-.662-1.801 1.793-1.93 3.225.085 7.792.254 15.693 1.316 23.382.942.436 3.013.394 2.431-1.15-.036-8.297.36-16.663-.064-24.922-.237-.716-1.189-.518-1.753-.535zm.268 23.047c.508.676.075.756 0 0z" style="fill:#e32033;fill-opacity:1;stroke:none"/><path d="M38.808 406.548c-1.616.94-1.766 3.41-1.9 5.112.054 7.85.051 15.804 1.342 23.55.758.709 3.049.45 2.396-1.028-.104-8.38.461-16.801-.153-25.156-.809-.756-.174-2.656-1.685-2.478z" style="fill:#e32033;fill-opacity:1;stroke:none"/><path d="M38.908 406.593c-2.777 1.468-1.851 5.387-2.016 7.98.187 6.876.05 13.897 1.358 20.647.764.67 3.047.456 2.396-1.038-.1-8.496.476-17.027-.186-25.502-.209-.746-.528-2.148-1.552-2.087z" style="fill:#e32033;fill-opacity:1;stroke:none"/><path d="M38.797 406.615c-2.839 1.824-1.643 5.862-1.913 8.683.198 6.618-.014 13.39 1.332 19.878.797.7 3.24.813 2.6-.815-.17-8.68.387-17.414-.434-26.06-.243-.678-.628-1.9-1.585-1.686z" style="fill:#e32033;fill-opacity:1;stroke:none"/><path d="M39.133 435.627c-.863.14-.631 1.298-.288 1.823.222.625 1.184.783 1.405.067.457-.84-.145-1.91-1.117-1.89z" style="fill:#e32033;fill-opacity:1;stroke:none"/><path d="M38.834 406.348c-1.083.14-1.31 1.464-1.705 2.281-.602 1.982-.364 4.11-.42 6.156.237 5.876.165 11.787.943 17.625.186 1.127.323 2.294.566 3.394.213.153.424-.272.604-.138-.726.564-.23 1.67.272 2.21.627.53 1.435-.231 1.35-.931.079-.45-.25-.986-.513-1.172.58.174 1.03-.35.926-.907.162-7.213.1-14.43.023-21.644-.103-1.678.057-3.438-.362-5.063-.38-.384-.054-1.148-.619-1.48-.299-.235-.689-.338-1.065-.33z" style="fill:#e32033;fill-opacity:1;stroke:none"/><path d="M38.111 435.915c.044 1.019.108 2.171.683 3.058.238.41.823.821 1.16.268.32-.511.682-1.21.505-1.81-.47-.096-.384.913-.966.765-.564-.272-.771-1.045-.947-1.602-.034-.204-.095-.931-.435-.68z" style="fill:#e32033;fill-opacity:1;stroke:none"/><path d="M38.865 406.313c-1.216.236-1.552 1.663-1.922 2.663-.412 2.345-.138 4.759-.209 7.13.103 6.445.155 12.944 1.346 19.292-.017.32.411.374.477.446.014.415-.344-.4-.45.106-.139 1.197.163 2.558.98 3.461.69.44 1.21-.51 1.333-1.073.231-.814.195-1.742-.245-2.47.858.009.679-1.064.73-1.63.208-8.005.164-16.019-.07-24.023-.054-1.166-.144-2.44-.762-3.448-.322-.289-.767-.49-1.208-.454zm.631 31.756c.415.001.134.072 0 0z" style="fill:#e32033;fill-opacity:1;stroke:none"/><path d="M38.92 406.214c-1.325.25-1.722 1.813-2.063 2.912-.358 2.842-.152 5.733-.17 8.594.138 5.993.178 12.05 1.393 17.938.168.205-.173.477-.031.77.06 1.125.206 2.59 1.298 3.188.663.042 1.074-.804 1.152-1.373.075-.734.134-1.557-.127-2.245.365-.348.839-.63.642-1.243-.015-8.389.205-16.784-.156-25.167-.11-1.241-.304-3.303-1.938-3.374z" style="fill:#e32033;fill-opacity:1;stroke:none"/><path d="M38.85 406.198c-1.291.354-1.796 1.846-2.068 3.023-.421 3.586-.157 7.242-.118 10.855.12 5.095.319 10.2 1.235 15.222.104 1.392-.01 3.044 1.065 4.125.614.583 1.399-.181 1.515-.82.353-.826.062-1.728.079-2.55.32-.434.646-.837.495-1.432.126-8.551.218-17.112-.195-25.657-.1-1.146-.537-2.86-2.009-2.766z" style="fill:#e32033;fill-opacity:1;stroke:none"/></svg>