<svg viewBox="0 0 500 500" xmlns="http://www.w3.org/2000/svg">
    <ellipse style="fill: rgb(144, 238, 144); stroke: rgb(0, 0, 0);" cx="253.869" cy="250.298" rx="109.226" ry="105.655"/>
    <ellipse style="fill: rgb(0, 0, 255); stroke: rgb(0, 0, 0);" cx="212.5" cy="196.429" rx="10.714" ry="12.5"/>
    <path d="M 179.821 220.595 C 182.694 220.221 186.587 220.603 189.345 221.786 C 192.019 222.932 194.042 225.306 196.19 227.44 C 198.417 229.653 198.636 231.463 202.44 234.881 C 209.904 241.587 230.27 257.284 244.702 265.833 C 258.475 273.992 275.007 281.609 286.964 285.476 C 296.16 288.45 304.871 287.452 310.774 289.643 C 315.181 291.279 318.462 292.97 320.595 295.893 C 322.732 298.821 324.09 303.606 323.571 307.202 C 323.045 310.854 320.439 315.381 317.321 317.619 C 314.077 319.949 309.763 320.619 304.226 320.595 C 296.555 320.562 285.359 318.279 274.464 314.643 C 261.384 310.278 243.829 301.459 231.012 294.405 C 219.562 288.103 210.205 282.128 200.655 274.762 C 191.052 267.355 179.038 255.867 173.571 250.06 C 170.351 246.638 168.798 245.09 167.619 242.321 C 166.507 239.712 165.808 236.868 166.429 233.988 C 167.147 230.653 170.177 225.799 172.679 223.571 C 174.768 221.712 177.186 220.938 179.821 220.595 Z M 171.798 73.881 C 173.948 73.999 178.161 73.786 181.024 77.75 C 186.87 85.844 191.65 123.719 195.905 135.488 C 198.313 142.15 200.443 145.766 202.452 148.286 C 203.711 149.864 205.227 149.667 206.024 150.964 C 206.924 152.431 207.611 155.024 207.214 156.917 C 206.798 158.903 205.097 161.433 203.345 162.571 C 201.614 163.697 198.988 164.254 196.798 163.762 C 194.327 163.207 191.85 161.828 189.357 158.702 C 185.419 153.764 181.099 143.761 177.452 133.107 C 172.751 119.372 164.291 89.868 164.952 81.321 C 165.252 77.451 167.478 76.264 168.821 75.071 C 169.786 74.216 170.434 73.806 171.798 73.881 Z M 230.726 90.548 C 232.786 90.684 237.775 92.473 239.357 94.417 C 240.732 96.105 240.741 97.743 240.548 100.964 C 240.206 106.653 235.496 119.299 234 127.75 C 232.63 135.492 233.193 145.095 231.619 149.774 C 230.635 152.7 229.446 154.296 227.75 155.429 C 226.134 156.508 223.69 157.015 221.798 156.619 C 219.811 156.203 217.336 154.911 216.143 152.75 C 214.623 149.997 214.568 146.144 214.952 140.25 C 215.589 130.496 220.25 103.869 223.286 96.798 C 224.717 93.465 226.349 92.763 227.75 91.738 C 228.79 90.977 229.39 90.459 230.726 90.548 Z M 272.095 129.536 C 269.936 132.777 267.335 136.534 264.881 139.362 C 263.846 143.441 259.194 151.402 256.321 153.643 C 254.368 155.167 252.261 155.23 250.369 154.833 C 248.383 154.417 245.853 152.716 244.714 150.964 C 243.589 149.233 242.968 147.108 243.524 144.417 C 244 142.11 246.083 138.092 248.186 134.701 C 248.216 134.57 248.249 134.436 248.286 134.298 C 249.814 128.573 262.651 109.59 267.678 103.695 C 269.371 99.996 272.726 95.282 275.369 92.333 C 276.103 91.514 276.884 90.661 277.695 89.831 C 278.543 88.225 279.819 86.59 280.726 85.786 C 281.69 84.93 282.466 84.818 283.702 84.595 C 285.286 84.31 287.769 84.003 289.655 84.595 C 291.65 85.222 294.177 86.769 295.31 88.464 C 296.389 90.08 296.896 92.524 296.5 94.417 C 296.084 96.403 294.572 98.909 292.631 100.071 C 292.524 100.135 292.413 100.197 292.297 100.256 C 291.145 101.545 289.915 102.739 289.06 103.643 C 287.646 105.137 286.535 105.364 285.19 106.917 C 283.778 108.547 282.44 112.017 280.856 114.17 C 279.089 118.72 275.052 125.096 272.095 129.536 Z M 320.012 87.571 C 322.163 87.689 327.587 89.528 329.238 91.44 C 330.59 93.007 330.785 94.681 330.429 97.393 C 329.848 101.811 326.95 109.026 322.69 116.44 C 316.836 126.631 301.465 148.666 295.607 153.048 C 292.991 155.004 291.547 154.634 289.655 154.238 C 287.669 153.822 285.133 152.065 284 150.369 C 282.921 148.753 281.911 147.462 282.81 144.417 C 284.771 137.768 301.286 119.374 307.214 109.298 C 311.821 101.468 314.518 91.504 317.036 88.762 C 318.185 87.51 318.648 87.497 320.012 87.571 Z M 384.298 107.214 C 386.357 107.351 391.347 109.14 392.929 111.083 C 394.303 112.772 394.884 114.999 394.119 117.631 C 392.952 121.645 384.52 130.846 382.512 132.81 C 381.743 133.562 381.573 133.213 381.024 133.702 C 380.239 134.402 379.13 136.277 378.345 136.976 C 377.796 137.466 377.562 137.265 376.857 137.869 C 375.431 139.092 371.438 144.086 370.012 145.31 C 369.307 145.914 369.073 145.713 368.524 146.202 C 367.739 146.902 366.63 148.777 365.845 149.476 C 365.296 149.966 364.906 149.879 364.357 150.369 C 363.573 151.068 363.352 151.887 361.679 153.643 C 357.939 157.566 343.392 170.255 338.762 175.369 C 336.021 178.396 335.768 180.9 333.702 182.214 C 331.831 183.406 329.179 183.839 327.155 183.405 C 325.107 182.966 322.627 181.171 321.5 179.536 C 320.469 178.039 319.885 176.29 320.31 174.179 C 320.9 171.239 323.661 167.454 326.857 163.464 C 331.112 158.153 338.749 151.381 345.012 145.31 C 351.437 139.081 360.701 130.87 364.952 126.56 C 367.497 123.98 369.049 121.933 370.012 120.905 C 370.482 120.403 370.347 120.609 370.905 120.012 C 372.43 118.38 378.897 110.235 381.321 108.405 C 382.609 107.433 382.962 107.126 384.298 107.214 Z M 442.631 122.095 C 444.691 122.232 449.668 123.958 451.262 125.964 C 452.695 127.767 453.222 130.425 452.452 133.107 C 451.392 136.802 449.143 139.898 442.631 145.905 C 428.885 158.584 369.634 201.317 358.107 207.214 C 354.413 209.104 354.047 208.801 352.155 208.405 C 350.169 207.989 347.633 206.231 346.5 204.536 C 345.421 202.92 344.761 200.741 345.31 198.583 C 346.017 195.798 347.516 193.51 352.155 189.357 C 361.802 180.722 397.366 160.095 411.679 149.476 C 421.551 142.152 428.63 136.16 433.405 131.321 C 436.576 128.108 437.883 124.707 439.655 123.286 C 440.771 122.39 441.295 122.007 442.631 122.095 Z" style="fill: rgb(255, 0, 0); stroke: rgb(0, 0, 0);"/>
    <ellipse style="fill: rgb(0, 0, 255); stroke: rgb(0, 0, 0);" cx="289.583" cy="207.738" rx="9.226" ry="12.5"/>
</svg>
