<svg xmlns="http://www.w3.org/2000/svg" xmlns:xlink="http://www.w3.org/1999/xlink" width="810" height="1500" version="1.0"><rect ry="46.912" height="1500" width="810" style="fill:#fff;fill-opacity:1;fill-rule:evenodd;stroke:none;stroke-width:3.99999762;stroke-linejoin:miter;stroke-miterlimit:4;stroke-dasharray:none;stroke-opacity:1"/><g id="a"><path style="fill:#000;fill-opacity:1;fill-rule:evenodd;stroke:none;stroke-width:3.96013284;stroke-linejoin:miter;stroke-miterlimit:4;stroke-dasharray:none;stroke-opacity:1" d="M691.184 402.803a277.218 277.218 0 1 1-554.436 0 277.218 277.218 0 1 1 554.436 0z" transform="matrix(.50502 0 0 .50502 195.94 51.29)"/><path transform="matrix(.48788 0 0 .48788 202.597 58.12)" d="M691.184 402.803a277.218 277.218 0 1 1-554.436 0 277.218 277.218 0 1 1 554.436 0z" style="fill:#fef137;fill-opacity:1;fill-rule:evenodd;stroke:none;stroke-width:3.96013284;stroke-linejoin:miter;stroke-miterlimit:4;stroke-dasharray:none;stroke-opacity:1"/><path style="fill:#000;fill-opacity:1;fill-rule:evenodd;stroke:none;stroke-width:3.96013284;stroke-linejoin:miter;stroke-miterlimit:4;stroke-dasharray:none;stroke-opacity:1" d="M691.184 402.803a277.218 277.218 0 1 1-554.436 0 277.218 277.218 0 1 1 554.436 0z" transform="matrix(.4464 0 0 .4464 219.77 74.83)"/><path d="M284.125 39.344c-10.338 0-18.719 8.412-18.719 18.75 0 10.337 8.381 18.719 18.719 18.718 10.338 0 18.719-8.38 18.719-18.718s-8.381-18.75-18.719-18.75zM334.844 44.938c-8.707-.196-16.644 5.743-18.656 14.562-2.301 10.079 4.015 20.137 14.093 22.438 10.079 2.3 20.137-4.016 22.438-14.094 2.3-10.079-4.015-20.137-14.094-22.438a18.968 18.968 0 0 0-3.781-.468z" style="fill:#efd002;fill-opacity:1;fill-rule:evenodd;stroke:#000;stroke-width:4;stroke-linejoin:miter;stroke-miterlimit:4;stroke-dasharray:none;stroke-opacity:1" transform="matrix(.5 0 0 .5 262.5 112.212)"/><path d="M284.125 41.344c-9.246 0-16.75 7.472-16.75 16.718 0 9.246 7.504 16.75 16.75 16.75s16.75-7.504 16.75-16.75c0-9.245-7.504-16.718-16.75-16.718zm-50.813 5.687c-1.112.026-2.248.15-3.375.407-9.014 2.057-14.65 11.017-12.593 20.03 2.057 9.015 11.017 14.683 20.031 12.626 9.014-2.058 14.682-11.049 12.625-20.063-1.8-7.887-8.902-13.18-16.688-13zm101.657 0c-7.787-.174-14.888 5.144-16.688 13.032-2.057 9.014 3.58 18.036 12.594 20.093 9.014 2.058 18.005-3.642 20.063-12.656 2.057-9.014-3.58-18.005-12.594-20.063a16.87 16.87 0 0 0-3.375-.406zm-148.844 16.75c-.405-.01-.812.011-1.219.032a16.731 16.731 0 0 0-6.437 1.656c-8.33 4.011-11.856 13.982-7.844 22.312 4.012 8.33 14.045 11.856 22.375 7.844s11.824-14.045 7.813-22.375c-2.821-5.857-8.607-9.327-14.688-9.469zm196.625 0c-.339-.004-.663.015-1 .032-5.935.29-11.555 3.741-14.313 9.468-4.011 8.33-.517 18.395 7.813 22.406 8.33 4.012 18.363.456 22.375-7.874 4.012-8.33.518-18.333-7.813-22.344-2.277-1.097-4.69-1.657-7.062-1.688zM143 90.813a16.652 16.652 0 0 0-10.688 3.656c-7.228 5.764-8.452 16.302-2.687 23.531 5.765 7.229 16.302 8.421 23.531 2.656 7.23-5.764 8.421-16.333 2.656-23.562-3.242-4.066-7.99-6.207-12.812-6.281zm282.281.03c-4.827.082-9.6 2.216-12.844 6.282-5.764 7.229-4.603 17.798 2.625 23.563 7.23 5.764 17.798 4.572 23.563-2.657 5.765-7.229 4.572-17.797-2.656-23.562-3.163-2.522-6.934-3.688-10.688-3.625zM106.562 126.72a16.732 16.732 0 0 0-12.812 6.312c-5.765 7.229-4.604 17.767 2.625 23.531 7.229 5.765 17.766 4.573 23.531-2.656 5.765-7.229 4.573-17.766-2.656-23.531-3.163-2.522-6.939-3.724-10.688-3.656zm355.157.031A16.697 16.697 0 0 0 451 130.406c-7.229 5.765-8.452 16.303-2.688 23.531 5.765 7.23 16.334 8.421 23.563 2.657 7.229-5.765 8.421-16.334 2.656-23.563-3.242-4.066-7.985-6.2-12.812-6.281zM80 169.719c-.339-.004-.663.014-1 .031-5.927.295-11.523 3.742-14.281 9.469-4.012 8.33-.518 18.332 7.812 22.344 8.33 4.011 18.332.517 22.344-7.813 4.012-8.33.518-18.363-7.813-22.375A16.658 16.658 0 0 0 80 169.719zm407.625.031a16.679 16.679 0 0 0-6.438 1.656c-8.33 4.012-11.855 14.014-7.843 22.344 4.011 8.33 14.044 11.824 22.375 7.813 8.33-4.012 11.855-14.014 7.844-22.344-3.01-6.248-9.418-9.785-15.938-9.469zm-424.25 47.906c-7.781-.173-14.856 5.144-16.656 13.031-2.058 9.015 3.58 18.006 12.593 20.063 9.015 2.057 17.974-3.61 20.032-12.625 2.057-9.014-3.58-18.005-12.594-20.063a16.864 16.864 0 0 0-3.375-.406zm441.5 0c-1.112.025-2.248.18-3.375.438-9.014 2.057-14.682 11.048-12.625 20.062 2.057 9.014 11.048 14.651 20.063 12.594 9.014-2.057 14.682-11.048 12.625-20.063-1.8-7.887-8.901-13.205-16.688-13.03zM57.312 268.125c-9.245 0-16.687 7.504-16.687 16.75s7.441 16.75 16.688 16.75c9.245 0 16.75-7.504 16.75-16.75s-7.505-16.75-16.75-16.75zm453.594 0c-9.246 0-16.781 7.504-16.781 16.75s7.535 16.75 16.781 16.75c9.246 0 16.75-7.504 16.75-16.75s-7.504-16.75-16.75-16.75zm-448.25 50.469c-1.112.025-2.248.18-3.375.437-9.014 2.058-14.62 11.017-12.562 20.031 2.057 9.015 10.986 14.683 20 12.625 9.014-2.057 14.682-11.048 12.625-20.062-1.8-7.887-8.9-13.206-16.688-13.031zm442.938 0c-7.787-.175-14.919 5.112-16.719 13-2.057 9.014 3.61 18.005 12.625 20.062 9.014 2.058 18.005-3.58 20.063-12.594 2.057-9.014-3.611-18.005-12.625-20.062a16.568 16.568 0 0 0-3.344-.406zM488.656 366.5c-.339-.004-.663.015-1 .031-5.935.291-11.554 3.742-14.312 9.469-4.012 8.33-.487 18.332 7.844 22.344 8.33 4.011 18.332.518 22.343-7.813 4.012-8.33.518-18.363-7.812-22.375a16.664 16.664 0 0 0-7.063-1.656zm-409.687.063a16.777 16.777 0 0 0-6.469 1.625c-8.33 4.011-11.762 14.013-7.75 22.343 4.012 8.33 13.982 11.856 22.313 7.844 8.33-4.012 11.824-14.013 7.812-22.344-3.009-6.248-9.387-9.785-15.906-9.469zM461.156 409.5a16.766 16.766 0 0 0-12.844 6.313c-5.764 7.228-4.572 17.766 2.657 23.53 7.229 5.766 17.797 4.573 23.562-2.656 5.765-7.228 4.573-17.766-2.656-23.53a16.697 16.697 0 0 0-10.719-3.657zm-354.062.063c-3.754-.064-7.556 1.102-10.719 3.625-7.229 5.764-8.39 16.27-2.625 23.5 5.765 7.228 16.271 8.483 23.5 2.718 7.229-5.764 8.421-16.333 2.656-23.562-3.242-4.066-7.985-6.2-12.812-6.281zm318.687 35.843a16.697 16.697 0 0 0-10.719 3.656c-7.228 5.765-8.42 16.303-2.656 23.532 5.765 7.229 16.334 8.42 23.563 2.656 7.229-5.765 8.39-16.302 2.625-23.531a16.705 16.705 0 0 0-12.813-6.313zm-283.312.063c-4.827.081-9.601 2.215-12.844 6.281-5.765 7.229-4.541 17.735 2.688 23.5 7.228 5.765 17.735 4.635 23.5-2.594 5.764-7.228 4.572-17.766-2.657-23.531a16.614 16.614 0 0 0-10.687-3.656zm239.219 26.969a16.679 16.679 0 0 0-6.438 1.656c-8.33 4.011-11.824 14.013-7.813 22.344 4.012 8.33 14.014 11.855 22.344 7.843 8.33-4.011 11.824-14.044 7.813-22.375-3.009-6.248-9.387-9.785-15.906-9.469zm-195.75.03c-.34-.003-.663.015-1 .032-5.936.291-11.524 3.742-14.282 9.469-4.011 8.33-.486 18.3 7.844 22.312 8.33 4.012 18.332.55 22.344-7.781 4.011-8.33.486-18.363-7.844-22.375a16.664 16.664 0 0 0-7.063-1.656zm148.28 16.72c-1.112.024-2.247.18-3.374.437-9.014 2.057-14.651 11.017-12.594 20.031 2.057 9.014 11.048 14.683 20.063 12.625 9.014-2.057 14.65-11.048 12.593-20.062-1.8-7.888-8.9-13.206-16.687-13.031zm-100.187.062c-7.787-.174-14.887 5.144-16.687 13.031-2.058 9.014 3.61 17.943 12.625 20 9.014 2.058 17.974-3.548 20.031-12.562 2.057-9.014-3.58-17.974-12.594-20.031a16.937 16.937 0 0 0-3.375-.438zm50.094 5.625c-9.246 0-16.75 7.504-16.75 16.75s7.504 16.75 16.75 16.75 16.75-7.504 16.75-16.75-7.504-16.75-16.75-16.75z" style="opacity:1;fill:#fef137;fill-opacity:1;stroke:none;stroke-width:7;stroke-linecap:round;stroke-linejoin:round;stroke-miterlimit:4;stroke-dasharray:none;stroke-opacity:1" transform="matrix(.5 0 0 .5 262.5 112.212)"/><path transform="translate(198.564 43.347) scale(.51739)" d="M597.228 408.385a199.076 199.076 0 1 1-398.152 0 199.076 199.076 0 1 1 398.152 0z" style="fill:#fef137;fill-opacity:1;fill-rule:evenodd;stroke:none;stroke-width:3.81920123;stroke-linejoin:miter;stroke-miterlimit:4;stroke-dasharray:none;stroke-opacity:1"/><path transform="matrix(.51509 0 0 .51509 202.356 42.85)" d="M560.017 411.176a167.447 167.447 0 1 1-334.894 0 167.447 167.447 0 1 1 334.894 0z" style="fill:#000;fill-opacity:1;fill-rule:evenodd;stroke:none;stroke-width:4;stroke-linejoin:miter;stroke-miterlimit:4;stroke-dasharray:none;stroke-opacity:1"/><path d="M284.125 116.344c-12.972 0-23.5 10.528-23.5 23.5s10.528 23.5 23.5 23.5 23.5-10.528 23.5-23.5-10.528-23.5-23.5-23.5zm-55.313 11.031c-3.052-.023-6.16.54-9.156 1.781-11.984 4.964-17.683 18.734-12.719 30.719 4.965 11.985 18.703 17.683 30.688 12.719s17.683-18.734 12.719-30.719c-3.723-8.988-12.374-14.43-21.531-14.5zm110.625 0c-9.157.07-17.808 5.512-21.53 14.5-4.965 11.985.733 25.755 12.718 30.719 11.985 4.964 25.723-.734 30.688-12.719 4.964-11.985-.735-25.755-12.72-30.719a23.398 23.398 0 0 0-9.156-1.781zm-157.843 31.438c-6.016 0-12.039 2.288-16.625 6.875-9.173 9.172-9.173 24.077 0 33.25 9.172 9.172 24.077 9.172 33.25 0 9.172-9.173 9.172-24.078 0-33.25-4.587-4.587-10.61-6.875-16.625-6.875zm205.062 0c-6.015 0-12.038 2.288-16.625 6.875-9.172 9.172-9.172 24.077 0 33.25 9.173 9.172 24.078 9.172 33.25 0 9.173-9.173 9.173-24.078 0-33.25-4.586-4.587-10.61-6.875-16.625-6.875zM150 205.843c-9.157.07-17.84 5.544-21.563 14.532-4.964 11.985.735 25.723 12.72 30.688 11.984 4.964 25.754-.735 30.718-12.72 4.964-11.984-.734-25.723-12.719-30.687-2.996-1.24-6.104-1.836-9.156-1.812zm268.25 0c-3.052-.023-6.16.572-9.156 1.813-11.985 4.964-17.683 18.703-12.719 30.688 4.964 11.984 18.734 17.683 30.719 12.719 11.984-4.965 17.683-18.703 12.719-30.688-3.724-8.988-12.406-14.461-21.563-14.531zm-279.125 55.5c-12.972 0-23.5 10.529-23.5 23.5 0 12.973 10.528 23.5 23.5 23.5s23.5-10.527 23.5-23.5c0-12.971-10.528-23.5-23.5-23.5zm290 0c-12.972 0-23.5 10.529-23.5 23.5 0 12.973 10.528 23.5 23.5 23.5s23.5-10.527 23.5-23.5c0-12.971-10.528-23.5-23.5-23.5zm-279.938 55.5c-2.68.112-5.41.696-8.03 1.782-11.985 4.964-17.684 18.703-12.72 30.688 4.965 11.984 18.735 17.682 30.72 12.718 11.984-4.964 17.682-18.703 12.718-30.687-3.878-9.363-13.114-14.898-22.688-14.5zm268.75 0c-9.157.07-17.839 5.512-21.562 14.5-4.964 11.985.734 25.724 12.719 30.688 11.984 4.964 25.754-.734 30.719-12.719 4.964-11.984-.735-25.723-12.72-30.687a23.398 23.398 0 0 0-9.156-1.781zm-236.343 47.032c-6.016 0-12.039 2.289-16.625 6.875-9.173 9.173-9.173 24.077 0 33.25 9.172 9.173 24.077 9.173 33.25 0 9.172-9.173 9.172-24.077 0-33.25-4.587-4.586-10.61-6.875-16.625-6.875zm205.062 0c-6.015 0-12.038 2.289-16.625 6.875-9.172 9.173-9.172 24.077 0 33.25 9.173 9.173 24.078 9.173 33.25 0 9.173-9.173 9.173-24.077 0-33.25-4.586-4.586-10.61-6.875-16.625-6.875zM228.47 395.313c-9.158.07-17.808 5.511-21.531 14.5-4.965 11.984.734 25.754 12.718 30.718 11.985 4.964 25.724-.734 30.688-12.719 4.964-11.984-.734-25.754-12.719-30.718a23.398 23.398 0 0 0-9.156-1.781zm110.156 0c-2.68.11-5.378.695-8 1.78-11.985 4.965-17.683 18.735-12.719 30.72 4.964 11.984 18.703 17.682 30.688 12.718 11.984-4.964 17.683-18.734 12.719-30.719-3.879-9.362-13.115-14.897-22.688-14.5zm-54.5 11.03c-12.972 0-23.5 10.529-23.5 23.5 0 12.973 10.528 23.5 23.5 23.5s23.5-10.527 23.5-23.5c0-12.971-10.528-23.5-23.5-23.5z" style="opacity:1;fill:#fef137;fill-opacity:1;stroke:none;stroke-width:7;stroke-linecap:round;stroke-linejoin:round;stroke-miterlimit:4;stroke-dasharray:none;stroke-opacity:1" transform="matrix(.5 0 0 .5 262.5 112.212)"/><path transform="matrix(1.3249 0 0 1.32582 39.744 -124.89)" d="m275.357 352.517-8.908 10.224-6.311-12.003-11.027 7.894-3.373-13.135-12.55 5.138-.252-13.559-13.397 2.106 2.882-13.251-13.522-1.04 5.86-12.23-12.917-4.131 8.522-10.55-11.616-6.997 10.725-8.3-9.69-9.488 12.351-5.602-7.24-11.467 13.31-2.603-4.401-12.828 13.55.536-1.323-13.496 13.062 3.647 1.825-13.438 11.868 6.56 4.875-12.654 10.036 9.12 7.661-11.189 7.662 11.19 10.036-9.121 4.874 12.655 11.87-6.561 1.824 13.438 13.062-3.647-1.324 13.496 13.551-.536-4.4 12.828 13.309 2.603-7.24 11.467 12.35 5.602-9.69 9.488 10.726 8.3-11.616 6.998 8.522 10.549-12.917 4.13 5.86 12.23-13.522 1.04 2.882 13.252-13.397-2.106-.253 13.56-12.55-5.14-3.372 13.136-11.027-7.894-6.31 12.003-8.91-10.224z" style="fill:none;fill-opacity:0;fill-rule:evenodd;stroke:#000;stroke-width:1.50902259;stroke-linejoin:miter;stroke-miterlimit:4;stroke-dasharray:none;stroke-opacity:1"/><path transform="matrix(.42999 0 0 .71664 230.039 4.7)" d="M381.407 211.634a2.326 1.395 0 1 1-4.651 0 2.326 1.395 0 1 1 4.651 0z" style="fill:#e22;fill-opacity:0;fill-rule:evenodd;stroke:#000;stroke-width:3.60288692;stroke-linejoin:miter;stroke-miterlimit:4;stroke-dasharray:none;stroke-opacity:1"/><path style="fill:#e22;fill-opacity:0;fill-rule:evenodd;stroke:#000;stroke-width:3.60288692;stroke-linejoin:miter;stroke-miterlimit:4;stroke-dasharray:none;stroke-opacity:1" d="M381.407 211.634a2.326 1.395 0 1 1-4.651 0 2.326 1.395 0 1 1 4.651 0z" transform="matrix(.42999 0 0 .71664 264.124 199.314)"/><path transform="matrix(.42999 0 0 .71664 143.912 120.296)" d="M381.407 211.634a2.326 1.395 0 1 1-4.651 0 2.326 1.395 0 1 1 4.651 0z" style="fill:#e22;fill-opacity:0;fill-rule:evenodd;stroke:#000;stroke-width:3.60288692;stroke-linejoin:miter;stroke-miterlimit:4;stroke-dasharray:none;stroke-opacity:1"/><path style="fill:#e22;fill-opacity:0;fill-rule:evenodd;stroke:#000;stroke-width:3.60288692;stroke-linejoin:miter;stroke-miterlimit:4;stroke-dasharray:none;stroke-opacity:1" d="M381.407 211.634a2.326 1.395 0 1 1-4.651 0 2.326 1.395 0 1 1 4.651 0z" transform="matrix(.42999 0 0 .71664 150.983 142.25)"/><path transform="matrix(.42999 0 0 .71664 162.66 162.395)" d="M381.407 211.634a2.326 1.395 0 1 1-4.651 0 2.326 1.395 0 1 1 4.651 0z" style="fill:#e22;fill-opacity:0;fill-rule:evenodd;stroke:#000;stroke-width:3.60288692;stroke-linejoin:miter;stroke-miterlimit:4;stroke-dasharray:none;stroke-opacity:1"/><path style="fill:#e22;fill-opacity:0;fill-rule:evenodd;stroke:#000;stroke-width:3.60288692;stroke-linejoin:miter;stroke-miterlimit:4;stroke-dasharray:none;stroke-opacity:1" d="M381.407 211.634a2.326 1.395 0 1 1-4.651 0 2.326 1.395 0 1 1 4.651 0z" transform="matrix(.42999 0 0 .71664 178.446 179.416)"/><path transform="matrix(.42999 0 0 .71664 197.851 191.996)" d="M381.407 211.634a2.326 1.395 0 1 1-4.651 0 2.326 1.395 0 1 1 4.651 0z" style="fill:#e22;fill-opacity:0;fill-rule:evenodd;stroke:#000;stroke-width:3.60288692;stroke-linejoin:miter;stroke-miterlimit:4;stroke-dasharray:none;stroke-opacity:1"/><path style="fill:#e22;fill-opacity:0;fill-rule:evenodd;stroke:#000;stroke-width:3.60288692;stroke-linejoin:miter;stroke-miterlimit:4;stroke-dasharray:none;stroke-opacity:1" d="M381.407 211.634a2.326 1.395 0 1 1-4.651 0 2.326 1.395 0 1 1 4.651 0z" transform="matrix(.42999 0 0 .71664 219.147 199.478)"/><path transform="matrix(.42999 0 0 .71664 241.512 202.274)" d="M381.407 211.634a2.326 1.395 0 1 1-4.651 0 2.326 1.395 0 1 1 4.651 0z" style="fill:#e22;fill-opacity:0;fill-rule:evenodd;stroke:#000;stroke-width:3.60288692;stroke-linejoin:miter;stroke-miterlimit:4;stroke-dasharray:none;stroke-opacity:1"/><path transform="matrix(.42999 0 0 .71664 285.666 191.996)" d="M381.407 211.634a2.326 1.395 0 1 1-4.651 0 2.326 1.395 0 1 1 4.651 0z" style="fill:#e22;fill-opacity:0;fill-rule:evenodd;stroke:#000;stroke-width:3.60288692;stroke-linejoin:miter;stroke-miterlimit:4;stroke-dasharray:none;stroke-opacity:1"/><path style="fill:#e22;fill-opacity:0;fill-rule:evenodd;stroke:#000;stroke-width:3.60288692;stroke-linejoin:miter;stroke-miterlimit:4;stroke-dasharray:none;stroke-opacity:1" d="M381.407 211.634a2.326 1.395 0 1 1-4.651 0 2.326 1.395 0 1 1 4.651 0z" transform="matrix(.42999 0 0 .71664 305.318 178.798)"/><path transform="matrix(.42999 0 0 .71664 321.249 162.518)" d="M381.407 211.634a2.326 1.395 0 1 1-4.651 0 2.326 1.395 0 1 1 4.651 0z" style="fill:#e22;fill-opacity:0;fill-rule:evenodd;stroke:#000;stroke-width:3.60288692;stroke-linejoin:miter;stroke-miterlimit:4;stroke-dasharray:none;stroke-opacity:1"/><path style="fill:#e22;fill-opacity:0;fill-rule:evenodd;stroke:#000;stroke-width:3.60288692;stroke-linejoin:miter;stroke-miterlimit:4;stroke-dasharray:none;stroke-opacity:1" d="M381.407 211.634a2.326 1.395 0 1 1-4.651 0 2.326 1.395 0 1 1 4.651 0z" transform="matrix(.42999 0 0 .71664 332.935 142.401)"/><path transform="matrix(.42999 0 0 .71664 339.331 120.482)" d="M381.407 211.634a2.326 1.395 0 1 1-4.651 0 2.326 1.395 0 1 1 4.651 0z" style="fill:#e22;fill-opacity:0;fill-rule:evenodd;stroke:#000;stroke-width:3.60288692;stroke-linejoin:miter;stroke-miterlimit:4;stroke-dasharray:none;stroke-opacity:1"/><path style="fill:#e22;fill-opacity:0;fill-rule:evenodd;stroke:#000;stroke-width:3.60288692;stroke-linejoin:miter;stroke-miterlimit:4;stroke-dasharray:none;stroke-opacity:1" d="M381.407 211.634a2.326 1.395 0 1 1-4.651 0 2.326 1.395 0 1 1 4.651 0z" transform="matrix(.42999 0 0 .71664 340.785 98.098)"/><path transform="matrix(.42999 0 0 .71664 336.598 75.015)" d="M381.407 211.634a2.326 1.395 0 1 1-4.651 0 2.326 1.395 0 1 1 4.651 0z" style="fill:#e22;fill-opacity:0;fill-rule:evenodd;stroke:#000;stroke-width:3.60288692;stroke-linejoin:miter;stroke-miterlimit:4;stroke-dasharray:none;stroke-opacity:1"/><path style="fill:#e22;fill-opacity:0;fill-rule:evenodd;stroke:#000;stroke-width:3.60288692;stroke-linejoin:miter;stroke-miterlimit:4;stroke-dasharray:none;stroke-opacity:1" d="M381.407 211.634a2.326 1.395 0 1 1-4.651 0 2.326 1.395 0 1 1 4.651 0z" transform="matrix(.42999 0 0 .71664 327.586 54.085)"/><path transform="matrix(.42999 0 0 .71664 313.633 35.48)" d="M381.407 211.634a2.326 1.395 0 1 1-4.651 0 2.326 1.395 0 1 1 4.651 0z" style="fill:#e22;fill-opacity:0;fill-rule:evenodd;stroke:#000;stroke-width:3.60288692;stroke-linejoin:miter;stroke-miterlimit:4;stroke-dasharray:none;stroke-opacity:1"/><path style="fill:#e22;fill-opacity:0;fill-rule:evenodd;stroke:#000;stroke-width:3.60288692;stroke-linejoin:miter;stroke-miterlimit:4;stroke-dasharray:none;stroke-opacity:1" d="M381.407 211.634a2.326 1.395 0 1 1-4.651 0 2.326 1.395 0 1 1 4.651 0z" transform="matrix(.42999 0 0 .71664 296.19 19.898)"/><path transform="matrix(.42999 0 0 .71664 275.027 9.141)" d="M381.407 211.634a2.326 1.395 0 1 1-4.651 0 2.326 1.395 0 1 1 4.651 0z" style="fill:#e22;fill-opacity:0;fill-rule:evenodd;stroke:#000;stroke-width:3.60288692;stroke-linejoin:miter;stroke-miterlimit:4;stroke-dasharray:none;stroke-opacity:1"/><path style="fill:#e22;fill-opacity:0;fill-rule:evenodd;stroke:#000;stroke-width:3.60288692;stroke-linejoin:miter;stroke-miterlimit:4;stroke-dasharray:none;stroke-opacity:1" d="M381.407 211.634a2.326 1.395 0 1 1-4.651 0 2.326 1.395 0 1 1 4.651 0z" transform="matrix(.42999 0 0 .71664 252.991 4.025)"/><path style="fill:#e22;fill-opacity:0;fill-rule:evenodd;stroke:#000;stroke-width:3.60288692;stroke-linejoin:miter;stroke-miterlimit:4;stroke-dasharray:none;stroke-opacity:1" d="M381.407 211.634a2.326 1.395 0 1 1-4.651 0 2.326 1.395 0 1 1 4.651 0z" transform="matrix(.42999 0 0 .71664 208.236 9.526)"/><path transform="matrix(.42999 0 0 .71664 187.13 19.992)" d="M381.407 211.634a2.326 1.395 0 1 1-4.651 0 2.326 1.395 0 1 1 4.651 0z" style="fill:#e22;fill-opacity:0;fill-rule:evenodd;stroke:#000;stroke-width:3.60288692;stroke-linejoin:miter;stroke-miterlimit:4;stroke-dasharray:none;stroke-opacity:1"/><path style="fill:#e22;fill-opacity:0;fill-rule:evenodd;stroke:#000;stroke-width:3.60288692;stroke-linejoin:miter;stroke-miterlimit:4;stroke-dasharray:none;stroke-opacity:1" d="M381.407 211.634a2.326 1.395 0 1 1-4.651 0 2.326 1.395 0 1 1 4.651 0z" transform="matrix(.42999 0 0 .71664 168.99 34.585)"/><path transform="matrix(.42999 0 0 .71664 155.095 53.481)" d="M381.407 211.634a2.326 1.395 0 1 1-4.651 0 2.326 1.395 0 1 1 4.651 0z" style="fill:#e22;fill-opacity:0;fill-rule:evenodd;stroke:#000;stroke-width:3.60288692;stroke-linejoin:miter;stroke-miterlimit:4;stroke-dasharray:none;stroke-opacity:1"/><path style="fill:#e22;fill-opacity:0;fill-rule:evenodd;stroke:#000;stroke-width:3.60288692;stroke-linejoin:miter;stroke-miterlimit:4;stroke-dasharray:none;stroke-opacity:1" d="M381.407 211.634a2.326 1.395 0 1 1-4.651 0 2.326 1.395 0 1 1 4.651 0z" transform="matrix(.42999 0 0 .71664 146.025 74.994)"/><path transform="matrix(.42999 0 0 .71664 142.304 97.436)" d="M381.407 211.634a2.326 1.395 0 1 1-4.651 0 2.326 1.395 0 1 1 4.651 0z" style="fill:#e22;fill-opacity:0;fill-rule:evenodd;stroke:#000;stroke-width:3.60288692;stroke-linejoin:miter;stroke-miterlimit:4;stroke-dasharray:none;stroke-opacity:1"/><path transform="matrix(.96503 0 0 .96503 302.223 -87.393)" d="M167.447 354.43a61.397 61.397 0 1 1-122.794 0 61.397 61.397 0 1 1 122.794 0z" style="fill:#cf2c38;fill-opacity:1;fill-rule:evenodd;stroke:none;stroke-width:4;stroke-linejoin:miter;stroke-miterlimit:4;stroke-dasharray:none;stroke-opacity:1"/><path transform="translate(216.421 39.011) scale(.50944)" d="M476.294 423.269a106.98 106.98 0 1 1-213.96 0 106.98 106.98 0 1 1 213.96 0z" style="fill:none;fill-opacity:0;fill-rule:evenodd;stroke:#000;stroke-width:3.92587328;stroke-linejoin:miter;stroke-miterlimit:4;stroke-dasharray:none;stroke-opacity:1"/><path transform="matrix(.85648 0 0 .85648 57.58 -108.277)" d="M462.34 423.734a57.211 57.211 0 1 1-114.422 0 57.211 57.211 0 1 1 114.422 0z" style="fill:none;fill-opacity:0;fill-rule:evenodd;stroke:#000;stroke-width:2.33514595;stroke-linejoin:miter;stroke-miterlimit:4;stroke-dasharray:none;stroke-opacity:1"/><path style="fill:none;fill-rule:evenodd;stroke:#000;stroke-width:2;stroke-linecap:butt;stroke-linejoin:miter;stroke-miterlimit:4;stroke-dasharray:none;stroke-opacity:1" d="M323.125 372.563c18.27 11.701 38.24 10.621 57.469.062-19.735-10.178-39.61-11.982-57.469-.063z" transform="matrix(.5 0 0 .5 202.672 52.376)"/><path style="fill:none;fill-opacity:1;fill-rule:evenodd;stroke:#000;stroke-width:2.20979047;stroke-linejoin:miter;stroke-miterlimit:4;stroke-dasharray:none;stroke-opacity:1" d="M359.197 374.78a9.186 9.186 0 1 1-18.372 0 9.186 9.186 0 1 1 18.372 0z" transform="translate(218.967 69.09) scale(.45253)"/><path style="fill:#000;fill-opacity:1;fill-rule:evenodd;stroke:none;stroke-width:2;stroke-linejoin:miter;stroke-miterlimit:4;stroke-dasharray:none;stroke-opacity:1" d="M350.941 372.337a1.86 1.86 0 1 1-3.72 0 1.86 1.86 0 1 1 3.72 0z" transform="matrix(.70312 0 0 .70312 131.91 -23.11)"/><path style="fill:#000;fill-opacity:1;fill-rule:evenodd;stroke:none;stroke-width:2;stroke-linecap:butt;stroke-linejoin:miter;stroke-miterlimit:4;stroke-dasharray:none;stroke-opacity:1" d="M336.54 358.141c-6.52 2.728-13.225 6.914-15.156 14.171l-.063.22.031.25c1.883 9.314 11.219 14.986 20.538 16.182l.332-1.147c-8.551-1.097-16.956-7.17-18.722-15.223 1.777-6.25 7.344-10.694 13.492-13.267l-.453-1.186zM354.75 354.56c-2.08-.12-4.64.24-6.602.555l.29.9c16.862-1.142 29.7 6.51 33.875 16.641-.437 3.138-3.604 6.565-8.22 9.594-4.626 3.037-11.021 5.567-17.26 6.298l.167.982c6.556-.768 13.087-2.435 18.156-5.561 5.07-3.127 8.77-7.031 9.219-11.281l.031-.25-.094-.22c-3.896-9.904-15.006-16.829-29.562-17.659z" transform="matrix(.5 0 0 .5 202.672 52.376)"/><path d="M323.125 372.563c18.27 11.701 38.24 10.621 57.469.062-19.735-10.178-39.61-11.982-57.469-.063z" style="fill:none;fill-rule:evenodd;stroke:#000;stroke-width:2;stroke-linecap:butt;stroke-linejoin:miter;stroke-miterlimit:4;stroke-dasharray:none;stroke-opacity:1" transform="matrix(-.5 0 0 .5 606.468 52.376)"/><path transform="matrix(-.45253 0 0 .45253 590.173 69.09)" d="M359.197 374.78a9.186 9.186 0 1 1-18.372 0 9.186 9.186 0 1 1 18.372 0z" style="fill:none;fill-opacity:1;fill-rule:evenodd;stroke:#000;stroke-width:2.20979047;stroke-linejoin:miter;stroke-miterlimit:4;stroke-dasharray:none;stroke-opacity:1"/><path transform="matrix(-.70312 0 0 .70312 677.23 -23.11)" d="M350.941 372.337a1.86 1.86 0 1 1-3.72 0 1.86 1.86 0 1 1 3.72 0z" style="fill:#000;fill-opacity:1;fill-rule:evenodd;stroke:none;stroke-width:2;stroke-linejoin:miter;stroke-miterlimit:4;stroke-dasharray:none;stroke-opacity:1"/><path d="M336.54 358.141c-6.52 2.728-13.225 6.914-15.156 14.171l-.063.22.031.25c1.883 9.314 11.219 14.986 20.538 16.182l.332-1.147c-8.551-1.097-16.956-7.17-18.722-15.223 1.777-6.25 7.344-10.694 13.492-13.267l-.453-1.186zM354.75 354.56c-2.08-.12-4.64.24-6.602.555l.29.9c16.862-1.142 29.7 6.51 33.875 16.641-.437 3.138-3.604 6.565-8.22 9.594-4.626 3.037-11.021 5.567-17.26 6.298l.167.982c6.556-.768 13.087-2.435 18.156-5.561 5.07-3.127 8.77-7.031 9.219-11.281l.031-.25-.094-.22c-3.896-9.904-15.006-16.829-29.562-17.659z" style="fill:#000;fill-opacity:1;fill-rule:evenodd;stroke:none;stroke-width:2;stroke-linecap:butt;stroke-linejoin:miter;stroke-miterlimit:4;stroke-dasharray:none;stroke-opacity:1" transform="matrix(-.5 0 0 .5 606.468 52.376)"/><path d="m208.001 222.109.521 2.058c20.724-14.05 48.465-10.122 63.425 9.713l1.254-.334c-15.745-21.952-44.94-26.234-65.2-11.437zM359.018 222.109l-.522 2.058c-20.723-14.05-48.464-10.122-63.425 9.713l-1.253-.334c15.744-21.952 44.94-26.234 65.2-11.437zM262.376 286.046l-1 .438s.569 5.085 4.406 7.375c1.916 1.142 3.925 1.205 5.782 1.125 1.856-.081 3.595-.27 5.156.156 1.546.421 2.076 1.153 3.094 2.062 1.018.91 2.515 1.813 5.187 1.813s4.17-.903 5.188-1.813c1.018-.91 1.547-1.641 3.093-2.062 1.561-.425 3.3-.237 5.157-.156 1.856.08 3.865.017 5.78-1.125 3.838-2.29 4.407-7.375 4.407-7.375l-1-.438s-1.303 4.68-4.094 6.344c-1.398.834-3.265.67-5.031.594-1.766-.077-3.718-.335-5.75.218-2.047.558-3.05 1.736-3.906 2.5-.856.765-1.557 1.313-3.844 1.313s-2.988-.548-3.844-1.313c-.855-.764-1.86-1.942-3.906-2.5-2.032-.553-3.984-.295-5.75-.218-1.766.076-3.632.24-5.031-.594-2.79-1.665-4.094-6.344-4.094-6.344z" style="fill:#000;fill-opacity:1;fill-rule:evenodd;stroke:none;stroke-width:2;stroke-linecap:butt;stroke-linejoin:miter;stroke-miterlimit:4;stroke-dasharray:none;stroke-opacity:1" transform="matrix(.5 0 0 .5 262.5 112.212)"/><path d="M285.024 297.364c-5.118-.169-8.692 4.376-9.93 8.026l1.442.361c1.388-3.355 5.052-6.736 8.371-6.736 3.32 0 6.724 3.16 8.358 6.571l1.526-.602c-2.19-4.453-4.907-7.46-9.767-7.62z" style="fill:#000;fill-opacity:1;fill-rule:evenodd;stroke:none;stroke-width:2;stroke-linecap:butt;stroke-linejoin:miter;stroke-miterlimit:4;stroke-dasharray:none;stroke-opacity:1" transform="matrix(.5 0 0 .5 262.5 112.212)"/><g><path style="fill:#000;fill-opacity:1;fill-rule:evenodd;stroke:none;stroke-width:2;stroke-linecap:butt;stroke-linejoin:miter;stroke-miterlimit:4;stroke-dasharray:none;stroke-opacity:1" d="m327.379 437.125-.173 1.012c5.27 4.46 10.507 11.662 14.013 18.175l1.75-.968c-2.485-6.197-9.785-13.76-15.59-18.219zM328.349 446.776l-.329.76c2.589 2.209 3.88 4.335 5.834 7.73l1.44-.505c-1.385-3.23-3.71-5.66-6.945-7.985z" transform="matrix(.5 0 0 .5 202.672 52.376)"/></g><g><path d="m327.379 437.125-.173 1.012c5.27 4.46 10.507 11.662 14.013 18.175l1.75-.968c-2.485-6.197-9.785-13.76-15.59-18.219zM328.349 446.776l-.329.76c2.589 2.209 3.88 4.335 5.834 7.73l1.44-.505c-1.385-3.23-3.71-5.66-6.945-7.985z" style="fill:#000;fill-opacity:1;fill-rule:evenodd;stroke:none;stroke-width:2;stroke-linecap:butt;stroke-linejoin:miter;stroke-miterlimit:4;stroke-dasharray:none;stroke-opacity:1" transform="matrix(-.5 0 0 .5 608.46 52.376)"/></g><path d="M279.47 313.077c-1.32 0-2.616.61-4.219 1.407-1.603.796-3.46 1.817-5.562 2.75-4.204 1.864-9.335 3.399-15.157 2.343v.032a150.865 150.865 0 0 1-6.406-1.594c.357-1.516.246-3.084.307-4.719l-1.62-.094c-.196 5.193-1.663 9.625-4.293 14.304l1.137.915c1.585-2.68 2.996-5.479 3.938-8.469a153.04 153.04 0 0 0 39.219 5.344v.063c.084-.012.166-.02.25-.032a153.064 153.064 0 0 0 32.28-3.312c.227-.023.46-.06.688-.094v-.062c2.501-.54 5-1.117 7.469-1.782.783 2.495 1.716 5.062 2.75 7.719l1.379-.719c-1.803-4.63-3.257-9.039-4.125-13l-1.504.438c.258 1.178.585 2.392.938 3.625a149.988 149.988 0 0 1-7.563 1.812c-4.376.515-8.584-1.011-12.469-2.812-3.995-1.853-7.54-4.031-10.906-4.031-1.89 0-3.149.747-4.25 1.343-1.101.597-2.085 1.125-4 1.125-1.916 0-2.71-.506-3.75-1.125s-2.376-1.375-4.531-1.375zm0 2c1.725 0 2.439.463 3.5 1.094 1.06.631 2.47 1.406 4.781 1.406 2.301 0 3.786-.72 4.938-1.343 1.151-.625 1.917-1.125 3.312-1.125 2.421 0 5.97 1.946 10.063 3.843 1.925.893 4.003 1.746 6.187 2.344a150.991 150.991 0 0 1-17.875 1.875c1.83-.876 3.053-2.435 3.955-3.523l-1.299-.758c-1.253 1.802-5.337 4.406-10.187 4.406-7.733 0-15.55-.678-23.313-1.937 2.56-.537 4.898-1.394 6.969-2.313 2.19-.972 4.106-1.98 5.656-2.75 1.55-.77 2.777-1.219 3.313-1.219zm-7.34 14.028-1.223.597c9.296 11.215 24.509 10.387 33.188.032l-1.075-.63c-8.628 9.8-23.643 8.555-30.89 0zm-1.061 24.392.896.521c9.319-10.274 25.094-11.103 33.255.653l1.19-1.009c-9.692-13.092-26.377-11.844-35.341-.165z" style="fill:#000;fill-opacity:1;fill-rule:evenodd;stroke:none;stroke-width:2;stroke-linecap:butt;stroke-linejoin:miter;stroke-miterlimit:4;stroke-dasharray:none;stroke-opacity:1" transform="matrix(.5 0 0 .5 262.5 112.212)"/></g><use x="0" y="0" xlink:href="#a" id="b" transform="translate(157.171 968.16)" width="810" height="1500"/><use x="0" y="0" xlink:href="#b" id="c" transform="translate(-314.343)" width="810" height="1500"/><use x="0" y="0" xlink:href="#c" id="d" transform="translate(314.343 -322.72)" width="810" height="1500"/><use x="0" y="0" xlink:href="#d" id="e" transform="translate(-314.343)" width="810" height="1500"/><use x="0" y="0" xlink:href="#e" id="f" transform="translate(314.343 -322.72)" width="810" height="1500"/><use xlink:href="#f" transform="translate(-314.343)" width="810" height="1500"/><rect style="fill:none;fill-opacity:1;fill-rule:evenodd;stroke:#000;stroke-width:4.00000048;stroke-linejoin:miter;stroke-miterlimit:4;stroke-dasharray:none;stroke-opacity:1" width="672" height="1356" x="69" y="72" ry="42.408"/></svg>