<svg width="1074" height="142" viewBox="0 0 1074 142" fill="none" xmlns="http://www.w3.org/2000/svg">
<rect width="1074" height="142" rx="50" fill="#FFA5C5"/>
<g clip-path="url(#clip0_23_399)">
<path d="M141.759 60.8212C141.604 60.9329 141.434 61.0445 141.251 61.1422C141.11 61.2259 140.969 61.3097 140.828 61.3794H140.814C134.496 64.4629 117.968 61.3656 111.538 59.4402C109.62 59.0215 106.898 58.2543 103.923 57.2496C103.373 57.0682 102.823 56.8869 102.259 56.6776C101.399 56.3847 100.538 56.0637 99.6779 55.7149C99.6216 55.6872 99.5652 55.6732 99.5086 55.6452C99.142 55.5197 98.7754 55.38 98.4229 55.2407C93.9948 53.427 89.6796 51.2364 87.0424 48.9063C85.9706 47.9576 85.181 46.9809 84.7719 46.0044C83.3054 42.4604 87.2398 40.3398 91.7245 38.9864C91.9218 38.9306 92.1192 38.8749 92.3167 38.8189C95.3346 37.9819 98.4934 37.4655 100.369 37.1168C100.369 37.1168 95.1935 30.9081 98.3243 27.9503C103.119 23.3878 109.959 27.2386 115.402 25.2157C115.585 25.1459 115.769 25.0762 115.952 24.9924C116.008 24.9645 116.051 24.9365 116.107 24.9087C118.589 23.681 120.634 20.3742 122.086 18.1558C122.904 16.9141 123.539 16.0072 123.948 16.0072C123.962 16.0072 123.962 16.0072 123.962 16.0072C123.976 16.0072 123.99 16.0212 124.018 16.0212C124.568 16.1607 124.484 18.1838 124.568 20.6114C124.653 23.0251 124.907 25.8714 126.162 27.6433C127.22 29.1502 128.757 30.1686 130.421 31.0336C130.943 31.3126 131.479 31.5638 132.014 31.8288C132.677 32.1498 133.34 32.4568 133.989 32.7776C134.877 33.224 135.723 33.7125 136.499 34.2705C136.654 34.3822 136.795 34.4937 136.95 34.6052C137.091 34.7169 137.232 34.8285 137.359 34.954C137.5 35.0657 137.627 35.1772 137.754 35.3167C137.867 35.4284 137.966 35.526 138.064 35.6377C138.445 36.0702 138.798 36.5446 139.08 37.0746C139.15 37.2001 139.221 37.3396 139.277 37.4793C139.362 37.6328 139.432 37.7863 139.489 37.9536C139.587 38.1908 139.672 38.4558 139.742 38.721C140.857 42.781 133.086 45.6274 133.086 45.6274C136.724 48.7249 147.16 56.831 141.759 60.8212Z" fill="#FEFEF3"/>
<path d="M142.323 69.1088V71.2016L142.139 71.7458L137.598 85.5583C136.005 87.5117 134.059 89.1579 131.859 90.3858C130.985 90.888 130.082 91.3205 129.137 91.6832C127.614 92.2692 126.007 92.6877 124.342 92.8832C123.722 92.9669 123.087 93.0087 122.453 93.0227H90.6809C90.0464 93.0087 89.4117 92.9669 88.7912 92.8832C87.1271 92.6877 85.5195 92.2692 83.9823 91.6832C83.0517 91.3205 82.135 90.902 81.2747 90.3998C79.0747 89.1581 77.1144 87.5117 75.521 85.5583L75.4647 85.4048L70.9802 71.7458L70.7968 71.2016V69.1088C70.7968 67.7276 70.9378 66.3602 71.1915 65.0487C71.4313 63.8488 71.7838 62.6769 72.2211 61.5469C72.4045 61.0724 72.6019 60.612 72.8275 60.1517C75.1122 55.422 79.1171 51.6689 84.0245 49.7993C84.4194 49.6458 84.8142 49.5063 85.2091 49.3948C85.4066 49.325 85.604 49.2691 85.8014 49.2133C86.2102 49.0876 86.6193 48.9901 87.0423 48.9063C88.3678 48.6273 89.7499 48.4738 91.1601 48.4738H121.959C122.41 48.4738 122.862 48.4878 123.299 48.5298C124.145 48.5716 124.991 48.6833 125.809 48.8506C127.6 49.1993 129.32 49.7993 130.914 50.5807C135.384 52.827 138.938 56.6778 140.814 61.3658L140.828 61.3796C140.842 61.4355 140.87 61.4913 140.898 61.5471C141.223 62.3981 141.505 63.2632 141.716 64.1422C141.801 64.4352 141.857 64.7421 141.928 65.0489C142.182 66.3602 142.323 67.7276 142.323 69.1088Z" fill="#675852"/>
<path d="M129.053 41.4279C129.123 42.0418 129.01 42.6975 128.7 43.4092C127.91 45.1951 125.922 46.925 123.299 48.5297C121.268 49.7853 118.843 50.9573 116.304 52.0177C112.652 53.5664 108.732 54.8778 105.347 55.8405C104.825 55.994 104.332 56.1335 103.838 56.273C103.5 56.3567 103.161 56.4545 102.837 56.538C102.696 56.566 102.555 56.6078 102.414 56.6497C102.357 56.6497 102.315 56.6637 102.259 56.6775C101.173 56.9565 100.2 57.1659 99.3678 57.3332C93.741 58.8819 81.1196 61.1143 72.8276 60.1516C70.1764 59.8586 67.9624 59.2167 66.5805 58.1424C60.8268 53.6917 72.3341 45.153 76.3673 41.8742C76.3673 41.8742 68.0188 38.6094 69.3304 34.2424C71.4033 27.2803 80.5274 27.7405 84.3349 22.5645C87.1272 18.7555 85.7311 10.3005 86.9579 10.0077C88.1707 9.71469 91.118 17.8068 95.4614 19.9136C101.37 22.7877 109.211 18.3092 114.471 23.5272C114.979 24.0294 115.275 24.6014 115.402 25.2154C116.178 28.6476 112.032 33.4052 112.032 33.4052C112.99 33.6144 114.26 33.8516 115.684 34.1726C116.008 34.2424 116.361 34.3121 116.713 34.3958C117.136 34.4936 117.56 34.6051 117.997 34.7166C118.025 34.7166 118.039 34.7306 118.067 34.7306C120.267 35.2748 122.58 35.9723 124.512 36.8792C126.458 37.7722 128.023 38.8744 128.7 40.2278C128.869 40.5625 128.996 40.9115 129.039 41.2742C129.053 41.3302 129.053 41.3721 129.053 41.4279Z" fill="#FBE1E2"/>
<path opacity="0.03" d="M120.408 26.1364C121.268 29.2198 117.7 33.3217 116.812 34.2984C116.812 34.3124 116.798 34.3124 116.798 34.3124C116.77 34.3542 116.741 34.3682 116.713 34.3962C116.699 34.4241 116.685 34.4379 116.671 34.4519C116.332 34.3542 116.008 34.2565 115.684 34.1729C114.372 33.8102 113.202 33.5172 112.313 33.266C112.313 33.266 117.08 28.4245 116.107 24.9087V24.8947C118.589 23.625 120.62 20.3323 122.058 18.1279C122.904 16.8442 123.539 15.9235 123.948 16.0072C123.962 16.0072 123.962 16.0072 123.962 16.0072C124.526 16.1607 124.441 18.1419 124.512 20.5557C124.54 21.0299 124.554 21.5184 124.596 22.0066C123.412 23.6668 122.002 25.3132 120.408 26.1364Z" fill="#191919"/>
<path opacity="0.1" d="M130.518 44.6085C127.536 50.358 111.342 54.8999 102.697 56.4786C104.414 57.1254 106.114 57.7079 107.704 58.2109C105.161 57.5573 101.819 56.5254 98.3983 55.236C107.043 53.6571 123.237 49.1154 126.219 43.3659C128.5 38.9722 122.33 36.0818 116.646 34.2612C122.71 35.8802 133.412 39.0373 130.518 44.6085Z" fill="#191919"/>
<path d="M83.3195 102.998H76.6775L76.2684 101.017L73.4339 87.4138L72.9685 85.1954L70.3596 72.6246L70.1764 71.7456L68.7802 65.0485H77.171L78.2569 71.7456L79.7798 81.1354L81.2747 90.3996L83.3195 102.998Z" fill="#F5CA86"/>
<path d="M89.9603 103H83.3199L78.2591 71.7484L77.1722 65.0426H85.5706L86.3464 71.7484L89.9603 103Z" fill="#FBE1E2"/>
<path d="M96.6007 103H89.9603L86.3464 71.7484L85.5706 65.0426H93.9656L94.4302 71.7484L96.6007 103Z" fill="#F5CA86"/>
<path d="M103.245 103H96.6007L94.4303 71.7484L93.9656 65.0426H102.364L102.521 71.7484L103.245 103Z" fill="#FBE1E2"/>
<path d="M110.762 65.0426L110.609 71.7484L109.885 103H103.245L102.521 71.7484L102.364 65.0426H110.762Z" fill="#F5CA86"/>
<path d="M119.161 65.0426L118.696 71.7484L116.525 103H109.885L110.609 71.7484L110.762 65.0426H119.161Z" fill="#FBE1E2"/>
<path d="M127.559 65.0426L126.783 71.7484L123.166 103H116.525L118.696 71.7484L119.161 65.0426H127.559Z" fill="#F5CA86"/>
<path d="M135.958 65.0426L134.87 71.7484L129.81 103H123.166L126.783 71.7484L127.559 65.0426H135.958Z" fill="#FBE1E2"/>
<path d="M144.356 65.0426L142.958 71.7484L136.45 103H129.81L134.87 71.7484L135.958 65.0426H144.356Z" fill="#F5CA86"/>
<path d="M123.167 55.3457C127.864 55.3457 131.671 51.7237 131.671 47.2558C131.671 42.7878 127.864 39.1658 123.167 39.1658C118.47 39.1658 114.662 42.7878 114.662 47.2558C114.662 51.7237 118.47 55.3457 123.167 55.3457Z" fill="#E95279"/>
<path d="M125.777 42.823C125.777 42.823 132.276 36.8458 133.839 36.3955V38.0025L128.223 41.8258L125.777 42.823Z" fill="#E95279"/>
<path d="M92.5657 38.9197C92.3241 38.759 91.9938 38.7642 91.7599 38.9575L90.8726 39.6904C90.6387 39.8837 90.5757 40.203 90.6943 40.4653C90.7189 40.52 90.7487 40.573 90.7896 40.621C91.0266 40.8994 91.4516 40.9361 91.7342 40.7027L92.6215 39.9698C92.904 39.7364 92.9415 39.3177 92.7045 39.0392C92.6639 38.9913 92.616 38.9532 92.5657 38.9197Z" fill="#E95279"/>
<path opacity="0.1" d="M92.3874 39.6946L91.5001 40.4275C91.2662 40.6208 90.9361 40.6261 90.6943 40.4653C90.7189 40.52 90.7486 40.573 90.7896 40.621C91.0266 40.8994 91.4516 40.9361 91.7342 40.7027L92.6215 39.9698C92.904 39.7364 92.9415 39.3177 92.7045 39.0392C92.6637 38.9913 92.6158 38.9533 92.5655 38.9197C92.6843 39.1822 92.6215 39.5015 92.3874 39.6946Z" fill="#191919"/>
<path d="M85.1031 47.6568C84.7637 47.4721 84.4426 47.5357 84.3348 47.8468L83.9265 49.0268C83.8187 49.3379 83.9592 49.7969 84.2419 50.1453C84.3008 50.2178 84.3636 50.2872 84.4339 50.3476C84.8432 50.6982 85.2843 50.6777 85.4145 50.3019L85.8228 49.1219C85.9528 48.7461 85.7244 48.1518 85.3152 47.801C85.2449 47.7406 85.1738 47.6953 85.1031 47.6568Z" fill="#F4AB52"/>
<path opacity="0.1" d="M85.4186 48.7754L85.0103 49.9553C84.9027 50.2664 84.5814 50.33 84.2419 50.1453C84.3008 50.2178 84.3636 50.2872 84.434 50.3476C84.8432 50.6982 85.2844 50.6777 85.4145 50.3019L85.8228 49.1219C85.9528 48.7461 85.7244 48.1518 85.3152 47.801C85.2447 47.7405 85.1737 47.6953 85.103 47.6568C85.3861 48.0052 85.5263 48.4642 85.4186 48.7754Z" fill="#191919"/>
<path d="M100.313 41.466C100.186 41.1666 99.9033 40.9868 99.6118 41.052L98.506 41.2992C98.2144 41.3644 98.0071 41.6538 97.9811 41.9873C97.9756 42.0567 97.9752 42.1273 97.9868 42.1991C98.0534 42.6152 98.396 42.8913 98.7483 42.8126L99.8541 42.5654C100.206 42.4868 100.44 42.0817 100.373 41.6656C100.362 41.5938 100.34 41.5283 100.313 41.466Z" fill="#7FC9BD"/>
<path opacity="0.1" d="M99.7881 42.154L98.6823 42.4012C98.3907 42.4664 98.1082 42.2864 97.981 41.9873C97.9754 42.0567 97.9751 42.1273 97.9866 42.1991C98.0533 42.6152 98.3959 42.8913 98.7482 42.8127L99.854 42.5654C100.206 42.4868 100.44 42.0817 100.373 41.6656C100.362 41.5938 100.339 41.5283 100.313 41.466C100.287 41.7995 100.08 42.089 99.7881 42.154Z" fill="#191919"/>
<path d="M105.466 29.1436C105.701 28.877 105.764 28.5066 105.594 28.2393L104.947 27.2244C104.776 26.9569 104.426 26.8775 104.102 27.0034C104.034 27.0295 103.968 27.0615 103.904 27.1058C103.537 27.3639 103.405 27.8396 103.611 28.1628L104.258 29.1776C104.464 29.5009 104.933 29.5542 105.301 29.296C105.364 29.2515 105.418 29.199 105.466 29.1436Z" fill="#7FC9BD"/>
<path opacity="0.1" d="M104.621 28.9226L103.974 27.9078C103.804 27.6402 103.867 27.2698 104.102 27.0032C104.034 27.0293 103.968 27.0613 103.904 27.1056C103.537 27.3637 103.405 27.8395 103.611 28.1626L104.258 29.1774C104.464 29.5007 104.933 29.554 105.301 29.2959C105.364 29.2514 105.417 29.1989 105.466 29.1433C105.142 29.2693 104.792 29.1901 104.621 28.9226Z" fill="#191919"/>
<path d="M111.943 38.2373C111.93 37.8588 111.799 37.5242 111.61 37.4408L110.891 37.1244C110.702 37.041 110.515 37.2354 110.428 37.57C110.41 37.6395 110.395 37.7131 110.386 37.7939C110.337 38.2629 110.484 38.7292 110.713 38.83L111.431 39.1464C111.66 39.2472 111.887 38.9459 111.936 38.4769C111.945 38.3961 111.945 38.3161 111.943 38.2373Z" fill="#BC67A6"/>
<path opacity="0.1" d="M111.479 38.6829L110.761 38.3665C110.572 38.2831 110.441 37.9485 110.428 37.57C110.41 37.6395 110.395 37.7131 110.386 37.7939C110.337 38.2629 110.484 38.7292 110.713 38.83L111.431 39.1464C111.66 39.2472 111.887 38.9459 111.936 38.4769C111.945 38.3961 111.945 38.3161 111.943 38.2373C111.856 38.5719 111.669 38.7664 111.479 38.6829Z" fill="#191919"/>
<path d="M108.897 46.3514C108.611 46.228 108.258 46.2805 108.038 46.5038L107.203 47.3506C106.983 47.5738 106.967 47.8966 107.137 48.1373C107.172 48.1874 107.213 48.2352 107.264 48.2764C107.564 48.516 108.026 48.4913 108.292 48.2215L109.126 47.3746C109.392 47.1048 109.364 46.6881 109.065 46.4486C109.013 46.4077 108.956 46.3772 108.897 46.3514Z" fill="#E95279"/>
<path opacity="0.1" d="M108.83 47.1382L107.996 47.9851C107.776 48.2083 107.422 48.2608 107.137 48.1375C107.172 48.1876 107.213 48.2354 107.264 48.2766C107.564 48.5162 108.026 48.4915 108.292 48.2217L109.126 47.3747C109.391 47.105 109.364 46.6883 109.065 46.4487C109.013 46.4075 108.956 46.377 108.897 46.3512C109.066 46.5922 109.05 46.915 108.83 47.1382Z" fill="#191919"/>
<path d="M74.9605 54.7306C74.7277 54.5704 74.3888 54.5497 74.1312 54.7019L73.1541 55.2792C72.8965 55.4314 72.8025 55.7079 72.9 55.9482C72.9202 55.9981 72.9459 56.0472 72.9832 56.0926C73.2004 56.3561 73.6328 56.4212 73.9439 56.2374L74.9208 55.6601C75.232 55.4763 75.309 55.1103 75.0918 54.8467C75.0543 54.8013 75.009 54.7641 74.9605 54.7306Z" fill="#E95279"/>
<path opacity="0.1" d="M74.7062 55.3996L73.7291 55.9769C73.4716 56.1291 73.1326 56.1084 72.8998 55.9482C72.92 55.9981 72.9457 56.0472 72.983 56.0926C73.2002 56.3561 73.6326 56.4212 73.9438 56.2373L74.9207 55.6601C75.2318 55.4763 75.3088 55.1103 75.0916 54.8467C75.0541 54.8013 75.0086 54.7641 74.9601 54.7308C75.0578 54.9709 74.9638 55.2474 74.7062 55.3996Z" fill="#191919"/>
<path d="M93.6687 27.1494C93.6511 26.8032 93.4339 26.495 93.1178 26.415L91.9183 26.1121C91.602 26.0321 91.2879 26.2063 91.1392 26.5104C91.1081 26.5738 91.0819 26.6406 91.067 26.7144C90.9809 27.1421 91.2229 27.571 91.605 27.6676L92.8044 27.9706C93.1864 28.0671 93.5696 27.7961 93.6557 27.3683C93.6706 27.2945 93.6724 27.2215 93.6687 27.1494Z" fill="#E95279"/>
<path opacity="0.1" d="M92.8896 27.5479L91.6901 27.245C91.3738 27.165 91.1568 26.8568 91.1392 26.5106C91.1081 26.574 91.0819 26.6408 91.067 26.7146C90.9809 27.1423 91.2229 27.5712 91.605 27.6678L92.8044 27.9708C93.1864 28.0672 93.5696 27.7962 93.6557 27.3685C93.6706 27.2947 93.6724 27.2217 93.6687 27.1496C93.52 27.4537 93.2057 27.6277 92.8896 27.5479Z" fill="#191919"/>
<path d="M81.7779 33.8707C81.526 33.6952 81.1869 33.7095 80.9512 33.9333L80.0569 34.7821C79.8212 35.0059 79.7639 35.3677 79.892 35.6609C79.9187 35.7219 79.9504 35.781 79.9934 35.834C80.2432 36.1423 80.6807 36.1731 80.9657 35.9027L81.86 35.0539C82.1447 34.7834 82.1734 34.3101 81.9235 34.002C81.8804 33.949 81.8304 33.9072 81.7779 33.8707Z" fill="#D3E05E"/>
<path opacity="0.1" d="M81.613 34.7494L80.7188 35.5984C80.483 35.8222 80.1439 35.8366 79.892 35.6611C79.9186 35.7221 79.9504 35.7812 79.9934 35.8342C80.2432 36.1424 80.6807 36.1733 80.9657 35.9029L81.86 35.0541C82.1447 34.7836 82.1734 34.3102 81.9235 34.0022C81.8805 33.9491 81.8304 33.9074 81.7781 33.8708C81.9059 34.1638 81.8488 34.5257 81.613 34.7494Z" fill="#191919"/>
<path d="M109.173 59.335C109.056 58.9369 108.777 58.6831 108.48 58.7476L107.352 58.9921C107.055 59.0566 106.834 59.4186 106.795 59.8507C106.786 59.9406 106.784 60.0325 106.792 60.1264C106.844 60.6725 107.179 61.0555 107.538 60.9776L108.666 60.7331C109.025 60.6552 109.277 60.1448 109.226 59.5986C109.217 59.5047 109.197 59.4179 109.173 59.335Z" fill="#F4AB52"/>
<path opacity="0.1" d="M108.615 60.1937L107.488 60.4381C107.191 60.5026 106.912 60.2489 106.795 59.8507C106.786 59.9406 106.784 60.0325 106.792 60.1265C106.844 60.6725 107.179 61.0555 107.538 60.9776L108.666 60.7331C109.025 60.6552 109.277 60.1448 109.226 59.5986C109.217 59.5045 109.197 59.4177 109.173 59.3349C109.134 59.7672 108.913 60.1292 108.615 60.1937Z" fill="#191919"/>
<path d="M132.471 56.8328C132.312 56.4074 131.957 56.152 131.592 56.2455L130.207 56.6001C129.842 56.6936 129.582 57.1058 129.55 57.5804C129.544 57.6792 129.543 57.7797 129.558 57.8816C129.642 58.4735 130.072 58.8655 130.513 58.7525L131.898 58.398C132.339 58.285 132.631 57.7083 132.547 57.1163C132.533 57.0146 132.505 56.9212 132.471 56.8328Z" fill="#D3E05E"/>
<path opacity="0.1" d="M131.815 57.8133L130.43 58.1678C130.065 58.2614 129.711 58.006 129.55 57.5806C129.544 57.6794 129.543 57.7798 129.558 57.8817C129.642 58.4737 130.072 58.8657 130.513 58.7527L131.898 58.3981C132.339 58.2852 132.631 57.7085 132.547 57.1165C132.533 57.0146 132.505 56.9212 132.471 56.8328C132.439 57.3074 132.18 57.7197 131.815 57.8133Z" fill="#191919"/>
<path d="M121.517 32.4333C121.442 32.1113 121.256 31.899 121.054 31.9398L120.284 32.0953C120.082 32.1364 119.927 32.4175 119.895 32.7612C119.888 32.8328 119.885 32.906 119.889 32.9814C119.917 33.4191 120.14 33.7368 120.385 33.6872L121.154 33.5317C121.399 33.4821 121.577 33.0834 121.549 32.6457C121.545 32.5703 121.532 32.5004 121.517 32.4333Z" fill="#E95279"/>
<path opacity="0.1" d="M121.127 33.0992L120.358 33.2547C120.155 33.2958 119.969 33.0833 119.895 32.7612C119.888 32.8328 119.885 32.906 119.889 32.9814C119.917 33.4191 120.14 33.7368 120.385 33.6872L121.154 33.5317C121.399 33.4821 121.577 33.0834 121.549 32.6457C121.545 32.5703 121.532 32.5002 121.517 32.4332C121.485 32.777 121.33 33.0584 121.127 33.0992Z" fill="#191919"/>
<path d="M144.353 65.0487L142.957 71.7458H70.1764L68.7802 65.0487H144.353Z" fill="#FEFEF3"/>
<path opacity="0.09" d="M144.353 65.0487L142.957 71.7458L136.456 102.999H76.6775L76.2686 101.017L73.4341 87.4141L108.351 52.8686L112.793 48.4737L114.697 46.5902L124.568 36.8238L130.421 31.0336C130.942 31.3126 131.478 31.5638 132.014 31.8288C132.677 32.1498 133.34 32.4568 133.988 32.7775C134.877 33.224 135.723 33.7125 136.499 34.2705C136.654 34.3822 136.795 34.4937 136.95 34.6052C137.091 34.7169 137.232 34.8285 137.359 34.954C137.5 35.0657 137.627 35.1772 137.754 35.3167C137.867 35.4284 137.965 35.526 138.064 35.6377C138.445 36.0701 138.797 36.5446 139.079 37.0746C139.15 37.2001 139.22 37.3396 139.277 37.4793C139.361 37.6328 139.432 37.7863 139.488 37.9536C139.587 38.1908 139.672 38.4558 139.742 38.721C140.856 42.781 133.086 45.6274 133.086 45.6274C136.724 48.7247 147.16 56.8309 141.759 60.8212C141.604 60.9329 141.434 61.0445 141.251 61.1422C141.11 61.2119 140.969 61.2957 140.814 61.3654V61.3792H140.828C140.842 61.4352 140.87 61.4909 140.899 61.5467C141.223 62.3977 141.505 63.2628 141.716 64.1418C141.787 64.4488 141.857 64.7418 141.914 65.0485H144.353V65.0487Z" fill="#191919"/>
</g>
<path d="M124.495 89.4831L122.498 89.9348C122.498 89.9348 119.728 94.1386 119.123 98.6097C118.744 101.417 118.73 105.081 118.992 106.907C119.259 108.732 120.216 112.618 121.72 115.356C123.169 117.992 124.58 119.029 126.122 119.946C126.783 120.338 127.373 121.68 128.405 122.33C129.37 122.938 130.645 123.058 130.645 123.058C130.645 123.058 134.17 128.501 141.797 129.446C150.745 130.553 155.123 126.579 155.123 126.579C155.123 126.579 158.705 126.57 162.084 125.146C165.877 123.546 167.902 120.218 167.902 120.218C167.902 120.218 172.65 116.199 174.155 111.387C175.364 107.524 175.397 100.181 174.469 96.7245C173.541 93.2674 171.745 90.3405 170.32 88.4645C169.186 86.971 156.52 80.352 154.992 79.762C153.469 79.1766 139.28 78.2639 138.75 78.6557C138.22 79.0521 124.495 89.4831 124.495 89.4831Z" fill="#AC5811"/>
<path d="M129.436 82.1035C126.131 84.7493 124.42 86.1321 122.705 89.4416C120.989 92.7512 121.542 97.1439 121.852 98.7664C122.156 100.389 122.709 103.519 123.014 105.081C123.319 106.648 124.13 110.364 126.375 112.664C129.52 115.886 132.37 116.996 132.37 116.996C132.37 116.996 134.681 120.518 140.264 122.532C147.605 125.178 150.909 121.329 153.722 120.306C156.534 119.283 159.9 119.223 162.778 117.236C165.652 115.25 168.834 112.843 170.916 107.792C172.997 102.74 172.566 100.513 172.627 99.2504C172.687 97.9874 172.505 91.9123 170.119 88.1833C167.733 84.4543 164.864 82.2141 163.758 81.5043C161.311 79.9417 152.573 76.2035 150.375 75.7841C148.172 75.3646 140.316 76.0191 137.198 77.2821C134.081 78.5451 129.436 82.1035 129.436 82.1035Z" fill="url(#paint0_radial_23_399)"/>
<path d="M143.381 105.939C142.861 105.777 142.313 105.017 142.181 103.39C141.998 101.071 143.738 100.43 143.738 100.43C143.738 100.43 145.809 99.8911 147.267 99.3795C148.622 98.9047 149.597 98.2963 149.597 98.2963C149.597 98.2963 149.728 95.8118 150.567 95.0789C151.411 94.346 152.897 94.4105 154.552 94.5995C156.202 94.7885 158.859 95.8717 158.47 96.8581C158.081 97.8445 157.627 98.8309 156.042 99.7252C154.458 100.615 153.323 101.444 152.513 102.145C151.702 102.85 150.216 103.735 147.755 104.63C145.294 105.524 144.131 106.169 143.381 105.939Z" fill="#FFC86E"/>
<path d="M129.445 85.201C127.889 84.8876 125.691 88.2017 125.283 89.2988C124.87 90.3958 124.448 93.0692 124.402 94.2907C124.341 95.8072 124.313 97.2315 124.959 98.3884C125.456 99.2827 126.661 99.7851 127.744 98.8632C128.827 97.9413 130.706 95.4154 131.203 95.0605C131.7 94.7055 133.153 94.2354 132.581 91.9123C132.347 90.9627 129.97 88.9991 129.853 88.7318C129.741 88.4691 130.327 85.3808 129.445 85.201Z" fill="#FFC86E"/>
<path d="M140.447 81.0388C140.508 81.9284 141.248 83.3527 142.05 84.1224C143.25 85.2702 148.753 89.1513 150.178 88.93C151.603 88.7088 153.155 86.192 153.609 85.4914C154.064 84.7908 154.969 83.8044 155.325 83.3573C155.681 82.9102 156.619 81.8915 155.845 80.8728C155.067 79.8541 153.127 79.1858 151.833 79.089C150.539 78.9922 148.528 78.1671 146.812 78.2316C145.097 78.2962 140.287 78.7433 140.447 81.0388Z" fill="#FFC86E"/>
<path d="M163.097 92.9079C163.205 93.8759 164.587 94.0879 165.689 94.7885C166.791 95.4891 167.536 96.222 168.183 96.0284C168.83 95.8395 169.711 94.8208 169.509 93.037C169.252 90.7461 167.794 87.8145 165.755 87.9113C164.522 87.9712 164.691 90.0777 164.691 90.0777C164.691 90.0777 163.031 92.3363 163.097 92.9079Z" fill="#FFC86E"/>
<path d="M136.439 86.9341C136.439 86.9341 132.019 86.9065 132.098 87.3398C132.183 87.773 132.567 89.202 133.72 89.2573C134.873 89.3126 136.359 89.4186 137.072 89.202C137.784 88.9853 139.763 87.4181 139.763 86.7175C139.763 86.0169 138.966 84.989 138.966 84.989L136.439 86.9341Z" fill="#CF701E"/>
<path d="M142.753 94.9038C142.753 94.9038 142.702 94.936 142.627 94.9959C142.406 95.1757 141.984 95.5952 142.148 96.0653C142.369 96.6876 143.658 97.8491 144.923 97.8491C146.189 97.8491 146.873 96.6876 147.094 95.9316C147.314 95.1757 147.202 94.7148 147.202 94.7148L142.753 94.9038Z" fill="#CF701E"/>
<path d="M132.895 98.4438C132.895 98.4438 132.127 98.7157 132.155 99.1997C132.183 99.6837 132.375 100.578 133.364 101.523C134.362 102.477 135.811 102.74 137.128 102.389C138.445 102.039 139.406 101.066 139.298 99.7713C139.191 98.476 137.925 97.4758 137.925 97.4758L132.895 98.4438Z" fill="#CF701E"/>
<path d="M127.209 105.602C127.209 105.602 126.384 105.791 126.469 106.33C126.553 106.87 127.486 108.571 128.967 108.382C130.448 108.193 132.788 106.519 132.788 105.869C132.788 105.22 131.606 104.358 131.606 104.358L127.209 105.602Z" fill="#CF701E"/>
<path d="M137.316 112.355C137.316 112.355 137.011 114.097 139.402 114.733C143.386 115.789 143.798 113.41 143.798 113.41L137.316 112.355Z" fill="#CF701E"/>
<path d="M152.967 113.161C152.967 113.161 151.898 114.212 153.112 115.037C154.327 115.863 155.709 116.144 157.012 116.001C158.316 115.858 159.206 114.835 159.206 114.835L152.967 113.161Z" fill="#CF701E"/>
<path d="M162.942 101.491C162.942 101.491 160.927 102.491 162.488 104.219C163.673 105.538 166.388 105.27 167.498 104.528C168.225 104.044 168.441 103.187 168.169 102.754C167.892 102.32 162.942 101.491 162.942 101.491Z" fill="#CF701E"/>
<path d="M155.142 90.0409C155.142 90.0409 155.034 92.3041 158.138 92.2303C162.478 92.1243 161.93 89.4739 161.93 89.4739L155.142 90.0409Z" fill="#CF701E"/>
<path d="M157.148 87.2061C157.148 87.2061 155.114 88.4506 154.894 88.9623C154.673 89.4739 154.205 91.0964 156.567 90.9904C158.93 90.8844 161.292 90.8014 162.089 89.8565C162.886 88.9116 162.694 88.045 162.366 87.3444C162.038 86.6437 160.191 83.9934 158.723 84.0256C157.763 84.0441 157.148 87.2061 157.148 87.2061Z" fill="#593329"/>
<path d="M158.714 84.0164C158.714 84.0164 157.425 83.8551 156.295 85.8279C155.17 87.8007 154.88 88.9761 154.88 88.9761C154.88 88.9761 157.172 88.9853 158.545 88.824C159.919 88.6627 160.852 87.8237 160.852 87.8237C160.852 87.8237 159.731 84.2607 158.714 84.0164Z" fill="#925849"/>
<path d="M143.114 93.2305C143.114 93.2305 141.989 93.1568 141.905 93.5855C141.82 94.0188 142.069 95.1204 142.453 95.6044C142.837 96.0884 143.991 97.1716 145.144 96.9549C146.297 96.7383 146.981 95.6274 147.173 95.2448C147.347 94.8853 147.534 94.4981 147.206 94.0141C146.873 93.5255 143.114 93.2305 143.114 93.2305Z" fill="#593329"/>
<path d="M144.787 91.502C143.831 91.4006 141.525 93.2029 141.937 93.8205C142.397 94.4981 142.477 94.0695 143.742 94.6917C144.787 95.2034 145.242 95.6781 145.898 95.5952C146.555 95.5122 147.337 94.4474 147.202 94.0141C147.066 93.5809 146.081 91.6357 144.787 91.502Z" fill="#925849"/>
<path d="M133.964 84.2054L131.714 85.7357C131.714 85.7357 131.63 86.7728 132.098 87.3398C132.567 87.9067 132.703 88.257 134.902 88.257C137.1 88.257 139.158 87.962 139.542 86.4225C139.927 84.883 139.252 83.8966 138.839 83.3296C138.427 82.7627 133.964 84.2054 133.964 84.2054Z" fill="#593329"/>
<path d="M133.992 81.8039C133.486 82.0159 132.291 83.6154 132.014 84.316C131.737 85.0166 131.677 85.7634 131.714 85.7726C132.169 85.8832 134.845 86.1275 136.027 85.9385C137.208 85.7495 138.169 85.2379 138.553 84.5603C138.858 84.021 138.834 83.3066 138.834 83.3066C138.834 83.3066 138.033 81.8869 136.931 81.4536C135.834 81.0203 134.184 81.7209 133.992 81.8039Z" fill="#925949"/>
<path d="M132.108 98.5452C132.108 98.5452 131.92 98.8263 132.277 99.3656C132.633 99.9049 133.331 100.55 134.377 100.85C135.422 101.145 136.162 101.55 136.847 101.472C137.536 101.389 138.881 100.85 138.933 98.9877C138.989 97.1255 138.605 96.2589 137.78 95.4477C136.955 94.6364 136.359 94.7747 136.359 94.7747L132.108 98.5452Z" fill="#593329"/>
<path d="M132.347 96.8213C132.056 97.3006 131.841 98.8586 132.197 99.2089C132.553 99.5592 134.695 99.5823 135.258 99.5223C135.825 99.4624 137.677 98.6051 137.705 97.9552C137.733 97.3052 137.377 96.4433 137.377 96.1206C137.377 95.798 137.789 95.042 136.664 94.7701C135.539 94.4981 132.947 95.821 132.347 96.8213Z" fill="#925849"/>
<path d="M128.634 103.818C128.634 103.818 126.867 104.247 126.755 104.842C126.647 105.436 126.9 106.035 127.505 106.602C128.109 107.169 128.55 107.764 129.014 107.709C129.483 107.653 130.716 106.575 131.1 106.224C131.484 105.874 132.033 105.252 131.981 104.74C131.93 104.229 131.705 103.712 131.212 103.307C130.725 102.901 128.634 103.818 128.634 103.818Z" fill="#593329"/>
<path d="M129.075 102.279C128.25 102.297 127.617 103.279 127.345 103.629C127.069 103.98 126.605 104.819 126.797 104.952C126.989 105.086 127.786 105.169 128.17 105.413C128.555 105.657 129.131 106.035 129.572 105.685C130.013 105.335 130.397 104.362 130.617 104.04C130.838 103.717 131.222 103.311 131.222 103.311C131.222 103.311 130.392 102.251 129.075 102.279Z" fill="#925849"/>
<path d="M139.158 108.787C138.994 108.976 136.659 110.838 136.659 110.838C136.659 110.838 136.744 112.461 137.264 112.839C137.784 113.217 139.406 113.756 140.452 113.973C141.497 114.189 143.362 114.434 143.831 114.245C144.3 114.056 144.792 113.055 144.82 111.76C144.848 110.465 144.38 109.497 143.859 108.902C143.339 108.308 142.922 108.087 142.922 108.087L139.158 108.787Z" fill="#593329"/>
<path d="M142.261 111.216C142.566 110.88 142.922 108.082 142.922 108.082C142.922 108.082 140.808 106.487 139.927 106.381C139.045 106.275 138.005 106.353 137.7 106.676C137.4 106.999 136.219 108.16 136.327 108.916C136.434 109.672 136.655 110.834 136.655 110.834C136.655 110.834 141.628 111.922 142.261 111.216Z" fill="#925849"/>
<path d="M152.508 112.548C152.508 112.548 152.241 114.3 154.2 114.632C156.159 114.959 157.786 115.397 158.634 115.222C159.483 115.047 160.327 113.931 160.416 113.12C160.505 112.309 160.552 111.138 160.416 110.82C160.059 109.976 158.409 107.667 157.608 107.423C157.158 107.289 156.731 107.363 156.731 107.363L152.508 112.548Z" fill="#593329"/>
<path d="M153.778 109.479C152.902 110.433 152.452 111.811 152.498 112.539C152.545 113.226 155.869 112.926 156.263 112.691C156.656 112.456 157.514 111.405 157.542 111.055C157.57 110.705 157.298 109.608 157.252 108.93C157.205 108.252 157.186 107.331 156.806 107.354C156.427 107.377 155.025 108.123 153.778 109.479Z" fill="#925849"/>
<path d="M165.019 97.5864C165.019 97.5864 165.792 97.697 166.744 98.2594C167.855 98.9139 169.017 100.582 168.928 101.942C168.839 103.302 167.634 103.915 166.167 103.938C164.7 103.961 163.266 103.883 162.998 103.136C162.731 102.389 165.019 97.5864 165.019 97.5864Z" fill="#593329"/>
<path d="M163.847 98.0427C163.617 98.3562 163.022 99.3149 162.82 100.541C162.619 101.767 162.755 103.168 163.2 103.413C163.645 103.652 166.097 101.574 166.228 101.352C166.364 101.131 165.445 97.78 165.155 97.6279C164.864 97.4758 164.137 97.6509 163.847 98.0427Z" fill="#925849"/>
<path d="M31.4953 71.7625L29.4984 72.2219C29.4984 72.2219 26.7281 76.4969 26.1234 81.0438C25.7438 83.8984 25.7297 87.625 25.9922 89.4813C26.2594 91.3375 27.2156 95.2891 28.7203 98.0734C30.1688 100.755 31.5797 101.809 33.1219 102.742C33.7828 103.141 34.3734 104.505 35.4047 105.166C36.3703 105.784 37.6453 105.906 37.6453 105.906C37.6453 105.906 41.1703 111.442 48.7969 112.403C57.7453 113.528 62.1235 109.488 62.1235 109.488C62.1235 109.488 65.7047 109.478 69.0844 108.03C72.8766 106.403 74.9016 103.019 74.9016 103.019C74.9016 103.019 79.65 98.9313 81.1547 94.0375C82.3641 90.1094 82.3969 82.6422 81.4688 79.1266C80.5406 75.6109 78.7453 72.6344 77.3203 70.7266C76.1859 69.2078 63.5203 62.4766 61.9922 61.8766C60.4688 61.2813 46.2797 60.3531 45.75 60.7516C45.2203 61.1547 31.4953 71.7625 31.4953 71.7625Z" fill="#AC5811"/>
<path d="M36.4359 64.2578C33.1312 66.9484 31.4203 68.3547 29.7047 71.7203C27.9891 75.0859 28.5422 79.5531 28.8516 81.2031C29.1562 82.8531 29.7094 86.0359 30.0141 87.625C30.3187 89.2187 31.1297 92.9969 33.375 95.3359C36.5203 98.6125 39.3703 99.7422 39.3703 99.7422C39.3703 99.7422 41.6812 103.323 47.2641 105.372C54.6047 108.062 57.9094 104.148 60.7219 103.108C63.5344 102.067 66.9 102.006 69.7781 99.9859C72.6516 97.9656 75.8344 95.5187 77.9156 90.3812C79.9969 85.2437 79.5656 82.9797 79.6265 81.6953C79.6875 80.4109 79.5047 74.2328 77.1187 70.4406C74.7328 66.6484 71.864 64.3703 70.7578 63.6484C68.3109 62.0594 59.5734 58.2578 57.375 57.8312C55.1719 57.4047 47.3156 58.0703 44.1984 59.3547C41.0812 60.6391 36.4359 64.2578 36.4359 64.2578Z" fill="url(#paint1_radial_23_399)"/>
<path d="M50.3813 88.4969C49.8609 88.3328 49.3125 87.5594 49.1813 85.9047C48.9984 83.5469 50.7375 82.8953 50.7375 82.8953C50.7375 82.8953 52.8094 82.3469 54.2672 81.8266C55.6219 81.3438 56.5969 80.725 56.5969 80.725C56.5969 80.725 56.7281 78.1984 57.5672 77.4531C58.4109 76.7078 59.8969 76.7734 61.5516 76.9656C63.2016 77.1578 65.8594 78.2594 65.4703 79.2625C65.0813 80.2656 64.6266 81.2688 63.0422 82.1781C61.4578 83.0828 60.3234 83.9266 59.5125 84.6391C58.7016 85.3563 57.2156 86.2563 54.7547 87.1656C52.2938 88.075 51.1313 88.7313 50.3813 88.4969Z" fill="#FFC86E"/>
<path d="M36.4453 67.4078C34.8891 67.0891 32.6906 70.4594 32.2828 71.575C31.8703 72.6906 31.4484 75.4094 31.4016 76.6516C31.3406 78.1937 31.3125 79.6422 31.9594 80.8188C32.4563 81.7281 33.6609 82.2391 34.7438 81.3016C35.8266 80.3641 37.7063 77.7953 38.2031 77.4344C38.7 77.0734 40.1531 76.5953 39.5813 74.2328C39.3469 73.2672 36.9703 71.2703 36.8531 70.9984C36.7406 70.7313 37.3266 67.5906 36.4453 67.4078Z" fill="#FFC86E"/>
<path d="M47.4469 63.175C47.5078 64.0797 48.2484 65.5281 49.05 66.3109C50.25 67.4781 55.7531 71.425 57.1781 71.2C58.6031 70.975 60.1547 68.4156 60.6094 67.7031C61.064 66.9906 61.9687 65.9875 62.325 65.5328C62.6812 65.0781 63.6187 64.0422 62.8453 63.0062C62.0672 61.9703 60.1265 61.2906 58.8328 61.1922C57.539 61.0937 55.5281 60.2547 53.8125 60.3203C52.0969 60.3859 47.2875 60.8406 47.4469 63.175Z" fill="#FFC86E"/>
<path d="M70.0969 75.2453C70.2047 76.2297 71.5875 76.4453 72.6891 77.1578C73.7906 77.8703 74.5359 78.6156 75.1828 78.4188C75.8297 78.2266 76.7109 77.1906 76.5094 75.3766C76.2516 73.0469 74.7937 70.0656 72.7547 70.1641C71.5219 70.225 71.6906 72.3672 71.6906 72.3672C71.6906 72.3672 70.0312 74.6641 70.0969 75.2453Z" fill="#FFC86E"/>
<path d="M43.4391 69.1703C43.4391 69.1703 39.0188 69.1422 39.0984 69.5828C39.1828 70.0234 39.5672 71.4766 40.7203 71.5328C41.8734 71.5891 43.3594 71.6969 44.0719 71.4766C44.7844 71.2562 46.7625 69.6625 46.7625 68.95C46.7625 68.2375 45.9656 67.1922 45.9656 67.1922L43.4391 69.1703Z" fill="#CF701E"/>
<path d="M49.7531 77.275C49.7531 77.275 49.7016 77.3078 49.6266 77.3687C49.4063 77.5516 48.9844 77.9781 49.1484 78.4562C49.3688 79.0891 50.6578 80.2703 51.9234 80.2703C53.1891 80.2703 53.8734 79.0891 54.0938 78.3203C54.3141 77.5516 54.2016 77.0828 54.2016 77.0828L49.7531 77.275Z" fill="#CF701E"/>
<path d="M39.8953 80.875C39.8953 80.875 39.1266 81.1516 39.1547 81.6438C39.1828 82.1359 39.375 83.0453 40.3641 84.0063C41.3625 84.9766 42.8109 85.2437 44.1281 84.8875C45.4453 84.5312 46.4062 83.5422 46.2984 82.225C46.1906 80.9078 44.925 79.8906 44.925 79.8906L39.8953 80.875Z" fill="#CF701E"/>
<path d="M34.2094 88.1547C34.2094 88.1547 33.3844 88.3469 33.4688 88.8953C33.5531 89.4437 34.486 91.1734 35.9672 90.9812C37.4485 90.7891 39.7875 89.0875 39.7875 88.4266C39.7875 87.7656 38.6063 86.8891 38.6063 86.8891L34.2094 88.1547Z" fill="#CF701E"/>
<path d="M44.3156 95.0219C44.3156 95.0219 44.0109 96.7938 46.4015 97.4406C50.3859 98.5141 50.7984 96.0953 50.7984 96.0953L44.3156 95.0219Z" fill="#CF701E"/>
<path d="M59.9672 95.8422C59.9672 95.8422 58.8984 96.9109 60.1125 97.75C61.3265 98.5891 62.7094 98.875 64.0125 98.7297C65.3156 98.5844 66.2062 97.5438 66.2062 97.5438L59.9672 95.8422Z" fill="#CF701E"/>
<path d="M69.9422 83.9734C69.9422 83.9734 67.9266 84.9906 69.4875 86.7484C70.6734 88.0891 73.3875 87.8172 74.4984 87.0625C75.225 86.5703 75.4406 85.6984 75.1687 85.2578C74.8922 84.8172 69.9422 83.9734 69.9422 83.9734Z" fill="#CF701E"/>
<path d="M62.1422 72.3297C62.1422 72.3297 62.0344 74.6313 65.1375 74.5563C69.4781 74.4484 68.9297 71.7531 68.9297 71.7531L62.1422 72.3297Z" fill="#CF701E"/>
<path d="M64.1484 69.4469C64.1484 69.4469 62.1141 70.7125 61.8938 71.2328C61.6734 71.7531 61.2047 73.4031 63.5672 73.2953C65.9297 73.1875 68.2922 73.1031 69.0891 72.1422C69.8859 71.1813 69.6938 70.3 69.3656 69.5875C69.0375 68.875 67.1906 66.1797 65.7234 66.2125C64.7625 66.2313 64.1484 69.4469 64.1484 69.4469Z" fill="#593329"/>
<path d="M65.7141 66.2031C65.7141 66.2031 64.425 66.0391 63.2953 68.0453C62.1703 70.0516 61.8797 71.2469 61.8797 71.2469C61.8797 71.2469 64.1719 71.2563 65.5453 71.0922C66.9188 70.9281 67.8516 70.075 67.8516 70.075C67.8516 70.075 66.7313 66.4516 65.7141 66.2031Z" fill="#925849"/>
<path d="M50.1141 75.5734C50.1141 75.5734 48.9891 75.4984 48.9047 75.9344C48.8203 76.375 49.0687 77.4953 49.4531 77.9875C49.8375 78.4797 50.9906 79.5812 52.1437 79.3609C53.2969 79.1406 53.9812 78.0109 54.1734 77.6219C54.3469 77.2562 54.5344 76.8625 54.2062 76.3703C53.8734 75.8734 50.1141 75.5734 50.1141 75.5734Z" fill="#593329"/>
<path d="M51.7875 73.8156C50.8312 73.7125 48.525 75.5453 48.9375 76.1734C49.3969 76.8625 49.4766 76.4266 50.7422 77.0594C51.7875 77.5797 52.2422 78.0625 52.8984 77.9781C53.5547 77.8938 54.3375 76.8109 54.2016 76.3703C54.0656 75.9297 53.0812 73.9516 51.7875 73.8156Z" fill="#925849"/>
<path d="M40.9641 66.3953L38.7141 67.9516C38.7141 67.9516 38.6297 69.0062 39.0984 69.5828C39.5672 70.1594 39.7031 70.5156 41.9016 70.5156C44.1 70.5156 46.1578 70.2156 46.5422 68.65C46.9266 67.0844 46.2516 66.0812 45.8391 65.5047C45.4266 64.9281 40.9641 66.3953 40.9641 66.3953Z" fill="#593329"/>
<path d="M40.9922 63.9531C40.4859 64.1688 39.2906 65.7953 39.0141 66.5078C38.7375 67.2203 38.6766 67.9797 38.7141 67.9891C39.1687 68.1016 41.8453 68.35 43.0266 68.1578C44.2078 67.9656 45.1687 67.4453 45.5531 66.7563C45.8578 66.2078 45.8344 65.4813 45.8344 65.4813C45.8344 65.4813 45.0328 64.0375 43.9312 63.5969C42.8344 63.1563 41.1844 63.8688 40.9922 63.9531Z" fill="#925949"/>
<path d="M39.1078 80.9781C39.1078 80.9781 38.9203 81.2641 39.2766 81.8125C39.6328 82.3609 40.3312 83.0172 41.3766 83.3219C42.4219 83.6219 43.1625 84.0344 43.8469 83.9547C44.5359 83.8703 45.8813 83.3219 45.9328 81.4281C45.9891 79.5344 45.6047 78.6531 44.7797 77.8281C43.9547 77.0031 43.3594 77.1437 43.3594 77.1437L39.1078 80.9781Z" fill="#593329"/>
<path d="M39.3469 79.225C39.0563 79.7125 38.8406 81.2969 39.1969 81.6531C39.5531 82.0094 41.6953 82.0328 42.2578 81.9719C42.825 81.9109 44.6766 81.0391 44.7047 80.3781C44.7328 79.7172 44.3766 78.8406 44.3766 78.5125C44.3766 78.1844 44.7891 77.4156 43.6641 77.1391C42.5391 76.8625 39.9469 78.2078 39.3469 79.225Z" fill="#925849"/>
<path d="M35.6344 86.3406C35.6344 86.3406 33.8672 86.7766 33.7547 87.3813C33.6469 87.9859 33.9 88.5953 34.5047 89.1719C35.1094 89.7484 35.55 90.3531 36.0141 90.2969C36.4828 90.2406 37.7156 89.1438 38.1 88.7875C38.4844 88.4313 39.0328 87.7984 38.9812 87.2781C38.9297 86.7578 38.7047 86.2328 38.2125 85.8203C37.725 85.4078 35.6344 86.3406 35.6344 86.3406Z" fill="#593329"/>
<path d="M36.075 84.775C35.25 84.7938 34.6172 85.7922 34.3453 86.1484C34.0688 86.5047 33.6047 87.3578 33.7969 87.4938C33.9891 87.6297 34.7859 87.7141 35.1703 87.9625C35.5547 88.2109 36.1313 88.5953 36.5719 88.2391C37.0125 87.8828 37.3969 86.8937 37.6172 86.5656C37.8375 86.2375 38.2219 85.825 38.2219 85.825C38.2219 85.825 37.3922 84.7469 36.075 84.775Z" fill="#925849"/>
<path d="M46.1578 91.3937C45.9937 91.5859 43.6594 93.4797 43.6594 93.4797C43.6594 93.4797 43.7437 95.1297 44.2641 95.5141C44.7844 95.8984 46.4062 96.4469 47.4516 96.6672C48.4969 96.8875 50.3625 97.1359 50.8312 96.9438C51.3 96.7516 51.7922 95.7344 51.8203 94.4172C51.8484 93.1 51.3797 92.1156 50.8594 91.5109C50.3391 90.9062 49.9219 90.6813 49.9219 90.6813L46.1578 91.3937Z" fill="#593329"/>
<path d="M49.2609 93.8641C49.5656 93.5219 49.9219 90.6766 49.9219 90.6766C49.9219 90.6766 47.8078 89.0547 46.9266 88.9469C46.0453 88.8391 45.0047 88.9187 44.7 89.2469C44.4 89.575 43.2188 90.7562 43.3266 91.525C43.4344 92.2937 43.6547 93.475 43.6547 93.475C43.6547 93.475 48.6281 94.5812 49.2609 93.8641Z" fill="#925849"/>
<path d="M59.5078 95.2188C59.5078 95.2188 59.2406 97 61.2 97.3375C63.1594 97.6703 64.7859 98.1156 65.6344 97.9375C66.4828 97.7594 67.3266 96.625 67.4156 95.8C67.5047 94.975 67.5516 93.7844 67.4156 93.4609C67.0594 92.6031 65.4094 90.2547 64.6078 90.0063C64.1578 89.8703 63.7313 89.9453 63.7313 89.9453L59.5078 95.2188Z" fill="#593329"/>
<path d="M60.7781 92.0969C59.9016 93.0672 59.4516 94.4687 59.4984 95.2094C59.5453 95.9078 62.8688 95.6031 63.2625 95.3641C63.6563 95.125 64.5141 94.0562 64.5422 93.7C64.5703 93.3437 64.2984 92.2281 64.2516 91.5391C64.2047 90.85 64.1859 89.9125 63.8063 89.9359C63.4266 89.9594 62.025 90.7187 60.7781 92.0969Z" fill="#925849"/>
<path d="M72.0187 80.0031C72.0187 80.0031 72.7922 80.1156 73.7437 80.6875C74.8547 81.3531 76.0172 83.05 75.9281 84.4328C75.839 85.8156 74.6344 86.4391 73.1672 86.4625C71.7 86.4859 70.2656 86.4063 69.9984 85.6469C69.7312 84.8875 72.0187 80.0031 72.0187 80.0031Z" fill="#593329"/>
<path d="M70.8469 80.4672C70.6172 80.7859 70.0219 81.7609 69.8203 83.0078C69.6188 84.2547 69.7547 85.6797 70.2 85.9281C70.6453 86.1719 73.0969 84.0578 73.2281 83.8328C73.3641 83.6078 72.4453 80.2 72.1547 80.0453C71.8641 79.8906 71.1375 80.0687 70.8469 80.4672Z" fill="#925849"/>
<path d="M949 83.0625C949 85.8804 950.133 88.5829 952.149 90.5755C954.165 92.5681 956.899 93.6875 959.75 93.6875H1024.25C1027.1 93.6875 1029.84 92.5681 1031.85 90.5755C1033.87 88.5829 1035 85.8804 1035 83.0625H949Z" fill="#EAEAEA"/>
<path d="M1024.25 91.0312H959.75C957.372 91.027 955.064 90.2419 953.187 88.7994C951.31 87.357 949.972 85.3389 949.382 83.0625H949C949 85.8804 950.133 88.5829 952.149 90.5755C954.165 92.5681 956.899 93.6875 959.75 93.6875H1024.25C1027.1 93.6875 1029.84 92.5681 1031.85 90.5755C1033.87 88.5829 1035 85.8804 1035 83.0625H1034.62C1034.03 85.3389 1032.69 87.357 1030.81 88.7994C1028.94 90.2419 1026.63 91.027 1024.25 91.0312Z" fill="black"/>
<path d="M1029.62 80.4062V56.5C1029.62 55.091 1029.06 53.7398 1028.05 52.7435C1027.04 51.7472 1025.68 51.1875 1024.25 51.1875H959.75C958.324 51.1875 956.957 51.7472 955.949 52.7435C954.941 53.7398 954.375 55.091 954.375 56.5V80.4062H1029.62ZM1024.25 51.1875V27.2812C1024.25 25.8723 1023.68 24.521 1022.68 23.5247C1021.67 22.5285 1020.3 21.9688 1018.88 21.9688H965.125C963.699 21.9688 962.332 22.5285 961.324 23.5247C960.316 24.521 959.75 25.8723 959.75 27.2812V51.1875H1024.25Z" fill="#EACA44"/>
<path d="M954.375 77.75H1029.62V80.4062H954.375V77.75Z" fill="black"/>
<path d="M954.375 67.125H1029.62V72.4375H954.375V67.125ZM959.75 37.9062H1024.25V43.2188H959.75V37.9062Z" fill="#EAEAEA"/>
<path d="M978.562 16.6562C977.137 16.6562 975.77 17.216 974.762 18.2122C973.754 19.2085 973.188 20.5598 973.188 21.9688H983.938C983.938 20.5598 983.371 19.2085 982.363 18.2122C981.355 17.216 979.988 16.6562 978.562 16.6562ZM992 16.6562C990.574 16.6562 989.207 17.216 988.199 18.2122C987.191 19.2085 986.625 20.5598 986.625 21.9688H997.375C997.375 20.5598 996.809 19.2085 995.801 18.2122C994.793 17.216 993.426 16.6562 992 16.6562ZM1005.44 16.6562C1004.01 16.6562 1002.64 17.216 1001.64 18.2122C1000.63 19.2085 1000.06 20.5598 1000.06 21.9688H1010.81C1010.81 20.5598 1010.25 19.2085 1009.24 18.2122C1008.23 17.216 1006.86 16.6562 1005.44 16.6562Z" fill="#EF4D4D"/>
<path d="M1018.88 21.9688H965.125C963.699 21.9688 962.332 22.5285 961.324 23.5247C960.316 24.521 959.75 25.8723 959.75 27.2812V32.9337L960.594 33.5128C960.594 33.5128 961.513 34.153 962.438 34.153C963.362 34.153 964.281 33.5128 964.281 33.5128L969.156 30.1686C969.721 29.8631 969.976 29.8578 970.5 30.1686L975.375 33.5128C975.375 33.5128 976.294 34.153 977.219 34.153C978.143 34.153 979.062 33.5128 979.062 33.5128L983.938 30.1686C984.502 29.8631 984.757 29.8578 985.281 30.1686L990.156 33.5128C990.156 33.5128 991.075 34.153 992 34.153C992.925 34.153 993.844 33.5128 993.844 33.5128L998.719 30.1686C999.283 29.8631 999.538 29.8578 1000.06 30.1686L1004.94 33.5128C1004.94 33.5128 1005.86 34.153 1006.78 34.153C1007.71 34.153 1008.62 33.5128 1008.62 33.5128L1013.5 30.1686C1014.06 29.8631 1014.32 29.8578 1014.84 30.1686L1019.72 33.5128C1019.72 33.5128 1020.64 34.153 1021.56 34.153C1022.49 34.153 1023.41 33.5128 1023.41 33.5128L1024.25 32.9337V27.2812C1024.25 25.8723 1023.68 24.521 1022.68 23.5247C1021.67 22.5285 1020.3 21.9688 1018.88 21.9688ZM954.375 56.5V61.693C954.611 61.7677 954.856 61.808 955.103 61.8125C956.028 61.8125 956.947 61.1723 956.947 61.1723L961.822 57.8281C962.386 57.5227 962.642 57.5173 963.166 57.8281L968.041 61.1723C968.041 61.1723 968.96 61.8125 969.885 61.8125C970.809 61.8125 971.728 61.1723 971.728 61.1723L976.603 57.8281C977.168 57.5227 977.423 57.5173 977.947 57.8281L982.822 61.1723C982.822 61.1723 983.741 61.8125 984.666 61.8125C985.59 61.8125 986.509 61.1723 986.509 61.1723L991.385 57.8281C991.949 57.5227 992.204 57.5173 992.728 57.8281L997.603 61.1723C997.603 61.1723 998.523 61.8125 999.447 61.8125C1000.37 61.8125 1001.29 61.1723 1001.29 61.1723L1006.17 57.8281C1006.73 57.5227 1006.99 57.5173 1007.51 57.8281L1012.38 61.1723C1012.38 61.1723 1013.3 61.8125 1014.23 61.8125C1015.15 61.8125 1016.07 61.1723 1016.07 61.1723L1020.95 57.8281C1021.15 57.7022 1021.37 57.6257 1021.61 57.605C1021.84 57.6203 1022.06 57.6975 1022.25 57.8281L1027.12 61.1723C1027.12 61.1723 1028.04 61.8125 1028.97 61.8125C1029.19 61.8083 1029.41 61.7753 1029.62 61.7142V56.5C1029.62 55.091 1029.06 53.7398 1028.05 52.7435C1027.04 51.7472 1025.68 51.1875 1024.25 51.1875H959.75C958.324 51.1875 956.957 51.7472 955.949 52.7435C954.941 53.7398 954.375 55.091 954.375 56.5Z" fill="#4F3923"/>
<g clip-path="url(#clip1_23_399)">
<path d="M970.134 117.256C969.365 116.487 968.322 116.055 967.234 116.055C966.147 116.055 965.104 116.487 964.334 117.256L963.822 117.769L956.655 110.598V99.8335L966.057 102.293C966.599 102.436 967.165 102.469 967.721 102.393C968.277 102.316 968.812 102.131 969.297 101.848C969.781 101.564 970.205 101.188 970.544 100.741C970.883 100.294 971.13 99.7846 971.272 99.2417C971.56 98.1462 971.4 96.9815 970.829 96.0035C970.258 95.0255 969.322 94.3142 968.227 94.026L954.459 90.4239V89.7256C956.477 88.4378 958.022 86.5304 958.864 84.2897C959.706 82.049 959.798 79.5958 959.127 77.2982C958.456 75.0006 957.058 72.9824 955.143 71.5466C953.228 70.1107 950.899 69.3346 948.506 69.3346C946.112 69.3346 943.783 70.1107 941.868 71.5466C939.953 72.9824 938.556 75.0006 937.885 77.2982C937.214 79.5958 937.306 82.049 938.148 84.2897C938.989 86.5304 940.535 88.4378 942.552 89.7256V90.4239L928.773 94.026C928.23 94.1679 927.721 94.4153 927.273 94.7542C926.826 95.0932 926.45 95.5169 926.166 96.0012C925.882 96.4856 925.697 97.0211 925.621 97.5771C925.544 98.1331 925.578 98.6987 925.72 99.2417C925.862 99.7854 926.11 100.296 926.449 100.744C926.789 101.191 927.213 101.568 927.698 101.851C928.184 102.135 928.72 102.32 929.277 102.396C929.834 102.471 930.4 102.437 930.943 102.293L940.347 99.8335V110.598L933.18 117.769L932.667 117.256C932.287 116.875 931.835 116.573 931.337 116.367C930.84 116.161 930.307 116.055 929.769 116.055C929.23 116.055 928.697 116.161 928.2 116.367C927.702 116.573 927.25 116.875 926.87 117.256C926.489 117.637 926.187 118.089 925.981 118.586C925.775 119.083 925.669 119.616 925.669 120.155C925.669 120.693 925.775 121.226 925.981 121.724C926.187 122.221 926.489 122.673 926.87 123.054L930.281 126.464C930.661 126.845 931.113 127.148 931.61 127.354C932.108 127.56 932.641 127.666 933.179 127.666C933.718 127.666 934.251 127.56 934.748 127.354C935.246 127.148 935.698 126.845 936.078 126.464L948.06 114.479H948.94L960.928 126.464C961.308 126.845 961.76 127.148 962.258 127.354C962.755 127.56 963.288 127.666 963.827 127.666C964.365 127.666 964.898 127.56 965.396 127.354C965.893 127.148 966.345 126.845 966.725 126.464L970.136 123.054C970.517 122.673 970.819 122.221 971.025 121.724C971.231 121.226 971.337 120.693 971.337 120.155C971.337 119.616 971.231 119.083 971.025 118.586C970.819 118.089 970.517 117.637 970.136 117.256H970.134Z" fill="#FEE1A1" stroke="#493527" stroke-width="1.17188" stroke-linejoin="round"/>
<path d="M948.5 111.553C949.762 111.553 950.784 110.53 950.784 109.269C950.784 108.007 949.762 106.984 948.5 106.984C947.238 106.984 946.216 108.007 946.216 109.269C946.216 110.53 947.238 111.553 948.5 111.553Z" fill="#EA504C" stroke="#493527" stroke-width="1.17188" stroke-linejoin="round"/>
<path d="M948.5 103.903C949.762 103.903 950.784 102.88 950.784 101.619C950.784 100.357 949.762 99.3344 948.5 99.3344C947.238 99.3344 946.216 100.357 946.216 101.619C946.216 102.88 947.238 103.903 948.5 103.903Z" fill="#EA504C" stroke="#493527" stroke-width="1.17188" stroke-linejoin="round"/>
<path d="M950.883 91.4852L948.78 92.7004C948.679 92.7585 948.564 92.7891 948.447 92.7891C948.33 92.7891 948.215 92.7585 948.113 92.7004L946.011 91.4852C945.909 91.4266 945.794 91.3958 945.677 91.3959C945.559 91.396 945.444 91.427 945.343 91.4859C945.241 91.5447 945.157 91.6292 945.099 91.7309C945.04 91.8326 945.01 91.9479 945.01 92.0652V96.2216C945.01 96.3388 945.04 96.4541 945.099 96.5559C945.157 96.6576 945.241 96.7421 945.343 96.8009C945.444 96.8597 945.559 96.8908 945.677 96.8909C945.794 96.891 945.909 96.8602 946.011 96.8015L948.105 95.5884C948.207 95.5293 948.322 95.4981 948.439 95.4981C948.556 95.4981 948.671 95.5293 948.772 95.5884L950.875 96.8015C950.977 96.86 951.092 96.8907 951.209 96.8906C951.327 96.8904 951.442 96.8594 951.543 96.8006C951.645 96.7419 951.729 96.6574 951.788 96.5558C951.846 96.4542 951.877 96.3389 951.877 96.2216V92.0652C951.876 91.949 951.845 91.8351 951.787 91.7345C951.729 91.634 951.646 91.5503 951.545 91.4918C951.445 91.4332 951.331 91.4018 951.215 91.4007C951.099 91.3996 950.984 91.4287 950.883 91.4852Z" fill="#493527"/>
<path d="M952.341 80.5212C953.396 80.5212 954.252 79.6654 954.252 78.6097C954.252 77.554 953.396 76.6982 952.341 76.6982C951.285 76.6982 950.429 77.554 950.429 78.6097C950.429 79.6654 951.285 80.5212 952.341 80.5212Z" fill="#493527"/>
<path d="M944.659 80.5212C945.715 80.5212 946.571 79.6654 946.571 78.6097C946.571 77.554 945.715 76.6982 944.659 76.6982C943.604 76.6982 942.748 77.554 942.748 78.6097C942.748 79.6654 943.604 80.5212 944.659 80.5212Z" fill="#493527"/>
<path d="M952.021 83.6893C951.736 84.3622 951.26 84.9363 950.651 85.3399C950.042 85.7435 949.327 85.9588 948.597 85.9588C947.866 85.9588 947.152 85.7435 946.543 85.3399C945.933 84.9363 945.457 84.3622 945.172 83.6893" stroke="#493527" stroke-width="1.17188" stroke-linecap="round" stroke-linejoin="round"/>
</g>
<g clip-path="url(#clip2_23_399)">
<path d="M1011.17 83.672C1012.03 83.1464 1013 82.8397 1013.99 82.779C1014.99 82.7183 1015.99 82.9055 1016.9 83.3241L1043.2 103.011C1043.54 103.375 1043.79 103.808 1043.94 104.28C1044.09 104.751 1044.14 105.25 1044.08 105.742C1044.03 106.234 1043.86 106.708 1043.6 107.13C1043.34 107.552 1042.99 107.913 1042.58 108.187L1021.62 122.13C1021.21 122.405 1020.74 122.586 1020.25 122.663C1019.76 122.739 1019.26 122.708 1018.78 122.572C1018.31 122.437 1017.86 122.199 1017.49 121.876C1017.11 121.553 1016.81 121.152 1016.61 120.701L1008.61 88.8402C1008.54 87.829 1008.74 86.8173 1009.19 85.9091C1009.64 85.0008 1010.33 84.2287 1011.17 83.672Z" fill="#F9CB99"/>
<path d="M1022.93 81.2326L1018.26 84.3394L1042.17 102.235L1047.79 94.8684C1049.31 92.4256 1050.09 90.2163 1047.99 88.6141L1030.53 79.7204C1029.24 79.2511 1027.86 79.144 1026.52 79.4107C1025.18 79.6775 1023.94 80.3078 1022.93 81.2326Z" fill="#F9CB99"/>
<path d="M1047.69 88.4512L1031.02 79.9726C1031.02 79.9726 1037.49 65.7506 1043.36 68.0175C1049.22 70.2844 1047.69 88.4512 1047.69 88.4512Z" fill="#F9CB99"/>
<path d="M1004.46 94.025L1009.13 90.9182L1016.39 119.885L1007.43 122.22C1004.59 122.679 1002.25 122.543 1001.58 119.99L1000.13 100.446C1000.19 99.0815 1000.63 97.7606 1001.39 96.628C1002.16 95.4954 1003.22 94.5949 1004.46 94.025Z" fill="#F9CB99"/>
<path d="M1001.58 119.984L1000.21 101.327C1000.21 101.327 984.59 101.803 984.424 108.084C984.259 114.365 1001.58 119.984 1001.58 119.984Z" fill="#F9CB99"/>
<g opacity="0.35">
<path d="M1043.13 87.1378C1045.23 88.7407 1044.43 91.4489 1042.91 93.8916L1038.59 99.5569L1042.17 102.243L1047.79 94.8762C1049.31 92.4334 1050.09 90.2241 1048 88.6219L1043.13 87.1378Z" fill="white"/>
</g>
<g opacity="0.35">
<path d="M1042.91 86.0169L1047.69 88.4512C1047.69 88.4512 1049.22 70.2877 1043.36 68.0175C1042.82 67.8258 1042.25 67.749 1041.69 67.792C1041.12 67.8351 1040.57 67.9969 1040.07 68.2671C1043.27 72.0487 1043.1 82.2375 1042.91 86.0169Z" fill="white"/>
</g>
<g opacity="0.35">
<path d="M1038.59 99.5569L1039.4 101.505C1040.83 103.053 1039.45 106.033 1037.7 107.2L1016.83 121.081C1017.07 121.469 1017.39 121.804 1017.76 122.067C1018.13 122.33 1018.56 122.516 1019 122.613C1019.45 122.71 1019.91 122.717 1020.36 122.633C1020.81 122.549 1021.23 122.376 1021.61 122.124L1042.58 108.181C1042.99 107.907 1043.34 107.546 1043.6 107.124C1043.86 106.702 1044.02 106.228 1044.08 105.736C1044.14 105.244 1044.09 104.745 1043.94 104.274C1043.79 103.802 1043.53 103.369 1043.2 103.005L1038.59 99.5569Z" fill="white"/>
</g>
<path d="M1010.52 82.6957C1011.54 82.0567 1012.71 81.6826 1013.91 81.607C1015.11 81.5315 1016.31 81.757 1017.41 82.2631L1043.9 102.067C1044.39 102.559 1044.77 103.158 1045.01 103.819C1045.24 104.479 1045.32 105.183 1045.24 105.879C1045.17 106.54 1044.94 107.175 1044.6 107.741C1044.25 108.307 1043.78 108.791 1043.23 109.159L1022.26 123.102C1021.71 123.47 1021.08 123.714 1020.43 123.816C1019.77 123.918 1019.1 123.877 1018.46 123.695C1017.82 123.512 1017.22 123.193 1016.72 122.76C1016.21 122.326 1015.81 121.789 1015.53 121.184L1007.47 89.124C1007.35 87.8764 1007.57 86.6187 1008.11 85.486C1008.64 84.3533 1009.48 83.3886 1010.52 82.6957ZM1041.93 107.207C1042.2 107.026 1042.43 106.788 1042.6 106.51C1042.77 106.232 1042.88 105.921 1042.92 105.597C1042.95 105.273 1042.92 104.945 1042.82 104.634C1042.72 104.324 1042.55 104.04 1042.33 103.8L1016.2 84.2619C1015.49 83.9846 1014.73 83.8747 1013.97 83.9407C1013.21 84.0067 1012.47 84.2468 1011.82 84.6424C1011.16 85.0769 1010.62 85.6753 1010.26 86.3792C1009.9 87.083 1009.73 87.8683 1009.77 88.658L1017.73 120.405C1018.04 120.909 1018.53 121.276 1019.1 121.433C1019.41 121.523 1019.74 121.544 1020.06 121.494C1020.38 121.444 1020.69 121.325 1020.96 121.144L1041.93 107.207Z" fill="#282B24"/>
<path d="M1023.12 79.6848C1024.23 78.8595 1025.52 78.3288 1026.88 78.1428C1028.25 77.9568 1029.64 78.1215 1030.92 78.6216L1048.53 87.5713C1052.05 90.2424 1049.68 94.0566 1048.79 95.4938L1043.1 102.949C1042.92 103.195 1042.64 103.356 1042.33 103.399C1042.03 103.442 1041.72 103.362 1041.47 103.177L1017.56 85.2799C1017.41 85.1676 1017.29 85.0209 1017.21 84.8521C1017.13 84.6832 1017.09 84.4971 1017.09 84.3095C1017.1 84.1219 1017.15 83.9382 1017.24 83.7739C1017.33 83.6095 1017.46 83.4693 1017.61 83.3651L1022.28 80.2583L1022.67 79.9985C1022.81 79.8978 1022.97 79.7874 1023.12 79.6848ZM1041.94 100.602L1046.86 94.1643C1048.59 91.3757 1048.33 90.3517 1047.28 89.5506L1030 80.7703C1028.99 80.3979 1027.89 80.3086 1026.84 80.5118C1025.78 80.7149 1024.8 81.203 1024 81.9232L1023.58 82.2011L1020.3 84.3884L1041.94 100.602Z" fill="#282B24"/>
<path d="M1038.52 67.8109C1039.25 67.2366 1040.12 66.8547 1041.04 66.7001C1041.96 66.5454 1042.9 66.6228 1043.78 66.9252C1050.28 69.4393 1049.03 86.5995 1048.87 88.5467C1048.85 88.7382 1048.79 88.9227 1048.68 89.0841C1048.58 89.2454 1048.44 89.3786 1048.27 89.472C1048.1 89.5654 1047.91 89.616 1047.72 89.6195C1047.53 89.623 1047.34 89.5792 1047.17 89.492L1030.49 81.0141C1030.22 80.8768 1030.02 80.6409 1029.92 80.3555C1029.82 80.0702 1029.83 79.7574 1029.96 79.4824C1030.46 78.3512 1034.03 70.7995 1038.52 67.8109ZM1046.64 86.6022C1046.98 79.883 1046.3 70.4167 1042.94 69.1117C1039.33 67.718 1034.56 75.4799 1032.57 79.4448L1046.64 86.6022Z" fill="#282B24"/>
<path d="M1002.96 93.5962C1003.12 93.491 1003.27 93.391 1003.42 93.2962L1008.47 89.9321C1008.63 89.8283 1008.81 89.7635 1008.99 89.7432C1009.18 89.7228 1009.37 89.7475 1009.54 89.8152C1009.72 89.8828 1009.88 89.9915 1010 90.132C1010.12 90.2725 1010.21 90.4408 1010.26 90.6228L1017.52 119.591C1017.6 119.89 1017.55 120.207 1017.39 120.472C1017.24 120.738 1016.98 120.93 1016.68 121.009L1007.72 123.344C1005.94 123.636 1001.51 124.355 1000.44 120.275L998.956 100.522C998.976 99.1208 999.355 97.7484 1000.06 96.5359C1000.76 95.3233 1001.76 94.3112 1002.96 93.5962ZM1008.4 92.8141L1004.69 95.2819C1003.69 95.757 1002.85 96.4981 1002.25 97.4228C1001.65 98.3476 1001.32 99.4199 1001.3 100.521L1002.75 119.912C1003.05 120.98 1003.9 121.613 1007.24 121.073L1014.97 119.039L1008.4 92.8141Z" fill="#282B24"/>
<path d="M986.101 103.541C990.592 100.553 998.931 100.189 1000.18 100.151C1000.48 100.141 1000.78 100.249 1001 100.451C1001.23 100.653 1001.37 100.934 1001.39 101.236L1002.76 119.895C1002.78 120.088 1002.74 120.281 1002.66 120.457C1002.58 120.634 1002.46 120.788 1002.31 120.906C1002.16 121.023 1001.98 121.101 1001.79 121.135C1001.6 121.168 1001.41 121.156 1001.23 121.1C999.364 120.499 983.051 115.016 983.25 108.05C983.312 107.121 983.605 106.221 984.103 105.434C984.601 104.646 985.287 103.995 986.101 103.541ZM999.131 102.551C994.705 102.854 985.704 104.261 985.593 108.117C985.495 111.729 993.963 116.016 1000.29 118.297L999.131 102.551Z" fill="#282B24"/>
</g>
<defs>
<radialGradient id="paint0_radial_23_399" cx="0" cy="0" r="1" gradientUnits="userSpaceOnUse" gradientTransform="translate(147.077 99.5482) scale(24.9384 24.5228)">
<stop offset="0.507" stop-color="#F29F58"/>
<stop offset="0.715" stop-color="#F09D56"/>
<stop offset="0.826" stop-color="#EB9550"/>
<stop offset="0.914" stop-color="#E18745"/>
<stop offset="0.99" stop-color="#D47436"/>
<stop offset="1" stop-color="#D27133"/>
</radialGradient>
<radialGradient id="paint1_radial_23_399" cx="0" cy="0" r="1" gradientUnits="userSpaceOnUse" gradientTransform="translate(54.0769 81.9981) scale(24.9384 24.9384)">
<stop offset="0.507" stop-color="#F29F58"/>
<stop offset="0.715" stop-color="#F09D56"/>
<stop offset="0.826" stop-color="#EB9550"/>
<stop offset="0.914" stop-color="#E18745"/>
<stop offset="0.99" stop-color="#D47436"/>
<stop offset="1" stop-color="#D27133"/>
</radialGradient>
<clipPath id="clip0_23_399">
<rect width="94" height="93" fill="white" transform="translate(65 10)"/>
</clipPath>
<clipPath id="clip1_23_399">
<rect width="71" height="63" fill="white" transform="translate(913 69)"/>
</clipPath>
<clipPath id="clip2_23_399">
<rect width="73.1114" height="64.8556" fill="white" transform="translate(1067.87 101.508) rotate(146.369)"/>
</clipPath>
</defs>
</svg>
