<svg width="61" height="61" viewBox="0 0 61 61" fill="none" xmlns="http://www.w3.org/2000/svg">
<g clip-path="url(#clip0_22_20)">
<path d="M35.9709 59.8576C35.9725 58.3106 35.9709 55.7593 35.9709 54.0276C34.2346 54.0318 24.5789 54.0543 20.6614 54.0543C20.6614 55.7473 20.6593 58.3459 20.6628 59.8655L35.9709 59.8576Z" fill="white"/>
<path d="M23.7326 50.7019C23.7326 50.5199 23.7326 50.3432 23.7326 50.1732H32.9002C32.9002 51.234 32.9002 52.5518 32.9002 53.8435V54.0345C30.2931 54.0404 26.6383 54.0479 23.7326 54.0519C23.7326 53.9182 23.7326 53.8397 23.7326 53.8397C23.7328 52.7541 23.7333 51.6524 23.7326 50.7019Z" fill="white"/>
<path d="M45.806 15.3663C46.1755 15.3186 46.5391 15.2327 46.8909 15.11C47.2256 14.9742 47.501 14.7237 47.668 14.4034C47.8249 14.0446 47.9096 13.6584 47.9174 13.267C47.9324 13.6583 48.0192 14.0435 48.1736 14.4034C48.3406 14.7236 48.616 14.9741 48.9507 15.11C49.2913 15.2349 49.645 15.3209 50.005 15.3663C49.6451 15.4124 49.2915 15.4984 48.9507 15.6226C48.6161 15.7586 48.3407 16.0091 48.1736 16.3293C48.0168 16.6881 47.9321 17.0742 47.9243 17.4657C47.9093 17.0744 47.8224 16.6892 47.668 16.3293C47.501 16.009 47.2255 15.7586 46.8909 15.6226C46.5394 15.4989 46.1757 15.413 45.806 15.3663Z" fill="white"/>
<path d="M3.39846 25.3594C3.95234 25.2601 4.7163 25.1545 5.28737 24.913C5.87019 24.6764 6.34983 24.2401 6.64054 23.6823C6.96103 23.0346 7.00992 22.425 7.07486 21.7036C7.15928 22.4349 7.20034 23.0346 7.52101 23.6823C7.81173 24.2401 8.29137 24.6764 8.87419 24.913C9.46732 25.1306 10.0832 25.2804 10.71 25.3594C10.0834 25.4397 9.46769 25.5894 8.87419 25.8057C8.29137 26.0424 7.81173 26.4787 7.52101 27.0365C7.20034 27.6841 7.15164 28.2938 7.0867 29.0152C7.00228 28.2839 6.96103 27.6841 6.64054 27.0365C6.34983 26.4787 5.87019 26.0424 5.28737 25.8057C4.71497 25.5643 3.94279 25.4528 3.39846 25.3594Z" fill="white"/>
<path d="M54.8779 42.384C54.8783 42.3873 54.8799 42.3903 54.8824 42.3925C54.8849 42.3947 54.8881 42.396 54.8914 42.396C54.8947 42.396 54.8979 42.3947 54.9004 42.3925C54.9029 42.3903 54.9045 42.3873 54.9049 42.384C54.9607 41.4942 55.2135 40.7061 55.8894 40.0997C56.4911 39.5795 57.2346 39.2511 58.0243 39.1568C58.0291 39.1568 58.0336 39.1549 58.0369 39.1516C58.0402 39.1483 58.0421 39.1438 58.0421 39.1391C58.0421 39.1343 58.0402 39.1298 58.0369 39.1265C58.0336 39.1232 58.0291 39.1213 58.0243 39.1213C57.2346 39.0263 56.4913 38.6977 55.8894 38.1776C55.2135 37.5714 54.9752 36.7958 54.9081 35.897C54.9077 35.8937 54.9061 35.8906 54.9037 35.8884C54.9012 35.8862 54.898 35.885 54.8947 35.885C54.8913 35.885 54.8881 35.8862 54.8857 35.8884C54.8832 35.8906 54.8816 35.8937 54.8812 35.897C54.8239 36.7958 54.5729 37.5712 53.897 38.1774C53.2952 38.6975 52.5518 39.0261 51.7621 39.1211C51.7574 39.1211 51.7529 39.123 51.7496 39.1263C51.7462 39.1296 51.7444 39.1342 51.7444 39.1389C51.7444 39.1436 51.7462 39.1481 51.7496 39.1514C51.7529 39.1548 51.7574 39.1566 51.7621 39.1566C52.5519 39.2509 53.2954 39.5793 53.897 40.0995C54.5729 40.7056 54.8092 41.4959 54.8779 42.384Z" fill="white"/>
<path d="M43.4922 13.9564C43.4926 13.9597 43.4942 13.9628 43.4966 13.965C43.4991 13.9672 43.5023 13.9684 43.5056 13.9684C43.509 13.9684 43.5122 13.9672 43.5146 13.965C43.5171 13.9628 43.5187 13.9597 43.5191 13.9564C43.5751 13.0666 43.8279 12.2786 44.5039 11.6722C45.1055 11.1518 45.8491 10.8234 46.639 10.7291C46.6437 10.7291 46.6482 10.7272 46.6515 10.7239C46.6548 10.7205 46.6567 10.716 46.6567 10.7113C46.6567 10.7066 46.6548 10.7021 46.6515 10.6987C46.6482 10.6954 46.6437 10.6935 46.639 10.6935C45.8492 10.5986 45.1058 10.27 44.5041 9.74984C43.8281 9.14364 43.5896 8.36802 43.5225 7.46921C43.5222 7.46592 43.5206 7.46288 43.5181 7.46068C43.5156 7.45848 43.5124 7.45726 43.5091 7.45726C43.5058 7.45726 43.5026 7.45848 43.5001 7.46068C43.4976 7.46288 43.496 7.46592 43.4956 7.46921C43.4383 8.36802 43.1875 9.14345 42.5116 9.74965C41.9099 10.2698 41.1665 10.5984 40.3767 10.6933C40.372 10.6933 40.3675 10.6952 40.3642 10.6985C40.3608 10.7019 40.359 10.7064 40.359 10.7111C40.359 10.7158 40.3608 10.7203 40.3642 10.7237C40.3675 10.727 40.372 10.7289 40.3767 10.7289C41.1665 10.8232 41.91 11.1516 42.5116 11.6718C43.1874 12.2782 43.4236 13.0691 43.4922 13.9564Z" fill="white"/>
<path d="M32.5172 49.1508V53.8435C32.5172 54.3351 33.2812 54.3359 33.2812 53.8435V49.1508C33.2812 48.6592 32.5172 48.6585 32.5172 49.1508Z" fill="#211715"/>
<path d="M24.1136 53.8397C24.1154 52.2768 24.116 50.7139 24.1155 49.1508C24.1155 48.6592 23.3515 48.6585 23.3515 49.1508C23.3515 50.7136 23.3509 52.2766 23.3496 53.8397C23.3496 54.3313 24.1136 54.332 24.1136 53.8397Z" fill="#211715"/>
<path d="M36.3529 59.8576C36.3548 57.9142 36.3548 55.9709 36.3529 54.0276C36.3514 53.9268 36.3107 53.8305 36.2394 53.7591C36.1681 53.6878 36.0718 53.6471 35.9709 53.6456L31.1388 53.6565C28.7396 53.6615 26.3403 53.6658 23.9409 53.6695C22.8476 53.671 21.7542 53.672 20.6609 53.6724C20.56 53.6737 20.4636 53.7144 20.3923 53.7858C20.3209 53.8571 20.2803 53.9535 20.2789 54.0543C20.2789 55.9914 20.276 57.9284 20.2802 59.8655C20.2802 60.3569 21.0442 60.3578 21.0442 59.8655C21.04 57.9284 21.0442 55.9914 21.0428 54.0543L20.6609 54.4363C22.79 54.4363 24.9193 54.4337 27.0488 54.4285C29.304 54.4246 31.5592 54.4199 33.8144 54.4146L35.9704 54.4096L35.5884 54.0276C35.5884 55.9709 35.5884 57.9142 35.5884 59.8576C35.5884 60.3492 36.3523 60.35 36.3523 59.8576H36.3529Z" fill="#211715"/>
<path d="M35.3846 20.1533C36.8107 20.1503 38.725 20.1457 39.5952 20.1434C39.6391 20.1434 39.6821 20.1313 39.7196 20.1084C39.757 20.0855 39.7874 20.0527 39.8073 20.0136C39.8272 19.9745 39.836 19.9306 39.8326 19.8869C39.8291 19.8431 39.8137 19.8011 39.7879 19.7656C37.0288 15.9565 31.7699 8.81532 28.5079 4.47675C28.4859 4.44712 28.4572 4.42305 28.4242 4.40647C28.3912 4.38989 28.3547 4.38126 28.3178 4.38126C28.2809 4.38126 28.2444 4.38989 28.2114 4.40647C28.1784 4.42305 28.1497 4.44712 28.1277 4.47675C24.4316 9.41102 18.9643 16.8415 16.8469 19.7656C16.8212 19.8011 16.8057 19.8431 16.8023 19.8869C16.7988 19.9306 16.8076 19.9745 16.8275 20.0136C16.8475 20.0527 16.8778 20.0855 16.9153 20.1084C16.9527 20.1313 16.9958 20.1434 17.0396 20.1434C17.9094 20.1457 19.8235 20.1503 21.2495 20.1533C21.2934 20.1532 21.3364 20.1652 21.3739 20.188C21.4114 20.2109 21.4418 20.2436 21.4619 20.2826C21.4819 20.3217 21.4908 20.3655 21.4875 20.4092C21.4842 20.453 21.4688 20.495 21.4432 20.5305C19.9467 22.6043 12.7183 32.6203 11.2201 34.6964C11.1944 34.7319 11.179 34.7739 11.1757 34.8176C11.1723 34.8614 11.1811 34.9052 11.2011 34.9443C11.2211 34.9833 11.2516 35.0161 11.289 35.0389C11.3265 35.0617 11.3695 35.0737 11.4134 35.0736C12.5038 35.0749 14.4017 35.082 16.2006 35.0862C16.2449 35.0864 16.2882 35.0989 16.3258 35.1222C16.3634 35.1456 16.3937 35.179 16.4134 35.2186C16.4331 35.2582 16.4414 35.3026 16.4374 35.3466C16.4334 35.3907 16.4172 35.4328 16.3907 35.4682C14.8887 37.4555 9.03042 45.2494 5.63191 49.7912C5.60509 49.8266 5.5887 49.8688 5.5846 49.9131C5.58051 49.9573 5.58886 50.0018 5.60873 50.0415C5.6286 50.0813 5.65919 50.1147 5.69703 50.1379C5.73488 50.1612 5.77848 50.1734 5.82291 50.1732H50.8098C50.8543 50.1736 50.898 50.1614 50.9359 50.1382C50.9739 50.115 51.0045 50.0816 51.0244 50.0418C51.0443 50.002 51.0527 49.9574 51.0485 49.9131C51.0443 49.8688 51.0278 49.8266 51.0008 49.7912C47.6873 45.3999 41.6384 37.3185 40.2442 35.4669C40.2173 35.4314 40.201 35.3892 40.1969 35.345C40.1928 35.3008 40.2011 35.2563 40.221 35.2165C40.2409 35.1768 40.2714 35.1434 40.3093 35.1201C40.3471 35.0969 40.3907 35.0847 40.4352 35.0849C42.2314 35.0807 44.1263 35.0736 45.2174 35.0723C45.2614 35.0723 45.3046 35.0602 45.3422 35.0372C45.3797 35.0142 45.4101 34.9812 45.43 34.9419C45.45 34.9026 45.4586 34.8586 45.455 34.8147C45.4513 34.7708 45.4356 34.7288 45.4095 34.6933C43.3776 31.9196 36.6711 22.5845 35.1915 20.5292C35.1663 20.4937 35.1513 20.4519 35.1482 20.4084C35.1451 20.3649 35.154 20.3214 35.174 20.2827C35.1939 20.2439 35.224 20.2114 35.2612 20.1885C35.2983 20.1657 35.341 20.1536 35.3846 20.1533Z" fill="#74C66D"/>
<path d="M25.331 7.59278C22.8259 10.9656 20.3333 14.3474 17.8531 17.7383C17.4329 18.314 17.013 18.8905 16.5935 19.4677C16.5226 19.5487 16.4717 19.6453 16.4452 19.7496C16.4186 19.854 16.4171 19.9631 16.4407 20.0682C16.4748 20.1895 16.545 20.2976 16.6419 20.3781C16.7388 20.4587 16.858 20.5078 16.9835 20.5191C17.3529 20.5558 17.7385 20.5271 18.1103 20.5281L21.1089 20.5349C21.156 20.5397 21.2035 20.5397 21.2506 20.5349C21.0531 20.6942 21.1204 20.3352 21.1145 20.3373C21.0954 20.344 21.0669 20.4032 21.0539 20.4213L20.9089 20.622L20.5797 21.0785L16.0035 27.4194L11.435 33.7489L11.1034 34.2082C10.9747 34.3868 10.8082 34.5658 10.7959 34.7963C10.7892 34.9136 10.8155 35.0304 10.8719 35.1335C10.9283 35.2366 11.0125 35.3218 11.1149 35.3794C11.3219 35.4573 11.5448 35.4836 11.7643 35.4558C12.2468 35.4567 12.7295 35.4579 13.2124 35.4594L14.937 35.4646L15.795 35.4669C15.9298 35.4828 16.0661 35.4828 16.201 35.4669C16.1376 35.558 16.0148 35.286 16.0538 35.2847C16.0434 35.2847 16.0073 35.3462 16.0003 35.3555C15.7264 35.718 15.4526 36.0809 15.179 36.4442C13.236 39.0233 11.2958 41.6044 9.35835 44.1873C8.29746 45.6007 7.23707 47.0146 6.17719 48.4291C5.94138 48.7441 5.70583 49.0591 5.47053 49.3741C5.32403 49.5207 5.23032 49.7117 5.20409 49.9173C5.20122 50.0475 5.2393 50.1754 5.31297 50.2829C5.38665 50.3903 5.49219 50.472 5.61472 50.5162C5.86046 50.5668 6.11246 50.5797 6.36207 50.5544H50.5824C50.7289 50.5654 50.8763 50.5525 51.0188 50.5162C51.1294 50.4772 51.2265 50.4071 51.2984 50.3144C51.3703 50.2217 51.414 50.1102 51.4242 49.9933C51.4458 49.7406 51.3148 49.5775 51.1719 49.3882C49.121 46.6698 47.0752 43.9475 45.0346 41.2212C44.098 39.9724 43.1614 38.7235 42.2248 37.4746C41.881 37.0162 41.5372 36.5578 41.1934 36.0994L40.8013 35.5774L40.6428 35.3674C40.6328 35.3542 40.5925 35.2839 40.5803 35.2843C40.6437 35.2831 40.4602 35.5641 40.4348 35.4688C40.5247 35.4742 40.6149 35.4742 40.7048 35.4688C41.842 35.466 42.9792 35.4627 44.1165 35.459L44.7397 35.4575C44.9686 35.4805 45.1997 35.4676 45.4246 35.4193C45.8895 35.2615 45.9124 34.7407 45.6609 34.3971C45.0017 33.4956 44.346 32.5916 43.6937 31.685C41.8999 29.2041 40.1098 26.7205 38.3236 24.2343L36.1799 21.2548L35.8048 20.7332L35.6562 20.5264C35.6266 20.4855 35.5662 20.3592 35.5225 20.3398L35.524 20.4331C35.3559 20.5168 35.3335 20.5514 35.4568 20.537C35.5044 20.5419 35.5524 20.5419 35.6 20.537H35.969L36.7368 20.5353L38.2495 20.5319L39.4611 20.5288C39.564 20.54 39.6681 20.5295 39.7668 20.4982C39.8654 20.4669 39.9565 20.4153 40.0341 20.3468C40.1263 20.2536 40.1868 20.1337 40.2071 20.0041C40.2274 19.8745 40.2064 19.7419 40.1471 19.6249C39.9383 19.2845 39.7052 18.9596 39.4495 18.6529C39.1878 18.2931 38.9259 17.9336 38.6637 17.5744C37.4524 15.9147 36.237 14.2579 35.0175 12.604C33.7615 10.8995 32.502 9.1975 31.2389 7.49805C31.1858 7.41285 31.102 7.35118 31.0049 7.32569C30.9077 7.3002 30.8045 7.3128 30.7164 7.36092C30.6294 7.41255 30.5663 7.49636 30.5406 7.5942C30.515 7.69203 30.5289 7.79603 30.5794 7.88366C33.0967 11.2687 35.5987 14.6648 38.0854 18.0721C38.3388 18.4197 38.592 18.7674 38.845 19.1151C38.9596 19.2721 39.0736 19.4291 39.187 19.5861C39.2443 19.665 39.3016 19.7441 39.3589 19.8231C39.3784 19.856 39.4009 19.887 39.4262 19.9158C39.4577 19.9778 39.4687 19.9778 39.459 19.9158C39.4463 19.8364 39.4921 19.7863 39.5965 19.7654C39.5448 19.7158 39.1964 19.7666 39.119 19.7668L38.4573 19.7683L37.0082 19.7717L35.5271 19.775C35.4029 19.7593 35.2768 19.7766 35.1616 19.8253C35.0463 19.874 34.9459 19.9522 34.8706 20.0521C34.805 20.1522 34.7694 20.2689 34.7678 20.3885C34.7663 20.5081 34.7989 20.6257 34.8618 20.7275C35.0528 21.0397 35.296 21.3308 35.5097 21.628C37.114 23.8592 38.7192 26.0898 40.3253 28.32C41.8592 30.4487 43.3902 32.5791 44.9382 34.6991C44.965 34.7423 44.995 34.7834 45.0281 34.8221C45.0318 34.8257 45.0543 34.8664 45.0627 34.8692L45.0797 34.8924C45.0549 34.7916 45.1008 34.7264 45.2174 34.6966C45.1895 34.6693 45.0325 34.6966 44.9882 34.6966H44.6087C44.1163 34.6977 43.6241 34.6991 43.132 34.7006L41.4272 34.7056C41.1266 34.7056 40.825 34.6996 40.5245 34.7079C40.3996 34.6972 40.2741 34.7217 40.1622 34.7784C40.0503 34.8352 39.9565 34.922 39.8912 35.0291C39.6334 35.5087 40.1573 35.9875 40.426 36.3469C40.7616 36.7936 41.0969 37.2404 41.4319 37.6873C43.3966 40.3068 45.3615 42.9261 47.3267 45.5451C48.3115 46.8566 49.2971 48.1671 50.2836 49.4767L50.5757 49.8636C50.5909 49.884 50.6467 49.983 50.67 49.9889C50.6815 49.9918 50.6221 49.6245 50.8096 49.7958C50.8012 49.788 50.7523 49.7975 50.7405 49.7958C50.6472 49.7888 50.5534 49.7888 50.4601 49.7958H5.94438C5.81068 49.7958 5.78528 49.7536 5.95985 49.8972C6.01428 49.9421 5.88651 50.0309 5.99499 49.945C6.02032 49.9175 6.04278 49.8875 6.06203 49.8554L6.23239 49.6279L6.58363 49.1589C6.83013 48.8293 7.07689 48.4999 7.32391 48.1707C9.44239 45.344 11.5633 42.5189 13.6866 39.6954C14.4888 38.629 15.2909 37.563 16.0931 36.4973C16.2306 36.3147 16.3683 36.132 16.5062 35.9493C16.6823 35.7159 16.8855 35.4898 16.7996 35.1695C16.6428 34.5852 15.9359 34.7082 15.4773 34.7071L13.7089 34.7019L12.1568 34.6975L11.5824 34.6964C11.5538 34.6964 11.4656 34.6811 11.4405 34.6964H11.4128C11.5302 34.727 11.5758 34.7928 11.5494 34.8939C11.5702 34.8853 11.597 34.8282 11.61 34.81L12.2817 33.8793C12.9685 32.9274 13.6553 31.9757 14.3423 31.024L19.4458 23.9522L21.3469 21.3178C21.6063 20.9584 22.0633 20.5157 21.7638 20.0527C21.6935 19.9563 21.5992 19.88 21.4902 19.8314C21.3812 19.7828 21.2614 19.7636 21.1427 19.7758L20.3623 19.7742L18.8604 19.7706L17.5442 19.7675H17.2732C17.2028 19.7568 17.1312 19.7568 17.0608 19.7675C16.9862 19.8034 17.3023 19.9245 17.1754 19.9645C17.1915 19.9593 17.2115 19.9083 17.2261 19.8946C17.2853 19.8263 17.3384 19.753 17.385 19.6755C17.8087 19.0918 18.2336 18.509 18.6596 17.927C19.8251 16.3309 20.9934 14.7387 22.1647 13.1503C23.4371 11.4241 24.7124 9.70012 25.9907 7.9784C26.0411 7.89075 26.0549 7.78679 26.0293 7.68899C26.0036 7.5912 25.9405 7.50744 25.8535 7.45584C25.7655 7.40704 25.6621 7.39404 25.5648 7.41955C25.4675 7.44506 25.3837 7.5071 25.331 7.59278Z" fill="#211715"/>
<path d="M24.8785 6.27895C25.2941 5.70292 25.6679 5.0948 26.0287 4.55029C26.0319 4.54539 26.0337 4.53964 26.0337 4.53376C26.0337 4.52789 26.0319 4.52214 26.0287 4.51724C25.6671 3.97215 25.2924 3.36174 24.8762 2.78457C24.8728 2.78026 24.8706 2.77507 24.87 2.76959C24.8694 2.76411 24.8703 2.75857 24.8727 2.75359C24.875 2.74861 24.8788 2.7444 24.8834 2.74144C24.8881 2.73847 24.8934 2.73687 24.899 2.73682C25.4985 2.73682 26.3973 2.71772 27.0463 2.71543C27.0518 2.71547 27.0573 2.71391 27.062 2.71093C27.0667 2.70795 27.0705 2.70368 27.0728 2.69862C27.4175 1.99144 27.7954 1.30165 28.2065 0.629229C28.2093 0.624677 28.2131 0.620908 28.2177 0.61829C28.2223 0.615672 28.2275 0.614296 28.2328 0.614296C28.2381 0.614296 28.2433 0.615672 28.2479 0.61829C28.2525 0.620908 28.2564 0.624677 28.2591 0.629229C28.4613 0.971867 29.211 2.24464 29.4339 2.699C29.4362 2.70389 29.4399 2.708 29.4445 2.71082C29.4491 2.71363 29.4544 2.71504 29.4598 2.71486C30.1126 2.71486 31.093 2.73625 31.7326 2.7372C31.7382 2.73722 31.7436 2.73879 31.7483 2.74174C31.7529 2.74469 31.7567 2.7489 31.7591 2.75389C31.7615 2.75887 31.7624 2.76443 31.7618 2.76992C31.7612 2.77542 31.759 2.78063 31.7556 2.78495C31.3388 3.36194 30.9641 3.97234 30.6025 4.51743C30.5993 4.52233 30.5975 4.52808 30.5975 4.53396C30.5975 4.53984 30.5993 4.54558 30.6025 4.55048C30.9631 5.09442 31.3371 5.70311 31.7521 6.27933C31.7555 6.28366 31.7576 6.28885 31.7582 6.29431C31.7588 6.29977 31.7578 6.3053 31.7555 6.31025C31.7531 6.3152 31.7494 6.31938 31.7447 6.32232C31.7401 6.32526 31.7347 6.32685 31.7292 6.32689C31.0865 6.32689 30.1033 6.34943 29.4501 6.34847C29.4447 6.34825 29.4393 6.34967 29.4347 6.35252C29.43 6.35538 29.4264 6.35956 29.4241 6.36451C29.2039 6.81392 28.4602 8.07675 28.2591 8.41844C28.2564 8.42299 28.2525 8.42676 28.2479 8.42938C28.2433 8.43199 28.2381 8.43337 28.2328 8.43337C28.2275 8.43337 28.2223 8.43199 28.2177 8.42938C28.2131 8.42676 28.2093 8.42299 28.2065 8.41844C27.8002 7.75188 27.4252 7.06749 27.0814 6.36528C27.0791 6.36025 27.0754 6.356 27.0707 6.35302C27.066 6.35005 27.0606 6.34847 27.0551 6.34847C26.4057 6.34675 25.5038 6.32784 24.9009 6.3267C24.8954 6.32665 24.89 6.32504 24.8853 6.32207C24.8807 6.31909 24.877 6.31486 24.8746 6.30986C24.8723 6.30487 24.8714 6.29932 24.8721 6.29385C24.8728 6.28838 24.875 6.28321 24.8785 6.27895Z" fill="#FFDA71"/>
<path d="M25.2084 6.47166C25.4311 6.16092 25.6431 5.84292 25.8514 5.52244C25.9603 5.35513 26.0682 5.18725 26.1761 5.01994C26.2993 4.88385 26.3805 4.71504 26.4099 4.53386C26.38 4.35254 26.2987 4.1836 26.1757 4.04703C26.0746 3.8913 25.9738 3.73558 25.8732 3.57986C25.6568 3.2462 25.4368 2.91502 25.2047 2.59186L25.2569 2.78457L25.2536 2.75325L25.0643 3.08309L25.0905 3.06667L24.8976 3.11881C25.2626 3.11881 25.6274 3.11269 25.9922 3.10792C26.1997 3.10525 26.4073 3.10276 26.615 3.10047C26.7922 3.1165 26.9707 3.11092 27.1465 3.08386C27.3597 3.02522 27.433 2.82544 27.522 2.64725C27.6305 2.43079 27.7422 2.21599 27.857 2.00284C28.0725 1.60316 28.2985 1.20953 28.535 0.821942L28.3981 0.959074L28.4245 0.943986H28.0402L28.0664 0.958883L27.9292 0.821942C28.2961 1.44305 28.6668 2.06339 29.0057 2.70111C29.1011 2.88236 29.1854 3.05139 29.409 3.08997C29.6625 3.11329 29.9174 3.11731 30.1715 3.102C30.6921 3.10811 31.2128 3.11766 31.7334 3.119L31.5405 3.06686L31.5668 3.08328L31.3776 2.75344L31.3743 2.78476L31.4265 2.59205C31.203 2.90337 30.9906 3.22232 30.7817 3.54338C30.6726 3.71107 30.5645 3.87933 30.4555 4.04703C30.3321 4.18331 30.2507 4.35239 30.2213 4.53386C30.2511 4.71491 30.3323 4.8836 30.4551 5.01994C30.5559 5.17502 30.656 5.33087 30.7569 5.48596C30.9729 5.81885 31.1921 6.14927 31.423 6.47185L31.3709 6.27914L31.3741 6.31047L31.5632 5.98062L31.5371 5.99705L31.73 5.94472C31.2078 5.94605 30.6856 5.9558 30.1638 5.96172C29.9281 5.96439 29.6863 5.94949 29.4512 5.9663C29.1978 5.9854 29.1036 6.16168 28.9982 6.36012C28.6619 6.9925 28.2936 7.60883 27.9296 8.22535L28.0667 8.08841L28.0406 8.10311H28.4262L28.3998 8.08822L28.5368 8.22535C28.303 7.84044 28.0788 7.44992 27.8641 7.05381C27.7503 6.84244 27.6395 6.62936 27.5318 6.41456C27.4424 6.23617 27.37 6.03849 27.1572 5.97986C26.9812 5.95297 26.8025 5.94771 26.6251 5.9642C26.417 5.96216 26.2088 5.95961 26.0008 5.95656C25.6343 5.95159 25.2678 5.94644 24.9012 5.94529L25.0941 5.99762L25.068 5.9812L25.2573 6.31104L25.2605 6.27972C25.2598 6.17861 25.2194 6.08183 25.1479 6.01033C25.0764 5.93884 24.9796 5.89838 24.8785 5.89773C24.7779 5.89992 24.682 5.94087 24.6108 6.01204C24.5397 6.08321 24.4987 6.1791 24.4965 6.27972L24.4933 6.31104C24.4928 6.37783 24.5101 6.44355 24.5433 6.5015C24.5765 6.55944 24.6245 6.60754 24.6824 6.64088C24.8573 6.71391 25.0486 6.73826 25.2362 6.71136C25.4381 6.71314 25.64 6.7155 25.8421 6.71843C26.2462 6.72377 26.6503 6.72969 27.0547 6.73103L26.8618 6.67889L26.8883 6.6957L26.7512 6.55876C27.0285 7.12498 27.3264 7.68045 27.6448 8.22516C27.7785 8.45435 27.9155 8.8157 28.2321 8.8157C28.4646 8.8157 28.5759 8.63159 28.6796 8.45645C29.0477 7.83133 29.4316 7.20832 29.754 6.5578L29.6168 6.69493L29.6428 6.67889L29.4501 6.73103C29.8703 6.73103 30.2905 6.72492 30.7118 6.71938C30.9155 6.71671 31.1192 6.71429 31.323 6.71212C31.5214 6.71021 31.7733 6.75032 31.9484 6.64107C32.0064 6.60775 32.0544 6.55967 32.0876 6.50172C32.1209 6.44377 32.1382 6.37804 32.1377 6.31123C32.0989 6.11954 32.0093 5.94181 31.8782 5.7967C31.7698 5.63932 31.6634 5.48054 31.559 5.32037C31.3489 5.00046 31.1438 4.67749 30.9328 4.35815L30.9849 4.55105V4.51801L30.9328 4.71091C31.1442 4.39081 31.3501 4.06727 31.5605 3.7466C31.6658 3.58635 31.772 3.42688 31.8808 3.26912C32.0124 3.12377 32.1024 2.94562 32.1412 2.75344C32.1416 2.68666 32.1243 2.62095 32.0911 2.56301C32.0579 2.50508 32.0099 2.45697 31.9521 2.4236C31.7838 2.31855 31.5541 2.35465 31.3636 2.35293C31.1486 2.35077 30.9336 2.34816 30.7188 2.3451C30.2987 2.33937 29.8785 2.33307 29.4594 2.33269L29.6523 2.38502L29.6262 2.36897L29.7633 2.50591C29.4386 1.85043 29.0515 1.22245 28.6804 0.592179C28.5838 0.427926 28.4894 0.270167 28.2833 0.239036C27.938 0.187086 27.785 0.584348 27.6433 0.825953C27.3219 1.37435 27.0217 1.9346 26.7426 2.50668L26.8797 2.36974L26.8532 2.38654L27.0459 2.3344C26.6425 2.33593 26.2391 2.34185 25.8358 2.34701C25.6348 2.34968 25.4338 2.35204 25.2326 2.35408C25.0453 2.32696 24.8542 2.35126 24.6797 2.42436C24.6218 2.45767 24.5738 2.50577 24.5406 2.56372C24.5073 2.62167 24.4901 2.68741 24.4906 2.7542C24.5296 2.94627 24.6195 3.12436 24.7507 3.26988C24.8594 3.42764 24.9656 3.58712 25.0708 3.74736C25.2809 4.06803 25.487 4.39157 25.6984 4.71168L25.6463 4.51877V4.55086L25.6984 4.35796C25.3165 4.93552 24.9519 5.52301 24.5483 6.08662C24.498 6.17432 24.4842 6.27828 24.5098 6.37608C24.5355 6.47387 24.5985 6.55766 24.6854 6.60937C24.7735 6.65836 24.8771 6.67139 24.9746 6.64572C25.0721 6.62005 25.1558 6.55768 25.2084 6.47166Z" fill="#211715"/>
<path d="M45.9076 15.7348C46.5299 15.6249 47.156 15.522 47.6363 15.0741C48.1442 14.6006 48.2404 13.923 48.2994 13.2668H47.5355C47.6078 13.9035 47.6862 14.5518 48.1602 15.0302C48.6281 15.5027 49.2737 15.628 49.9036 15.7348V14.9981C49.2752 15.1072 48.6264 15.2273 48.1602 15.7025C47.69 16.1811 47.5996 16.8274 47.5423 17.4659H48.3063C48.2316 16.8097 48.1468 16.1347 47.6363 15.6586C47.1575 15.212 46.5295 15.1033 45.9076 14.9981C45.81 14.9741 45.7069 14.9885 45.6195 15.0382C45.5321 15.0879 45.467 15.1693 45.4378 15.2655C45.4117 15.3633 45.4251 15.4674 45.4752 15.5553C45.5252 15.6433 45.6078 15.708 45.7052 15.7355C46.1567 15.8119 46.6819 15.856 47.0498 16.1574C47.4428 16.4796 47.4891 16.9953 47.5431 17.4667C47.5431 17.568 47.5833 17.6651 47.655 17.7368C47.7266 17.8084 47.8238 17.8487 47.9251 17.8487C48.0264 17.8487 48.1236 17.8084 48.1952 17.7368C48.2668 17.6651 48.3071 17.568 48.3071 17.4667C48.3479 17.0125 48.3949 16.5287 48.7463 16.1994C49.1029 15.8654 49.648 15.8154 50.1074 15.7355C50.4712 15.6723 50.4729 15.0607 50.1074 14.9989C49.6474 14.9209 49.1031 14.8682 48.7463 14.5348C48.3944 14.2057 48.3516 13.7204 48.3002 13.2675C48.3002 13.1662 48.2599 13.0691 48.1883 12.9974C48.1167 12.9258 48.0195 12.8855 47.9182 12.8855C47.8169 12.8855 47.7197 12.9258 47.6481 12.9974C47.5765 13.0691 47.5362 13.1662 47.5362 13.2675C47.4936 13.7414 47.4407 14.2532 47.0498 14.5768C46.6831 14.8797 46.1557 14.9194 45.7052 14.9989C45.6078 15.0264 45.5252 15.0911 45.4752 15.179C45.4251 15.2669 45.4117 15.371 45.4378 15.4687C45.4668 15.565 45.5318 15.6464 45.6193 15.696C45.7069 15.7455 45.8101 15.7594 45.9076 15.7348Z" fill="#211715"/>
<path d="M3.4993 25.7278C4.51309 25.5479 5.54635 25.3987 6.34355 24.6875C7.20301 23.9207 7.35848 22.7885 7.45608 21.7036H6.69211C6.80938 22.7312 6.92818 23.7854 7.6868 24.5633C8.46203 25.3577 9.55851 25.55 10.6076 25.7284V24.9915C9.56978 25.1724 8.48991 25.3544 7.71181 26.1304C6.93658 26.9032 6.79735 27.9771 6.70395 29.0157H7.46792C7.3453 27.9412 7.21333 26.8306 6.3701 26.0554C5.57596 25.326 4.52264 25.165 3.4993 24.9908C3.40163 24.9669 3.29851 24.9813 3.21111 25.031C3.1237 25.0807 3.05864 25.162 3.02927 25.2582C3.00324 25.3559 3.01668 25.46 3.0667 25.5479C3.11673 25.6359 3.19932 25.7006 3.29666 25.7282C4.13951 25.8714 5.10516 25.9637 5.77688 26.5483C6.50265 27.1803 6.60158 28.1144 6.70453 29.0155C6.70453 29.1168 6.74477 29.214 6.81641 29.2856C6.88804 29.3573 6.9852 29.3975 7.08651 29.3975C7.18782 29.3975 7.28498 29.3573 7.35661 29.2856C7.42825 29.214 7.46849 29.1168 7.46849 29.0155C7.54489 28.1576 7.64287 27.2447 8.30427 26.6205C8.97274 25.9902 9.94527 25.8789 10.8112 25.7282C11.1741 25.6648 11.177 25.0534 10.8112 24.9914C9.93267 24.8424 8.9481 24.724 8.27849 24.0746C7.63523 23.4506 7.55272 22.5467 7.45722 21.7044C7.45722 21.6031 7.41698 21.5059 7.34534 21.4343C7.27371 21.3626 7.17655 21.3224 7.07524 21.3224C6.97393 21.3224 6.87677 21.3626 6.80514 21.4343C6.7335 21.5059 6.69326 21.6031 6.69326 21.7044C6.61113 22.6169 6.49654 23.5694 5.75033 24.1953C5.07651 24.7604 4.13015 24.8447 3.29724 24.9917C3.1999 25.0193 3.1173 25.084 3.06728 25.172C3.01725 25.2599 3.00381 25.364 3.02985 25.4618C3.05888 25.558 3.12386 25.6393 3.21128 25.6888C3.29871 25.7384 3.40186 25.7523 3.4993 25.7278Z" fill="#211715"/>
<path d="M54.6077 42.6537L54.6213 42.6669C54.6937 42.737 54.7906 42.7762 54.8914 42.7762C54.9923 42.7762 55.0891 42.737 55.1616 42.6669C55.3218 42.5062 55.289 42.2578 55.3186 42.0488C55.3469 41.8507 55.3916 41.6553 55.4523 41.4646C55.5728 41.0782 55.7881 40.7282 56.0783 40.4462C56.3947 40.1442 56.7696 39.9102 57.1798 39.7586C57.3611 39.6909 57.5469 39.6356 57.7358 39.5932C57.9268 39.5506 58.1722 39.5581 58.3118 39.4087C58.3814 39.336 58.4203 39.2392 58.4203 39.1386C58.4203 39.0379 58.3814 38.9411 58.3118 38.8684C58.1764 38.7231 57.9502 38.7303 57.7673 38.6904C57.5792 38.6495 57.3942 38.5959 57.2134 38.53C56.7905 38.3781 56.404 38.1397 56.0785 37.83C55.7985 37.5583 55.5894 37.2221 55.4696 36.8508C55.4087 36.6608 55.3627 36.4664 55.3321 36.2692C55.2979 36.0538 55.3321 35.7755 55.1656 35.6132C55.0932 35.5429 54.9963 35.5037 54.8954 35.5037C54.7946 35.5037 54.6977 35.5429 54.6253 35.6132C54.4645 35.7736 54.4975 36.0247 54.4679 36.2339C54.4395 36.4319 54.3948 36.6273 54.3342 36.8179C54.2135 37.2022 53.9986 37.5501 53.7091 37.8302C53.3926 38.132 53.0178 38.366 52.6076 38.5178C52.4263 38.5855 52.2405 38.6408 52.0517 38.6833C51.8607 38.7263 51.616 38.7177 51.4756 38.8684C51.406 38.9411 51.3671 39.0379 51.3671 39.1386C51.3671 39.2392 51.406 39.336 51.4756 39.4087C51.6065 39.5485 51.8129 39.5424 51.989 39.5806C52.1646 39.6173 52.3378 39.665 52.5074 39.7235C52.9066 39.8584 53.2762 40.0688 53.596 40.3433C54.1988 40.8713 54.4316 41.6057 54.4962 42.3846C54.5365 42.871 55.3008 42.8754 55.2601 42.3846C55.1837 41.4657 54.9288 40.5669 54.2492 39.9068C53.5631 39.2726 52.6912 38.8759 51.7623 38.7752L52.0326 38.8871L52.0159 38.8694V39.4097L52.0324 39.3917L51.8639 39.4901C52.7701 39.3777 53.6159 38.9763 54.2761 38.3455C54.9385 37.6875 55.1994 36.8074 55.2634 35.8975L55.1515 36.1676L55.1648 36.1542H54.6243L54.6379 36.1674L54.5261 35.8974C54.5989 36.8049 54.8487 37.6866 55.5107 38.3455C56.1707 38.9765 57.0166 39.3779 57.9227 39.4901L57.7543 39.3917L57.7709 39.4097V38.8694L57.7543 38.8871L58.0243 38.7752C57.0955 38.8763 56.2237 39.273 55.5373 39.9068C54.8575 40.5658 54.5867 41.4621 54.5229 42.3844L54.6346 42.1141L54.6213 42.1275H55.1616L55.148 42.1145C54.7943 41.7717 54.2538 42.3112 54.6077 42.6537Z" fill="#211715"/>
<path d="M43.2221 14.2265L43.2357 14.2397C43.3081 14.3098 43.405 14.3491 43.5058 14.3491C43.6067 14.3491 43.7036 14.3098 43.776 14.2397C43.9362 14.079 43.9032 13.8306 43.9328 13.6216C43.9612 13.4235 44.0059 13.2281 44.0665 13.0374C44.1872 12.6511 44.4025 12.301 44.6927 12.019C45.0091 11.7171 45.3839 11.4831 45.794 11.3314C45.9754 11.2638 46.1612 11.2085 46.3502 11.166C46.54 11.1235 46.7866 11.1309 46.9262 10.9815C46.9958 10.9088 47.0347 10.8121 47.0347 10.7114C47.0347 10.6107 46.9958 10.5139 46.9262 10.4412C46.7908 10.2959 46.5647 10.3031 46.3817 10.2632C46.1937 10.2223 46.0086 10.1687 45.8278 10.1028C45.4049 9.95105 45.0184 9.7127 44.6929 9.403C44.4129 9.1313 44.2038 8.79499 44.0841 8.42359C44.023 8.23372 43.977 8.03932 43.9465 7.84222C43.9124 7.62659 43.9465 7.34831 43.78 7.18597C43.7076 7.11576 43.6107 7.0765 43.5098 7.0765C43.409 7.0765 43.3121 7.11576 43.2397 7.18597C43.0789 7.3464 43.1119 7.59756 43.0821 7.80669C43.0538 8.00474 43.0091 8.20009 42.9484 8.39074C42.8277 8.77495 42.6129 9.1229 42.3235 9.403C42.007 9.70475 41.6322 9.93872 41.222 10.0906C41.0406 10.1583 40.8548 10.2136 40.6659 10.2562C40.4749 10.2991 40.2304 10.2905 40.09 10.4412C40.0204 10.5139 39.9815 10.6107 39.9815 10.7114C39.9815 10.8121 40.0204 10.9089 40.09 10.9815C40.2207 11.1213 40.4271 11.1152 40.6034 11.1525C40.7791 11.1892 40.9522 11.2369 41.1218 11.2955C41.521 11.4303 41.8906 11.6407 42.2104 11.9151C42.813 12.4432 43.0458 13.1776 43.1104 13.9564C43.1507 14.4429 43.915 14.4473 43.8743 13.9564C43.7979 13.0376 43.5432 12.1388 42.8636 11.4789C42.1776 10.8445 41.3057 10.4477 40.3767 10.3471L40.6468 10.459L40.6302 10.4412V10.9815L40.6468 10.9636L40.4783 11.062C41.3843 10.9496 42.2301 10.5484 42.8902 9.91772C43.5525 9.25976 43.8136 8.37967 43.8774 7.46978L43.7655 7.73984L43.779 7.72647H43.2393L43.2529 7.73965L43.1409 7.46959C43.2139 8.37718 43.4637 9.2588 44.1257 9.91772C44.7857 10.5487 45.6315 10.9501 46.5377 11.0623L46.3693 10.9642L46.3857 10.9819V10.4412L46.3691 10.459L46.6393 10.3471C45.7104 10.4481 44.8386 10.8448 44.1522 11.4789C43.4723 12.1378 43.2015 13.0339 43.1377 13.9562L43.2496 13.686L43.2362 13.6995H43.7766L43.763 13.6864C43.4091 13.3441 42.8682 13.8837 43.2221 14.2265Z" fill="#211715"/>
<path d="M17.6883 47.7698C17.7011 47.1406 17.8468 46.5829 18.3143 46.1637C18.7142 45.8187 19.2125 45.6082 19.7386 45.5619C19.742 45.5619 19.742 45.5577 19.7386 45.5575C19.2127 45.5105 18.7148 45.2998 18.3149 44.9551C17.8474 44.5349 17.7127 43.9876 17.6883 43.3491C17.6736 43.9876 17.5297 44.5357 17.062 44.9549C16.6621 45.2998 16.164 45.5106 15.638 45.5575C15.6345 45.5575 15.6345 45.5617 15.638 45.5619C16.164 45.6082 16.6622 45.8187 17.062 46.1637C17.5292 46.5829 17.6621 47.142 17.6883 47.7698Z" fill="white"/>
<path d="M18.0702 47.7698C18.0834 47.3091 18.1732 46.8435 18.5095 46.505C18.8441 46.1848 19.2772 45.987 19.7384 45.9439C19.839 45.9416 19.9348 45.9006 20.0059 45.8295C20.0771 45.7583 20.1181 45.6625 20.1203 45.5619V45.5568C20.1178 45.4562 20.0768 45.3605 20.0057 45.2894C19.9346 45.2183 19.8389 45.1773 19.7384 45.1748C19.2772 45.1311 18.8443 44.9332 18.5097 44.6129C18.1736 44.2748 18.0895 43.8069 18.0695 43.3483C18.0695 43.247 18.0292 43.1498 17.9576 43.0782C17.886 43.0066 17.7888 42.9663 17.6875 42.9663C17.5862 42.9663 17.489 43.0066 17.4174 43.0782C17.3458 43.1498 17.3055 43.247 17.3055 43.3483C17.2914 43.8098 17.2037 44.2739 16.8662 44.6129C16.5315 44.933 16.0987 45.131 15.6376 45.1748C15.537 45.177 15.4411 45.218 15.37 45.2891C15.2988 45.3603 15.2578 45.4561 15.2556 45.5568V45.5611C15.2582 45.6616 15.2992 45.7573 15.3703 45.8284C15.4414 45.8995 15.5371 45.9406 15.6376 45.9431C16.0987 45.9861 16.5318 46.1839 16.8662 46.5043C17.2003 46.8414 17.2843 47.3123 17.3055 47.769C17.329 48.2583 18.0932 48.2612 18.0695 47.769C18.0374 47.107 17.8869 46.4498 17.4054 45.9641C16.924 45.5063 16.2991 45.2289 15.6366 45.1792L16.0186 45.5611V45.5568L15.6366 45.9387C16.299 45.8879 16.9236 45.6105 17.4054 45.1532C17.8888 44.6683 18.0485 44.0133 18.0689 43.3483H17.3049C17.3347 44.0118 17.4856 44.6662 17.9688 45.1532C18.4506 45.6107 19.0753 45.8881 19.7378 45.9387L19.3558 45.5568V45.5611L19.7378 45.1792C19.0753 45.2291 18.4504 45.5064 17.9688 45.9641C17.4871 46.4485 17.3244 47.1049 17.3055 47.769C17.2921 48.2616 18.0561 48.2612 18.0702 47.7698Z" fill="#211715"/>
<path d="M45.5862 41.8278C43.1895 43.1713 41.2675 43.6669 38.5976 44.242C35.8022 44.8434 32.9085 44.8218 30.1224 44.1786C27.6395 43.6012 25.2903 42.5379 22.8044 41.9772C18.9314 41.1032 14.8855 41.4818 10.9741 42.163L12.021 40.301C12.0904 40.1775 12.1858 40.0706 12.3007 39.9876C12.4155 39.9046 12.547 39.8475 12.686 39.8203C16.3924 39.0995 19.7527 38.5838 23.4961 39.2825C25.5338 39.6631 27.4867 40.3937 29.4818 40.956C32.1384 41.7458 34.9491 41.8656 37.6633 41.3049C39.828 40.8564 41.2112 40.1653 42.9553 39.0361C43.097 38.944 43.2693 38.9114 43.4348 38.9452C43.6004 38.979 43.7461 39.0765 43.8404 39.2168L45.5862 41.8278Z" fill="#FFDA71"/>
<path d="M45.3935 41.498C43.5871 42.474 41.6509 43.1878 39.6433 43.618C38.5314 43.8938 37.4019 44.0932 36.2628 44.2148C35.07 44.3231 33.8699 44.3214 32.6775 44.2099C30.3061 43.9876 28.0857 43.2051 25.8409 42.4589C24.735 42.0748 23.6064 41.7591 22.4617 41.5135C21.2875 41.2815 20.0965 41.1444 18.9003 41.1034C16.2086 41.0033 13.5199 41.3345 10.8725 41.794L11.304 42.3552L12.2207 40.7249C12.2635 40.6485 12.3044 40.5709 12.3495 40.4957C12.5153 40.2203 12.7718 40.1901 13.0653 40.1339C13.8646 39.9802 14.6654 39.8337 15.4695 39.7082C17.0218 39.4509 18.5931 39.3259 20.1666 39.3344C21.7755 39.3626 23.375 39.5856 24.9303 39.9985C26.4876 40.4065 28.0052 40.9497 29.5584 41.3727C31.0895 41.7985 32.6699 42.0213 34.2591 42.0352C35.8195 42.0392 37.3728 41.8262 38.8746 41.4023C40.1337 41.0333 41.337 40.4952 42.4515 39.8027C42.5947 39.7157 42.7371 39.6272 42.8787 39.5373C42.9883 39.4473 43.1106 39.374 43.2416 39.3197C43.2955 39.3082 43.3516 39.3131 43.4027 39.3339C43.4538 39.3546 43.4975 39.3902 43.5281 39.436C43.6856 39.6295 43.8121 39.8606 43.9507 40.0678L45.1731 41.8962L45.2556 42.0194C45.5276 42.426 46.1897 42.044 45.9153 41.6338L44.8971 40.1116L44.305 39.2273C44.114 38.9423 43.9208 38.6759 43.5646 38.5833C43.4022 38.5479 43.2342 38.5483 43.072 38.5844C42.9099 38.6205 42.7575 38.6914 42.6255 38.7922C42.3239 38.9855 42.0194 39.1742 41.7098 39.3541C41.1615 39.679 40.5909 39.9649 40.0024 40.2097C38.5915 40.7683 37.1038 41.1089 35.5905 41.2199C33.9802 41.3446 32.3603 41.2321 30.7826 40.8861C29.1592 40.5346 27.5931 39.9639 26.0002 39.5021C24.4079 39.0232 22.7674 38.7227 21.1087 38.606C19.4739 38.5234 17.8349 38.5998 16.2148 38.834C15.3988 38.9433 14.5869 39.0774 13.7773 39.2252C13.0416 39.3589 12.1484 39.3757 11.7091 40.0766C11.3653 40.6263 11.0691 41.2125 10.7513 41.778L10.6437 41.969C10.6073 42.0349 10.5909 42.1101 10.5966 42.1852C10.6023 42.2604 10.6298 42.3322 10.6757 42.392C10.7217 42.4517 10.784 42.4967 10.8552 42.5215C10.9264 42.5463 11.0032 42.5497 11.0763 42.5314C13.4353 42.122 15.8228 41.8259 18.2211 41.8519C19.4252 41.8585 20.6267 41.9638 21.8135 42.1668C22.9653 42.3836 24.1006 42.6806 25.211 43.0557C27.4827 43.7945 29.7064 44.6129 32.0907 44.9106C34.4672 45.1824 36.8727 45.0438 39.2021 44.5008C40.3198 44.2682 41.4239 43.9743 42.5093 43.6205C43.6415 43.2329 44.7361 42.7431 45.7795 42.1571C46.2085 41.918 45.8236 41.2579 45.3935 41.498Z" fill="#211715"/>
<path d="M30.071 11.9671C29.8495 11.9662 29.6301 12.01 29.4259 12.0957C29.2217 12.1813 29.0367 12.3072 28.8821 12.4658C28.7275 12.6244 28.6063 12.8124 28.5258 13.0187C28.4454 13.2251 28.4072 13.4455 28.4136 13.6669C28.4136 14.6927 29.1055 15.399 30.0712 15.399C31.0739 15.399 31.7286 14.686 31.7286 13.6669C31.7352 13.4454 31.6972 13.2249 31.6168 13.0185C31.5363 12.812 31.4152 12.6239 31.2605 12.4652C31.1058 12.3066 30.9208 12.1808 30.7164 12.0952C30.5121 12.0096 30.2926 11.966 30.071 11.9671Z" fill="#F2635F"/>
<path d="M20.8186 29.9627C20.5971 29.9619 20.3777 30.0056 20.1735 30.0913C19.9692 30.1769 19.7843 30.3028 19.6297 30.4614C19.475 30.62 19.3538 30.808 19.2733 31.0143C19.1928 31.2207 19.1546 31.4411 19.161 31.6625C19.161 32.6883 19.8531 33.3946 20.8186 33.3946C21.8215 33.3946 22.4762 32.6816 22.4762 31.6625C22.4828 31.441 22.4448 31.2205 22.3643 31.0141C22.2839 30.8077 22.1627 30.6195 22.008 30.4609C21.8534 30.3023 21.6683 30.1764 21.464 30.0908C21.2596 30.0052 21.0402 29.9617 20.8186 29.9627Z" fill="#F2635F"/>
<path d="M39.6336 25.9329C36.2597 27.933 32.8303 28.649 28.7812 28.5287C24.7931 28.4361 20.9127 27.2161 17.5891 25.0099L18.4379 23.3893C18.4696 23.3286 18.5133 23.2749 18.5664 23.2316C18.6195 23.1884 18.6809 23.1564 18.7468 23.1377C18.8127 23.119 18.8818 23.1139 18.9497 23.1229C19.0176 23.1318 19.083 23.1545 19.1419 23.1895C21.96 24.8844 25.2834 25.4814 28.587 25.3919C31.8906 25.3023 34.459 24.7459 37.1085 22.9212C37.1644 22.883 37.2274 22.8564 37.2938 22.8431C37.3603 22.8297 37.4287 22.8299 37.495 22.8436C37.5614 22.8573 37.6242 22.8843 37.6799 22.9228C37.7356 22.9614 37.783 23.0108 37.8192 23.0681L39.6336 25.9329Z" fill="#FFDA71"/>
<path d="M39.4409 25.6031C36.9398 27.0746 34.126 27.9334 31.2296 28.1095C28.2049 28.3283 25.1671 27.9333 22.299 26.9483C20.7046 26.3841 19.1874 25.622 17.7828 24.68L17.9199 25.2028L18.5926 23.9174C18.6455 23.8166 18.7422 23.5129 18.8791 23.4972C18.9511 23.4892 19.038 23.5713 19.0932 23.6036C19.201 23.6673 19.3099 23.7289 19.4198 23.7885C19.6744 23.9285 19.9336 24.0603 20.1973 24.1838C22.2837 25.1319 24.5347 25.665 26.8247 25.7532C28.9512 25.8619 31.1707 25.7341 33.2304 25.165C34.2057 24.8952 35.1469 24.5145 36.0355 24.0303C36.2611 23.9074 36.4832 23.7782 36.7017 23.6428C36.8136 23.5732 36.9246 23.5023 37.0348 23.4298C37.1239 23.3712 37.2532 23.2338 37.3573 23.2168C37.4842 23.196 37.5308 23.3248 37.5865 23.413L39.3032 26.1251C39.5656 26.5393 40.227 26.1566 39.9628 25.7395L38.3478 23.188C38.2817 23.0837 38.2187 22.9766 38.1494 22.8746C38.0841 22.7716 37.999 22.6827 37.8989 22.6131C37.7989 22.5434 37.6859 22.4945 37.5667 22.4691C37.4284 22.4482 37.2872 22.4562 37.1522 22.4928C37.0172 22.5294 36.8913 22.5936 36.7824 22.6815C35.9148 23.2735 34.9779 23.7571 33.9926 24.1214C31.9511 24.8611 29.7375 25.0502 27.5795 25.0148C25.2412 24.9766 22.8718 24.5685 20.7334 23.5941C20.4312 23.4562 20.134 23.3078 19.8419 23.149C19.5648 22.9984 19.2851 22.7697 18.9622 22.7413C18.5338 22.7031 18.2278 22.968 18.0414 23.3236L17.2597 24.8164C17.2111 24.9044 17.1982 25.0078 17.2237 25.105C17.2492 25.2023 17.3111 25.286 17.3966 25.339C19.9836 27.0591 22.9166 28.1908 25.9886 28.654C29.011 29.1139 32.2011 29.0396 35.1627 28.2441C36.7996 27.7972 38.3684 27.1306 39.8265 26.2626C40.2495 26.0132 39.8656 25.3525 39.4409 25.6031Z" fill="#211715"/>
<path d="M30.071 11.5851C29.6353 11.5869 29.2117 11.7279 28.8618 11.9875C28.5119 12.2471 28.2542 12.6118 28.1261 13.0282C27.8803 13.818 28.1053 14.796 28.7614 15.3251C29.0956 15.5867 29.4998 15.7435 29.923 15.7758C30.3461 15.808 30.7694 15.7143 31.1394 15.5063C31.8894 15.0684 32.2021 14.1667 32.0825 13.3344C32.0123 12.8502 31.7707 12.4074 31.4015 12.0863C31.0323 11.7653 30.5602 11.5874 30.071 11.5851C29.5792 11.5784 29.579 12.3424 30.071 12.349C30.3476 12.3472 30.6172 12.4365 30.8379 12.6033C31.0586 12.7702 31.2181 13.0051 31.2918 13.2717C31.371 13.5318 31.3752 13.8089 31.3041 14.0713C31.2329 14.3337 31.0893 14.5707 30.8896 14.7552C30.6794 14.9054 30.4319 14.9949 30.1742 15.0137C29.9165 15.0325 29.6586 14.9799 29.4289 14.8617C29.2023 14.7199 29.0222 14.5147 28.9108 14.2716C28.7995 14.0285 28.7618 13.7581 28.8024 13.4939C28.8342 13.1797 28.9817 12.8885 29.2161 12.677C29.4505 12.4654 29.7552 12.3485 30.071 12.349C30.5622 12.3433 30.5636 11.5794 30.071 11.5851Z" fill="#211715"/>
<path d="M26.0619 35.2915C25.918 35.291 25.7754 35.3194 25.6427 35.3751C25.51 35.4308 25.3898 35.5126 25.2893 35.6157C25.1888 35.7187 25.1101 35.8409 25.0578 35.975C25.0055 36.1091 24.9807 36.2524 24.9849 36.3962C24.9752 36.5424 24.9961 36.689 25.0462 36.8267C25.0963 36.9644 25.1744 37.0902 25.2758 37.1961C25.3771 37.3019 25.4993 37.3856 25.6347 37.4416C25.77 37.4977 25.9156 37.525 26.0621 37.5217C26.7136 37.5217 27.1391 37.0584 27.1391 36.3962C27.1434 36.2523 27.1187 36.109 27.0664 35.9748C27.0142 35.8407 26.9354 35.7184 26.8349 35.6153C26.7344 35.5122 26.6141 35.4304 26.4813 35.3748C26.3485 35.3192 26.2059 35.2908 26.0619 35.2915Z" fill="white"/>
<path d="M20.8186 29.5807C20.3829 29.5825 19.9592 29.7235 19.6093 29.9831C19.2593 30.2427 19.0016 30.6073 18.8735 31.0238C18.6277 31.8138 18.8527 32.7916 19.509 33.3209C19.8432 33.5824 20.2473 33.7392 20.6705 33.7714C21.0936 33.8037 21.5168 33.71 21.8868 33.5021C22.6368 33.064 22.9497 32.1623 22.8301 31.3302C22.7597 30.8461 22.518 30.4033 22.1489 30.0823C21.7798 29.7612 21.3078 29.5833 20.8186 29.5807C20.3268 29.574 20.3266 30.338 20.8186 30.3447C21.0952 30.3428 21.3648 30.4321 21.5855 30.599C21.8062 30.7658 21.9657 31.0007 22.0394 31.2673C22.1185 31.5274 22.1227 31.8046 22.0516 32.067C21.9804 32.3293 21.8368 32.5664 21.6372 32.751C21.427 32.9012 21.1795 32.9906 20.9218 33.0094C20.6641 33.0282 20.4063 32.9757 20.1765 32.8575C19.9498 32.7156 19.7697 32.5104 19.6584 32.2673C19.5471 32.0242 19.5094 31.7538 19.55 31.4895C19.5818 31.1753 19.7293 30.8841 19.9637 30.6726C20.1981 30.461 20.5028 30.3441 20.8186 30.3447C21.3098 30.338 21.3112 29.574 20.8186 29.5807Z" fill="#211715"/>
<path d="M26.0619 34.9095C25.7497 34.9113 25.4461 35.0128 25.1956 35.1992C24.9451 35.3856 24.7606 35.6471 24.6692 35.9457C24.58 36.2307 24.5748 36.5353 24.6541 36.8232C24.7334 37.1111 24.8939 37.37 25.1165 37.5691C25.3496 37.7676 25.6391 37.8881 25.9443 37.9136C26.2494 37.939 26.5548 37.8682 26.8177 37.7111C27.0805 37.554 27.2875 37.3185 27.4095 37.0376C27.5315 36.7568 27.5625 36.4448 27.498 36.1455C27.4446 35.8024 27.2707 35.4897 27.0075 35.2633C26.7443 35.037 26.409 34.9119 26.0619 34.9105C25.9606 34.9105 25.8634 34.9507 25.7918 35.0224C25.7202 35.094 25.6799 35.1912 25.6799 35.2925C25.6799 35.3938 25.7202 35.4909 25.7918 35.5626C25.8634 35.6342 25.9606 35.6745 26.0619 35.6745C26.0938 35.6745 26.1255 35.6773 26.1574 35.6785C26.2556 35.6815 26.1058 35.6642 26.1629 35.6785C26.216 35.692 26.2689 35.7054 26.3218 35.7197C26.3409 35.7247 26.3883 35.7486 26.3119 35.7132C26.3381 35.7253 26.3641 35.7375 26.3895 35.7514C26.4061 35.7604 26.4225 35.7705 26.4387 35.7801C26.4578 35.7923 26.5499 35.8693 26.4769 35.803C26.5121 35.8345 26.547 35.8653 26.5789 35.9C26.5917 35.914 26.6034 35.9285 26.616 35.9424C26.5526 35.8712 26.612 35.9388 26.6232 35.9558C26.6496 35.9955 26.6704 36.0373 26.6937 36.0788C26.7373 36.1565 26.683 36.0267 26.695 36.0788C26.7025 36.1111 26.718 36.1428 26.7271 36.1743C26.7402 36.2215 26.7506 36.2694 26.7583 36.3177C26.7413 36.2148 26.7583 36.3676 26.7583 36.3956C26.7583 36.4472 26.7541 36.4982 26.7502 36.5494C26.7577 36.4501 26.7502 36.545 26.7464 36.5651C26.7409 36.5931 26.7344 36.6212 26.7273 36.6491C26.7151 36.6942 26.6998 36.7379 26.6832 36.7815C26.7214 36.6825 26.6586 36.8223 26.6435 36.8472C26.632 36.8663 26.6192 36.8838 26.6074 36.9025C26.56 36.977 26.6647 36.8452 26.6026 36.9077C26.5668 36.9393 26.5329 36.9728 26.5008 37.0082C26.4697 37.0477 26.5757 36.96 26.506 37.0041C26.4836 37.0183 26.4622 37.0334 26.4395 37.0467C26.4244 37.0555 26.4087 37.0641 26.3931 37.0721L26.3692 37.084C26.331 37.1014 26.3367 37.0993 26.3862 37.0775C26.365 37.1014 26.2825 37.1119 26.2544 37.1187C26.2309 37.1222 26.2076 37.1271 26.1847 37.1335C26.1561 37.1382 26.1656 37.1373 26.2143 37.1306C26.1952 37.1329 26.1748 37.1346 26.1551 37.1359C26.1046 37.1396 26.054 37.1401 26.0035 37.1377C25.979 37.1365 25.9542 37.1321 25.9299 37.1319C25.8726 37.1319 26.0195 37.1535 25.9316 37.1304C25.8864 37.1184 25.8409 37.1096 25.7964 37.0945L25.7705 37.0855C25.7309 37.0702 25.7363 37.0727 25.7859 37.093C25.7602 37.0843 25.7359 37.072 25.7137 37.0565C25.6751 37.0346 25.6377 37.0103 25.602 36.9839C25.6864 37.0452 25.5804 36.9596 25.5598 36.9383C25.5392 36.9169 25.5245 36.8983 25.5067 36.8785C25.5661 36.9451 25.5235 36.902 25.5103 36.8802C25.4824 36.8345 25.4595 36.7807 25.4293 36.7373C25.4563 36.8221 25.3992 36.694 25.4293 36.7373C25.4207 36.7098 25.4102 36.6831 25.4028 36.6554C25.3892 36.6078 25.3801 36.5599 25.3711 36.511C25.3736 36.5248 25.3778 36.5939 25.3734 36.5215C25.3717 36.49 25.369 36.4587 25.3682 36.4272C25.3682 36.4065 25.3682 36.3857 25.3682 36.3649C25.3682 36.3441 25.3848 36.2121 25.3682 36.3181C25.377 36.2604 25.3898 36.2035 25.4064 36.1476C25.4122 36.1285 25.4192 36.1113 25.4255 36.0929C25.4411 36.0532 25.4391 36.0571 25.4198 36.1048C25.4276 36.0874 25.436 36.0704 25.4448 36.0536C25.4714 36.0036 25.5014 35.9555 25.5346 35.9096C25.5269 35.9203 25.4817 35.9695 25.5277 35.9208C25.5535 35.8935 25.5781 35.8656 25.6058 35.8399C25.6196 35.8271 25.6343 35.8152 25.6482 35.8026C25.5753 35.8691 25.6656 35.7917 25.6864 35.7793C25.7025 35.7692 25.7189 35.7602 25.7357 35.7505C25.7462 35.7446 25.8465 35.702 25.7943 35.7203C25.737 35.7405 25.8283 35.71 25.8314 35.7092C25.8646 35.6987 25.8984 35.6898 25.9326 35.6827C25.9555 35.6779 26.0243 35.671 25.9372 35.6792C25.9794 35.6752 26.0214 35.6729 26.0638 35.6724C26.1651 35.6724 26.2623 35.6321 26.3339 35.5605C26.4056 35.4888 26.4458 35.3917 26.4458 35.2904C26.4458 35.1891 26.4056 35.0919 26.3339 35.0203C26.2623 34.9486 26.1651 34.9084 26.0638 34.9084L26.0619 34.9095Z" fill="#211715"/>
<path d="M25.9355 18.3147C25.7915 18.3141 25.649 18.3425 25.5163 18.3982C25.3835 18.4538 25.2634 18.5356 25.1629 18.6387C25.0624 18.7417 24.9837 18.8639 24.9314 18.998C24.8791 19.1321 24.8543 19.2753 24.8585 19.4192C24.8488 19.5654 24.8696 19.712 24.9197 19.8497C24.9697 19.9874 25.0479 20.1132 25.1492 20.219C25.2505 20.3249 25.3727 20.4085 25.5081 20.4646C25.6434 20.5206 25.789 20.5479 25.9355 20.5447C26.5869 20.5447 27.0125 20.0813 27.0125 19.4192C27.0168 19.2753 26.9921 19.132 26.9398 18.9978C26.8876 18.8637 26.8088 18.7414 26.7083 18.6384C26.6078 18.5353 26.4876 18.4535 26.3548 18.3979C26.222 18.3423 26.0794 18.314 25.9355 18.3147Z" fill="white"/>
<path d="M25.9355 17.9327C25.6232 17.9344 25.3197 18.0358 25.0691 18.2222C24.8185 18.4085 24.6341 18.6701 24.5426 18.9686C24.4534 19.2536 24.4481 19.5582 24.5275 19.8461C24.6068 20.134 24.7673 20.393 24.9899 20.592C25.223 20.7907 25.5125 20.9113 25.8177 20.9368C26.1229 20.9623 26.4284 20.8916 26.6912 20.7344C26.9541 20.5773 27.1611 20.3417 27.2831 20.0608C27.4051 19.7798 27.436 19.4678 27.3713 19.1684C27.318 18.8254 27.1442 18.5127 26.881 18.2863C26.6178 18.06 26.2826 17.935 25.9355 17.9336C25.8342 17.9336 25.737 17.9739 25.6654 18.0455C25.5937 18.1172 25.5535 18.2143 25.5535 18.3156C25.5535 18.4169 25.5937 18.5141 25.6654 18.5857C25.737 18.6574 25.8342 18.6976 25.9355 18.6976C25.9674 18.6976 25.9989 18.7003 26.031 18.7014C26.1289 18.7045 25.9792 18.6871 26.0363 18.7014C26.0894 18.715 26.1423 18.7284 26.1952 18.7427C26.2143 18.7476 26.2617 18.7715 26.1855 18.7362C26.2116 18.7482 26.2376 18.7604 26.2628 18.7744C26.2794 18.7834 26.2961 18.7935 26.3121 18.803C26.3312 18.8153 26.4235 18.8922 26.3503 18.8259C26.3853 18.8575 26.4202 18.8882 26.4521 18.923C26.4649 18.9369 26.4767 18.9514 26.4892 18.9654C26.4257 18.8941 26.4851 18.9617 26.4964 18.9787C26.523 19.0187 26.5436 19.0603 26.5669 19.1017C26.6104 19.1795 26.5562 19.0496 26.5684 19.1017C26.5757 19.134 26.5913 19.1657 26.6003 19.1972C26.6134 19.2444 26.6238 19.2923 26.6314 19.3407C26.6146 19.2377 26.6314 19.3905 26.6314 19.4186C26.6314 19.4702 26.6272 19.5212 26.6234 19.5723C26.6309 19.473 26.6234 19.568 26.6196 19.588C26.6141 19.6161 26.6076 19.6453 26.6005 19.672C26.5882 19.717 26.5734 19.7612 26.5564 19.8046C26.5946 19.7055 26.5317 19.8453 26.5167 19.8701C26.5052 19.8892 26.4924 19.9068 26.4806 19.9255C26.4332 20 26.5379 19.8682 26.4758 19.9306C26.4401 19.9623 26.4061 19.9959 26.374 20.0311C26.343 20.0706 26.449 19.9832 26.3791 20.0271C26.357 20.0412 26.3356 20.0563 26.3129 20.0697C26.2976 20.0785 26.2821 20.0871 26.2663 20.0951L26.2424 20.1069C26.2042 20.1242 26.2099 20.1221 26.2596 20.1004C26.2382 20.1243 26.1557 20.1348 26.1276 20.1417C26.1041 20.1452 26.0808 20.1501 26.0579 20.1564C26.0292 20.1614 26.0388 20.1602 26.0875 20.1535C26.0684 20.1558 26.0482 20.1575 26.0283 20.1589C25.9778 20.1625 25.9272 20.1631 25.8766 20.1606C25.8522 20.1595 25.8274 20.1551 25.8031 20.1549C25.7458 20.1549 25.8929 20.1764 25.805 20.1533C25.7596 20.1415 25.7141 20.1325 25.6696 20.1174L25.6436 20.1085C25.6043 20.0932 25.6094 20.0957 25.6591 20.1159C25.6335 20.1072 25.6092 20.0949 25.5871 20.0794C25.5484 20.0575 25.511 20.0332 25.4752 20.0068C25.5596 20.0682 25.4538 19.9826 25.4332 19.9612C25.4125 19.9398 25.3976 19.9213 25.3799 19.9014C25.4393 19.9681 25.3967 19.9249 25.3835 19.9031C25.3558 19.8575 25.3329 19.8036 25.3025 19.7603C25.3296 19.8451 25.2722 19.7169 25.3025 19.7603C25.2939 19.7328 25.2834 19.706 25.276 19.6783C25.2624 19.6308 25.2531 19.5828 25.2441 19.534C25.2468 19.5477 25.2508 19.6168 25.2466 19.5445C25.2447 19.5129 25.242 19.4818 25.2414 19.4501C25.2414 19.4295 25.2414 19.4087 25.2414 19.3878C25.2414 19.367 25.258 19.2351 25.2414 19.3411C25.2505 19.2833 25.2637 19.2264 25.2807 19.1705C25.2865 19.1514 25.2934 19.1342 25.2998 19.1159C25.3153 19.0761 25.3133 19.0801 25.2939 19.1277C25.3019 19.1103 25.3102 19.0933 25.3189 19.0765C25.3457 19.0266 25.3757 18.9785 25.4087 18.9325C25.4011 18.9432 25.3558 18.9925 25.4018 18.9438C25.4276 18.9165 25.4525 18.8886 25.48 18.8628C25.4939 18.85 25.5084 18.8382 25.5224 18.8256C25.4496 18.892 25.5399 18.8147 25.5606 18.8023C25.5766 18.7921 25.5932 18.7832 25.6098 18.7734C25.6205 18.7675 25.7206 18.7249 25.6687 18.7432C25.6114 18.7635 25.7026 18.7331 25.7055 18.7322C25.7389 18.7217 25.7727 18.7129 25.8069 18.7056C25.8297 18.7008 25.8986 18.694 25.8113 18.7024C25.8537 18.6982 25.8956 18.6961 25.9381 18.6955C26.0395 18.6955 26.1366 18.6553 26.2082 18.5836C26.2799 18.512 26.3201 18.4148 26.3201 18.3135C26.3201 18.2122 26.2799 18.1151 26.2082 18.0434C26.1366 17.9718 26.0395 17.9315 25.9381 17.9315L25.9355 17.9327Z" fill="#211715"/>
<path d="M42.6677 45.5415C42.5238 45.541 42.3813 45.5694 42.2486 45.625C42.116 45.6806 41.9958 45.7624 41.8954 45.8653C41.7949 45.9683 41.7161 46.0904 41.6638 46.2244C41.6115 46.3584 41.5866 46.5016 41.5907 46.6454C41.581 46.7916 41.6019 46.9382 41.6519 47.0759C41.702 47.2135 41.7802 47.3393 41.8815 47.4451C41.9828 47.551 42.105 47.6346 42.2403 47.6906C42.3757 47.7467 42.5212 47.774 42.6677 47.7707C43.3191 47.7707 43.7447 47.3076 43.7447 46.6454C43.7489 46.5016 43.7241 46.3583 43.6718 46.2243C43.6195 46.0902 43.5408 45.968 43.4403 45.865C43.3398 45.762 43.2196 45.6803 43.0869 45.6247C42.9541 45.5691 42.8116 45.5408 42.6677 45.5415Z" fill="white"/>
<path d="M42.6677 45.1595C42.3554 45.1612 42.0519 45.2627 41.8014 45.449C41.5509 45.6354 41.3664 45.8969 41.275 46.1954C41.1857 46.4804 41.1804 46.785 41.2597 47.0729C41.339 47.3608 41.4995 47.6198 41.7221 47.8189C41.9552 48.0174 42.2447 48.138 42.5499 48.1635C42.8551 48.189 43.1606 48.1182 43.4234 47.9611C43.6863 47.804 43.8933 47.5684 44.0153 47.2875C44.1373 47.0066 44.1683 46.6946 44.1037 46.3952C44.0504 46.0522 43.8765 45.7394 43.6133 45.5131C43.3501 45.2867 43.0148 45.1616 42.6677 45.1602C42.5664 45.1602 42.4692 45.2005 42.3976 45.2721C42.3259 45.3438 42.2857 45.4409 42.2857 45.5422C42.2857 45.6435 42.3259 45.7407 42.3976 45.8123C42.4692 45.884 42.5664 45.9242 42.6677 45.9242C42.6996 45.9242 42.7311 45.9271 42.7632 45.928C42.8611 45.9313 42.7114 45.9139 42.7687 45.928C42.8216 45.9416 42.8747 45.955 42.9276 45.9693C42.9457 45.9743 42.9939 45.9981 42.9177 45.9626C42.9438 45.9748 42.9698 45.9871 42.995 46.0008C43.0118 46.01 43.0283 46.0199 43.0443 46.0296C43.0634 46.0417 43.1556 46.1188 43.0825 46.0526C43.1174 46.0841 43.1524 46.1148 43.1843 46.1496C43.1971 46.1633 43.2089 46.1779 43.2213 46.192C43.1579 46.1206 43.2173 46.1882 43.2288 46.2054C43.2552 46.2451 43.276 46.2869 43.2991 46.3284C43.3426 46.4061 43.2884 46.2762 43.3006 46.3284C43.3081 46.3604 43.3235 46.3921 43.3325 46.4238C43.3457 46.4709 43.3561 46.5188 43.3636 46.5671C43.3468 46.4643 43.3636 46.6169 43.3636 46.6452C43.3636 46.6968 43.3594 46.7476 43.3558 46.799C43.3631 46.6996 43.3558 46.7946 43.3518 46.8144C43.3463 46.8427 43.3398 46.8717 43.3327 46.8985C43.3204 46.9434 43.3057 46.9877 43.2886 47.031C43.3268 46.9321 43.2639 47.0719 43.2489 47.0965C43.2374 47.1156 43.2246 47.1334 43.2128 47.1519C43.1656 47.2266 43.2701 47.0946 43.208 47.1573C43.1723 47.1889 43.1383 47.2224 43.1062 47.2575C43.0752 47.2973 43.1812 47.2096 43.1113 47.2537C43.0892 47.2676 43.0678 47.2829 43.0451 47.2961C43.0298 47.3051 43.0143 47.3135 42.9985 47.3217L42.9746 47.3335C42.9364 47.3509 42.9423 47.3486 42.9918 47.327C42.9704 47.3507 42.8881 47.3614 42.8598 47.3683C42.8363 47.3717 42.813 47.3766 42.7901 47.383C42.7614 47.3877 42.7713 47.3867 42.8197 47.38C42.8006 47.3822 42.7803 47.3842 42.7605 47.3855C42.71 47.389 42.6594 47.3896 42.6088 47.3872C42.5846 47.3861 42.5596 47.3817 42.5353 47.3813C42.478 47.3813 42.6251 47.4031 42.5372 47.38C42.4918 47.3679 42.4463 47.3589 42.4018 47.344L42.3758 47.3349C42.3365 47.3196 42.3417 47.3221 42.3915 47.3425C42.3658 47.3338 42.3415 47.3215 42.3193 47.3058C42.2806 47.284 42.2432 47.2598 42.2074 47.2335C42.2918 47.2948 42.186 47.209 42.1654 47.1876C42.1447 47.1662 42.1298 47.1479 42.1121 47.1278C42.1715 47.1947 42.1289 47.1515 42.1157 47.1298C42.088 47.0839 42.0651 47.0302 42.0347 46.9869C42.0618 47.0717 42.0043 46.9435 42.0347 46.9869C42.0261 46.9596 42.0156 46.9328 42.0082 46.9051C41.9946 46.8576 41.9852 46.8097 41.9763 46.7608C41.9789 46.7745 41.983 46.8435 41.9788 46.7711C41.9768 46.7398 41.9742 46.7084 41.9736 46.6769C41.9736 46.6561 41.9736 46.6353 41.9736 46.6147C41.9736 46.594 41.9902 46.4619 41.9736 46.5679C41.9826 46.5101 41.9957 46.4532 42.0128 46.3973C42.0185 46.3782 42.0254 46.361 42.0319 46.3427C42.0473 46.303 42.0453 46.3068 42.0259 46.3543C42.034 46.3371 42.0422 46.3201 42.051 46.3031C42.0777 46.2532 42.1077 46.2051 42.1407 46.1591C42.1331 46.17 42.0878 46.2193 42.1338 46.1706C42.1596 46.1431 42.1845 46.1152 42.2121 46.0896C42.2259 46.0768 42.2404 46.065 42.2544 46.0514C42.1816 46.1177 42.2719 46.0405 42.2926 46.0281C42.3088 46.018 42.3252 46.009 42.3418 45.9991C42.3525 45.9934 42.4526 45.9508 42.4007 45.9689C42.3424 45.9893 42.4347 45.9588 42.4375 45.9578C42.4709 45.9473 42.5047 45.9385 42.5389 45.9315C42.5617 45.9267 42.6306 45.9198 42.5433 45.928C42.5857 45.924 42.6276 45.9217 42.6701 45.9212C42.7715 45.9212 42.8686 45.8809 42.9403 45.8093C43.0119 45.7376 43.0521 45.6405 43.0521 45.5392C43.0521 45.4379 43.0119 45.3407 42.9403 45.2691C42.8686 45.1974 42.7715 45.1572 42.6701 45.1572L42.6677 45.1595Z" fill="#211715"/>
<path d="M31.594 30.9048C31.5759 30.953 31.5589 30.9998 31.543 31.0454C31.5048 31.1504 31.4704 31.2574 31.4398 31.3644C31.4193 31.4245 31.4109 31.4881 31.415 31.5515C31.4522 31.6505 31.5102 31.7404 31.585 31.8151C31.585 31.8151 31.6041 31.838 31.6354 31.8724C33.2015 31.8735 35.7641 31.8762 37.2345 31.8774L37.2727 31.822C37.3534 31.7476 37.4144 31.6544 37.4503 31.5508C37.4545 31.4873 37.446 31.4237 37.4255 31.3636C37.395 31.2566 37.3606 31.1497 37.3224 31.0446C37.2403 30.8078 37.1295 30.5099 36.9003 30.4144C36.7411 30.366 36.57 30.3755 36.4171 30.4411C35.7585 30.6623 35.1253 30.953 34.5282 31.3082C34.4976 31.3254 34.4632 31.3346 34.4282 31.335C34.3931 31.3353 34.3585 31.3267 34.3276 31.3101C33.7284 30.9648 33.0994 30.674 32.4483 30.4411C32.2954 30.3755 32.1243 30.366 31.9651 30.4144C31.7899 30.5142 31.661 30.6788 31.606 30.8727L31.594 30.9048Z" fill="#F2635F"/>
<path d="M31.9049 31.6021C31.8873 31.583 31.8392 31.508 31.8134 31.4961C31.7854 31.4391 31.7784 31.4495 31.7924 31.5275L31.8083 31.4658C31.8902 31.3145 31.9104 31.1153 31.983 30.957C32.0233 30.8693 32.0579 30.7801 32.1549 30.766C32.3229 30.7823 32.486 30.8312 32.6353 30.91C32.9661 31.0404 33.2888 31.1908 33.6015 31.3602C33.8828 31.5065 34.2297 31.7838 34.5647 31.7013C34.7264 31.6444 34.8804 31.5674 35.023 31.4721C35.1758 31.3894 35.3295 31.3096 35.4841 31.2326C35.7919 31.0782 36.1104 30.9461 36.4371 30.8372C36.5311 30.8067 36.6929 30.7251 36.7828 30.7912C36.8572 30.8756 36.9094 30.9773 36.9345 31.087C36.9654 31.173 36.9954 31.2589 37.0225 31.3462C37.0347 31.3844 37.0653 31.5785 37.0798 31.4906C37.0928 31.4068 37.0017 31.5573 36.9752 31.5918C36.9513 31.6226 36.9291 31.6537 36.907 31.6858C36.6272 32.0915 37.289 32.474 37.5667 32.0714C37.7376 31.8231 37.8805 31.6512 37.8121 31.325C37.7504 31.0193 37.6386 30.726 37.4813 30.4568C37.0128 29.7079 36.1736 30.0948 35.5332 30.372C35.2014 30.5156 34.8792 30.6798 34.5627 30.8538C34.5159 30.8873 34.4655 30.9153 34.4124 30.9375C34.4235 30.936 34.5079 30.9503 34.4082 30.9214C34.3282 30.8885 34.2515 30.8481 34.179 30.8007C34.0136 30.7136 33.8481 30.6267 33.6807 30.5437C33.343 30.3715 32.9934 30.2234 32.6347 30.1008C32.2932 29.9881 31.928 29.9422 31.628 30.1806C31.3279 30.4189 31.2034 30.83 31.097 31.1831C31.0247 31.3629 31.0197 31.5628 31.0829 31.746C31.1559 31.8924 31.2516 32.0264 31.3663 32.143C31.691 32.5139 32.2288 31.9711 31.9066 31.6027L31.9049 31.6021Z" fill="#211715"/>
<path d="M30.6169 31.8728C32.004 31.8728 37.3923 31.8787 38.2525 31.8787C38.2525 32.8829 38.2447 36.6821 38.2447 37.6025C37.368 37.6025 32.0325 37.5966 30.6128 37.5966C30.6128 37.3539 30.6188 33.1576 30.6169 31.8728Z" fill="white"/>
<path d="M35.2778 32.0999C35.2778 32.0208 35.2778 31.9471 35.2778 31.881C34.7209 31.8758 34.1386 31.8753 33.5763 31.8749C33.5763 32.3608 33.5782 33.2009 33.5801 34.1427C33.5832 35.6051 33.5872 36.5784 33.5881 37.5997L35.2899 37.6012C35.2887 36.5805 35.2847 35.607 35.2818 34.1431C35.2799 33.3333 35.2782 32.5993 35.2778 32.0999Z" fill="#F2635F"/>
<path d="M34.8956 31.8818C34.8956 33.7861 34.9056 35.6907 34.9075 37.5951C34.9075 38.0867 35.6715 38.0876 35.6715 37.5951C35.6695 35.6907 35.6598 33.7861 35.6596 31.8818C35.6596 31.3901 34.8956 31.3894 34.8956 31.8818Z" fill="#211715"/>
<path d="M33.1941 31.8818C33.1941 33.7859 33.2038 35.6901 33.2059 37.5943C33.2059 38.0859 33.9699 38.0867 33.9699 37.5943C33.9678 35.6901 33.9583 33.7859 33.9581 31.8818C33.9581 31.3903 33.1941 31.3894 33.1941 31.8818Z" fill="#211715"/>
<path d="M30.6169 32.2548C32.7824 32.2548 34.9481 32.2565 37.1138 32.2599C37.4934 32.2599 37.8729 32.2599 38.2525 32.2599L37.8705 31.8779C37.8684 33.7859 37.8658 35.6939 37.8627 37.6018L38.2447 37.2198C36.1736 37.2198 34.1024 37.2181 32.0311 37.2146C31.5584 37.2146 31.0856 37.2146 30.6128 37.2146L30.9948 37.5966C30.9948 36.0958 30.9962 34.5949 30.999 33.094C30.999 32.6865 30.999 32.2795 30.999 31.8728C30.999 31.3814 30.2351 31.3804 30.2351 31.8728C30.2374 33.5545 30.2363 35.2363 30.2318 36.918C30.2318 37.1441 30.2318 37.3703 30.2318 37.5966C30.2333 37.6974 30.274 37.7938 30.3453 37.8651C30.4167 37.9364 30.513 37.9771 30.6138 37.9786C32.7784 37.9786 34.9429 37.9803 37.1075 37.9837C37.4872 37.9837 37.8668 37.9837 38.2462 37.9837C38.3471 37.9823 38.4434 37.9416 38.5147 37.8703C38.5861 37.7989 38.6268 37.7026 38.6282 37.6018C38.6282 35.6939 38.6308 33.7859 38.636 31.8779C38.6346 31.7771 38.5939 31.6807 38.5226 31.6094C38.4513 31.538 38.3549 31.4973 38.254 31.4959C36.1786 31.4959 34.1035 31.4942 32.0289 31.4908C31.5589 31.4908 31.0887 31.4908 30.6184 31.4908C30.1252 31.4908 30.1245 32.2548 30.6169 32.2548Z" fill="#211715"/>
</g>
<defs>
<clipPath id="clip0_22_20">
<rect width="60" height="60" fill="white" transform="translate(0.717705 0.234451)"/>
</clipPath>
</defs>
</svg>
