<svg width="60" height="60" viewBox="0 0 60 60" fill="none" xmlns="http://www.w3.org/2000/svg">
<path d="M29.9342 35.7974C35.1411 35.7974 39.3622 33.6868 39.3622 31.0833C39.3622 28.4798 35.1411 26.3692 29.9342 26.3692C24.7272 26.3692 20.5061 28.4798 20.5061 31.0833C20.5061 33.6868 24.7272 35.7974 29.9342 35.7974Z" fill="white"/>
<path d="M39.1179 29.8212C39.6178 30.2527 39.9342 30.8909 39.9342 31.603C39.9342 32.9025 38.8806 33.956 37.5813 33.956C37.5813 35.2554 36.5277 36.3089 35.2283 36.3089C34.7841 36.3089 34.3733 36.1786 34.0188 35.9647C34.1236 36.6759 33.9101 37.4252 33.3626 37.9727C32.4438 38.8916 30.9539 38.8916 30.0352 37.9727C29.9968 37.9343 29.9698 37.8898 29.9348 37.8498C29.5033 38.3434 28.8766 38.6618 28.1695 38.6618C26.8701 38.6618 25.8165 37.6083 25.8165 36.3089C25.8165 36.1907 25.8345 36.0772 25.8513 35.9637C25.4966 36.1782 25.085 36.3089 24.6401 36.3089C23.3407 36.3089 22.2871 35.2554 22.2871 33.956C21.685 33.956 21.0828 33.7262 20.6234 33.2668C19.7044 32.3479 19.7044 30.8581 20.6234 29.9393" fill="white"/>
<path d="M20.8538 16.9333C21.2753 11.3968 25.7675 7.75 29.9342 7.75C34.9342 7.75 37.4363 8.90833 39.0022 9.73275C47.7462 14.3361 46.3193 24.187 45.646 28.6C45.6873 28.5968 45.7253 28.5833 45.7675 28.5833C46.3857 28.5833 46.919 28.9238 47.2068 29.4237C47.7836 29.4229 48.3452 29.7146 48.6543 30.25C48.9633 30.7853 48.9353 31.4176 48.6461 31.9167C48.9353 32.4157 48.9633 33.0479 48.6543 33.5833C48.3452 34.1187 47.7837 34.4103 47.2069 34.4096C46.9191 34.9095 46.3857 35.25 45.7675 35.25C45.1493 35.25 44.6158 34.9095 44.3281 34.4096C43.7513 34.4103 43.1898 34.1187 42.8808 33.5833C42.5717 33.0479 42.5998 32.4157 42.8888 31.9167C42.5998 31.4176 42.5717 30.7853 42.8808 30.25C42.9259 30.1717 42.9866 30.1099 43.0418 30.0422L42.1824 29.6394L20.8538 16.9333Z" fill="#EA5A47"/>
<path d="M21.161 17.2224L37.4342 16.9167C37.4342 16.9167 40.7675 14.4167 36.6008 8.58334C48.2675 11.9167 45.8288 27.5838 45.8373 27.6973C45.8216 27.676 45.773 27.7678 45.646 28.6C45.6873 28.5968 45.7253 28.5833 45.7675 28.5833L42.8808 30.25C42.9259 30.1717 42.9866 30.1099 43.0418 30.0422L42.1588 30.5134L21.161 17.2224Z" fill="#D22F27"/>
<path d="M45.8373 27.6973C45.8479 27.7118 45.8432 27.7763 45.8373 27.6973Z" fill="#D22F27"/>
<path d="M42.4341 31.9167C42.4341 33.7576 43.9265 35.25 45.7675 35.25C47.6084 35.25 49.1008 33.7576 49.1008 31.9167C49.1008 30.0757 47.6084 28.5833 45.7675 28.5833C44.1008 29.4167 44.1008 29.4167 43.0207 30.0276C42.6507 30.5645 42.4341 31.2153 42.4341 31.9167Z" fill="white"/>
<path d="M13.3781 48.7998C11.6151 47.2718 10.5 45.0162 10.5 42.5001C10.5 38.7476 13.8237 36.1284 16.8581 35.2889C18.0029 34.9723 19.2242 35.3155 20.0084 36.2078C21.8402 38.2921 25.0472 42.8706 23.8333 48.3333" fill="#6A462F"/>
<path d="M38.9526 16.9167H20.9158C20.3736 16.9167 19.9342 17.2646 19.9342 17.6937V20.3062C19.9342 20.7354 20.3736 21.0833 20.9158 21.0833H21.1625H38.9526C39.4947 21.0833 39.9342 20.7354 39.9342 20.3062V17.6937C39.9342 17.2646 39.4947 16.9167 38.9526 16.9167Z" fill="white"/>
<path d="M45.6633 50.75C45.6633 50.75 47.33 39.1667 37.33 39.1667C34.6701 40.9399 32.3913 42.1653 29.83 42.1601H29.9342C27.3728 42.1653 25.094 40.9399 22.4342 39.1667C12.4342 39.1667 14.1008 50.75 14.1008 50.75" fill="#EA5A47"/>
<path d="M37.33 39.1667C34.6884 40.9278 33.2675 41.6667 29.8821 42.1572C40.7675 42.5 40.7675 47.4167 41.4026 50.75C44.9342 50.75 45.6633 50.75 45.6633 50.75C45.6633 50.75 47.33 39.1667 37.33 39.1667Z" fill="#D22F27"/>
<path d="M32.4342 50.8333V45.9088C37.0238 45.6205 40.3669 43.5801 41.5792 40.0538C40.4713 39.5046 39.0833 39.1667 37.33 39.1667C34.6884 40.9278 32.4221 42.1455 29.8821 42.1572C27.3421 42.1455 25.0757 40.9278 22.4342 39.1667C20.728 39.1667 19.3682 39.4872 18.275 40.0103C20.3347 43.4443 23.3933 45.3148 27.4342 45.8094V50.8333" fill="white"/>
<path d="M10.5 42.5001C10.5 38.7476 13.8237 36.1284 16.8581 35.2889C18.0029 34.9723 19.2242 35.3155 20.0084 36.2078C21.8402 38.2921 25.0472 42.8706 23.8333 48.3333C23.8333 48.3333 16.3333 40.8333 14.6667 40.8333" fill="#A57939"/>
<path d="M38.7834 21.1006C39.171 22.3915 39.383 23.7898 39.383 25.25C39.383 26.7409 39.1008 29.4167 38.7587 29.4808C34.1008 26.9167 28.1627 25.5209 21.1317 29.5521C20.7675 28.5833 20.4853 26.7679 20.4853 25.25C20.4853 24.0203 20.6357 22.8344 20.9147 21.7197" fill="#FCEA2B"/>
<path d="M39.1179 29.8212C39.6178 30.2527 39.9342 30.8909 39.9342 31.603C39.9342 32.9025 38.8806 33.956 37.5813 33.956C37.5813 35.2554 36.5277 36.3089 35.2283 36.3089C34.7841 36.3089 34.3733 36.1786 34.0188 35.9647C34.1236 36.6759 33.9101 37.4252 33.3626 37.9727C32.4438 38.8916 30.9539 38.8916 30.0352 37.9727C29.9968 37.9343 29.9698 37.8898 29.9348 37.8498C29.5033 38.3434 28.8766 38.6618 28.1695 38.6618C26.8701 38.6618 25.8165 37.6083 25.8165 36.3089C25.8165 36.1907 25.8345 36.0772 25.8513 35.9637C25.4966 36.1782 25.085 36.3089 24.6401 36.3089C23.3407 36.3089 22.2871 35.2554 22.2871 33.956C21.685 33.956 21.0828 33.7262 20.6234 33.2668C19.7044 32.3479 19.7044 30.8581 20.6234 29.9393" stroke="black" stroke-width="1.66667" stroke-miterlimit="10" stroke-linecap="round" stroke-linejoin="round"/>
<path d="M13.3781 48.7998C11.6151 47.2718 10.5 45.0162 10.5 42.5001C10.5 38.7476 13.8237 36.1284 16.8581 35.2889C18.0029 34.9723 19.2242 35.3155 20.0084 36.2078C21.8402 38.2921 25.0472 42.8706 23.8333 48.3333" stroke="black" stroke-width="1.66667" stroke-miterlimit="10" stroke-linecap="round" stroke-linejoin="round"/>
<path d="M38.7834 21.1006C39.171 22.3915 39.383 23.7898 39.383 25.25C39.383 26.7409 39.1008 29.4167 38.7587 29.4808C34.1008 26.9167 28.1627 25.5209 21.1317 29.5521C20.7675 28.5833 20.4853 26.7679 20.4853 25.25C20.4853 24.0203 20.6357 22.8344 20.9147 21.7197" stroke="black" stroke-width="1.66667" stroke-miterlimit="10" stroke-linecap="round" stroke-linejoin="round"/>
<path d="M24.934 24.116C24.934 25.0364 25.6811 25.7827 26.6007 25.7827C27.5202 25.7827 28.2673 25.0364 28.2673 24.116C28.2673 23.1964 27.5202 22.4493 26.6007 22.4493C25.6811 22.4493 24.934 23.1964 24.934 24.116Z" fill="black"/>
<path d="M31.6007 24.116C31.6007 25.0364 32.3478 25.7827 33.2673 25.7827C34.1869 25.7827 34.934 25.0364 34.934 24.116C34.934 23.1964 34.1869 22.4493 33.2673 22.4493C32.3478 22.4493 31.6007 23.1964 31.6007 24.116Z" fill="black"/>
<path d="M29.9342 32.4513C30.894 32.4513 31.8539 32.2129 32.8068 31.7364C33.2187 31.5305 33.3855 31.03 33.1796 30.6183C32.9741 30.2068 32.4744 30.0397 32.0614 30.2455C30.6299 30.9617 29.2383 30.9617 27.8068 30.2455C27.3947 30.0397 26.8946 30.2068 26.6887 30.6183C26.4828 31.03 26.6497 31.5305 27.0614 31.7364C28.0144 32.2129 28.9742 32.4513 29.9342 32.4513Z" fill="black"/>
<path d="M39.0146 16.9332C38.9532 16.1273 38.8563 15.3615 38.7154 14.6411" stroke="black" stroke-width="1.66667" stroke-miterlimit="10" stroke-linecap="round" stroke-linejoin="round"/>
<path d="M38.9526 16.9167H20.9158C20.3736 16.9167 19.9342 17.2646 19.9342 17.6937V20.3062C19.9342 20.7354 20.3736 21.0833 20.9158 21.0833H21.1625H38.9526C39.4947 21.0833 39.9342 20.7354 39.9342 20.3062V17.6937C39.9342 17.2646 39.4947 16.9167 38.9526 16.9167Z" stroke="black" stroke-width="1.66667" stroke-miterlimit="10" stroke-linecap="round" stroke-linejoin="round"/>
<path d="M20.8538 16.9333C21.2753 11.3968 25.7675 7.75 29.9342 7.75C34.9342 7.75 37.4363 8.90833 39.0022 9.73275C47.7462 14.3361 46.3193 24.187 45.646 28.6C45.6873 28.5968 45.7253 28.5833 45.7675 28.5833C46.3857 28.5833 46.919 28.9238 47.2068 29.4237C47.7836 29.4229 48.3452 29.7146 48.6543 30.25C48.9633 30.7853 48.9353 31.4176 48.6461 31.9167C48.9353 32.4157 48.9633 33.0479 48.6543 33.5833C48.3452 34.1187 47.7837 34.4103 47.2069 34.4096C46.9191 34.9095 46.3857 35.25 45.7675 35.25C45.1493 35.25 44.6158 34.9095 44.3281 34.4096C43.7513 34.4103 43.1898 34.1187 42.8808 33.5833C42.5717 33.0479 42.5998 32.4157 42.8888 31.9167C42.5998 31.4176 42.5717 30.7853 42.8808 30.25C42.9259 30.1717 42.9866 30.1099 43.0418 30.0422L42.1824 29.6394" stroke="black" stroke-width="1.66667" stroke-miterlimit="10" stroke-linecap="round" stroke-linejoin="round"/>
<path d="M13.3781 48.7998C11.6151 47.2718 10.5 45.0162 10.5 42.5001C10.5 38.7476 13.8237 36.1284 16.8581 35.2889C18.0029 34.9723 19.2242 35.3155 20.0084 36.2078C21.8402 38.2921 25.0472 42.8706 23.8333 48.3333C23.8333 48.3333 16.3333 40.8333 14.6667 40.8333" stroke="black" stroke-width="1.66667" stroke-miterlimit="10" stroke-linecap="round" stroke-linejoin="round"/>
<path d="M20.8538 16.9333C21.2753 11.3968 25.7675 7.75 29.9342 7.75C34.9342 7.75 37.4363 8.90833 39.0022 9.73275C47.7462 14.3361 46.3193 24.187 45.646 28.6C45.6873 28.5968 45.7253 28.5833 45.7675 28.5833C46.3857 28.5833 46.919 28.9238 47.2068 29.4237C47.7836 29.4229 48.3452 29.7146 48.6543 30.25C48.9633 30.7853 48.9353 31.4176 48.6461 31.9167C48.9353 32.4157 48.9633 33.0479 48.6543 33.5833C48.3452 34.1187 47.7837 34.4103 47.2069 34.4096C46.9191 34.9095 46.3857 35.25 45.7675 35.25C45.1493 35.25 44.6158 34.9095 44.3281 34.4096C43.7513 34.4103 43.1898 34.1187 42.8808 33.5833C42.5717 33.0479 42.5998 32.4157 42.8888 31.9167C42.5998 31.4176 42.5717 30.7853 42.8808 30.25C42.9259 30.1717 42.9866 30.1099 43.0418 30.0422L42.1824 29.6394" stroke="black" stroke-width="1.66667" stroke-miterlimit="10" stroke-linecap="round" stroke-linejoin="round"/>
<path d="M14.1 49.9984C14.1 49.9984 13.2917 44.7484 16.175 41.5567" stroke="black" stroke-width="1.66667" stroke-miterlimit="10" stroke-linecap="round" stroke-linejoin="round"/>
<path d="M45.6667 49.9984C45.6667 49.9984 46.8 42.6234 41.5833 40.0568C41.4417 39.9901 41.3 39.9234 41.1583 39.8567C41.0083 39.7984 40.8583 39.7401 40.7 39.6818C40.5417 39.6318 40.3833 39.5818 40.2167 39.5318C39.8833 39.4401 39.5333 39.3651 39.1667 39.2984C38.6 39.2151 37.9917 39.1651 37.3333 39.1651C36.8333 39.4984 36.35 39.8151 35.875 40.0984C35.7083 40.1984 35.55 40.2984 35.3833 40.3901C35.2333 40.4734 35.0833 40.5568 34.9333 40.6401C34.7833 40.7318 34.6333 40.8151 34.4833 40.8901C34.175 41.0484 33.8667 41.1901 33.5583 41.3234C33.25 41.4568 32.95 41.5734 32.6417 41.6734C32.4917 41.7234 32.3417 41.7734 32.1833 41.8151C32.0667 41.8484 31.95 41.8818 31.8333 41.9068C31.6667 41.9484 31.5083 41.9817 31.35 42.0151C31.3 42.0234 31.2417 42.0318 31.1917 42.0401C30.925 42.0901 30.65 42.1234 30.375 42.1401C30.2167 42.1484 30.05 42.1568 29.8833 42.1568C29.8417 42.1568 29.8083 42.1568 29.7667 42.1568C29.6167 42.1568 29.475 42.1484 29.325 42.1318C29.225 42.1318 29.125 42.1151 29.025 42.1068C28.875 42.0901 28.725 42.0734 28.575 42.0401C28.5 42.0318 28.4167 42.0151 28.3417 41.9984C28.1917 41.9734 28.05 41.9401 27.9 41.9068C27.875 41.8984 27.8417 41.8901 27.8167 41.8818C27.7333 41.8651 27.65 41.8401 27.5667 41.8151C27.4167 41.7734 27.2667 41.7234 27.125 41.6734C26.8167 41.5734 26.5167 41.4568 26.2083 41.3234C24.9833 40.7984 23.7583 40.0484 22.4333 39.1651C22.3333 39.1651 22.2333 39.1651 22.1417 39.1734" stroke="black" stroke-width="1.66667" stroke-miterlimit="10" stroke-linecap="round" stroke-linejoin="round"/>
<path d="M24.0667 44.9901C25.1 45.3901 26.225 45.6651 27.4333 45.8068V49.9984" stroke="black" stroke-width="1.66667" stroke-miterlimit="10" stroke-linecap="round" stroke-linejoin="round"/>
<path d="M32.4333 49.9984V45.9068C37.025 45.6234 40.3667 43.5818 41.5833 40.0568C41.4417 39.9901 41.3 39.9234 41.1583 39.8567C41.0083 39.7984 40.8583 39.7401 40.7 39.6818C40.5417 39.6318 40.3833 39.5818 40.2167 39.5318C39.8833 39.4401 39.5333 39.3651 39.1667 39.2984C38.6 39.2151 37.9917 39.1651 37.3333 39.1651C36.8333 39.4984 36.35 39.8151 35.875 40.0984C35.7083 40.1984 35.55 40.2984 35.3833 40.3901C35.2333 40.4818 35.0833 40.5734 34.9333 40.6401C34.7833 40.7318 34.6333 40.8151 34.4833 40.8901C34.175 41.0484 33.8667 41.1901 33.5583 41.3234C33.25 41.4568 32.95 41.5734 32.6417 41.6734C32.4917 41.7318 32.3417 41.7818 32.1833 41.8151C32.0667 41.8484 31.95 41.8818 31.8333 41.9068C31.6667 41.9484 31.5083 41.9817 31.35 42.0151C31.3 42.0234 31.2417 42.0318 31.1917 42.0401C30.925 42.0901 30.65 42.1234 30.375 42.1401C30.2167 42.1484 30.05 42.1568 29.8833 42.1568C29.8417 42.1568 29.8083 42.1568 29.7667 42.1568C29.6167 42.1568 29.475 42.1484 29.325 42.1318C29.225 42.1318 29.125 42.1151 29.025 42.1068C28.875 42.0901 28.725 42.0734 28.575 42.0401C28.5 42.0318 28.4167 42.0151 28.3417 41.9984C28.1667 41.9651 27.9917 41.9234 27.8167 41.8818C27.7333 41.8651 27.65 41.8401 27.5667 41.8151C27.4167 41.7734 27.2667 41.7234 27.125 41.6734C26.8167 41.5734 26.5167 41.4568 26.2083 41.3234C24.9833 40.7984 23.7583 40.0484 22.4333 39.1651C22.3333 39.1651 22.2333 39.1651 22.1417 39.1734" stroke="black" stroke-width="1.66667" stroke-miterlimit="10" stroke-linecap="round" stroke-linejoin="round"/>
<path d="M10.5 42.5001C10.5 38.7476 13.8237 36.1284 16.8581 35.2889C18.0029 34.9723 19.2242 35.3155 20.0084 36.2078C21.8402 38.2921 25.0472 42.8706 23.8333 48.3333C23.8333 48.3333 16.3333 40.8333 14.6667 40.8333" stroke="black" stroke-width="1.66667" stroke-miterlimit="10" stroke-linecap="round" stroke-linejoin="round"/>
</svg>
