<svg width="60" height="60" viewBox="0 0 60 60" fill="none" xmlns="http://www.w3.org/2000/svg">
<path d="M30 60C39.2048 60 46.6667 52.5381 46.6667 43.3333C46.6667 34.1286 39.2048 26.6667 30 26.6667C20.7953 26.6667 13.3333 34.1286 13.3333 43.3333C13.3333 52.5381 20.7953 60 30 60Z" fill="#E1E8ED"/>
<path d="M20 18.3333C20 15.6812 21.0536 13.1376 22.9289 11.2623C24.8043 9.3869 27.3478 8.33333 30 8.33333C32.6522 8.33333 35.1957 9.3869 37.0711 11.2623C38.9464 13.1376 40 15.6812 40 18.3333C40 20.9855 38.9464 23.529 37.0711 25.4044C35.1957 27.2798 32.6522 28.3333 30 28.3333C27.3478 28.3333 24.8043 27.2798 22.9289 25.4044C21.0536 23.529 20 20.9855 20 18.3333Z" fill="#E1E8ED"/>
<path d="M38.3333 10C38.3333 10.8841 37.9821 11.7319 37.357 12.357C36.7319 12.9821 35.884 13.3333 35 13.3333H25C24.1159 13.3333 23.2681 12.9821 22.643 12.357C22.0178 11.7319 21.6667 10.8841 21.6667 10V3.33333C21.6667 2.44928 22.0178 1.60143 22.643 0.976311C23.2681 0.35119 24.1159 0 25 0L35 0C35.884 0 36.7319 0.35119 37.357 0.976311C37.9821 1.60143 38.3333 2.44928 38.3333 3.33333V10Z" fill="#414042"/>
<path d="M41.6667 11.6667C41.6667 12.1087 41.4911 12.5326 41.1785 12.8452C40.866 13.1577 40.442 13.3333 40 13.3333H20C19.558 13.3333 19.1341 13.1577 18.8215 12.8452C18.5089 12.5326 18.3333 12.1087 18.3333 11.6667C18.3333 11.2246 18.5089 10.8007 18.8215 10.4882C19.1341 10.1756 19.558 10 20 10H40C40.442 10 40.866 10.1756 41.1785 10.4882C41.4911 10.8007 41.6667 11.2246 41.6667 11.6667Z" fill="#231F20"/>
<path d="M37.5 25H22.5C21.909 24.9953 21.3356 25.2009 20.8822 25.5799C20.4288 25.959 20.1248 26.4869 20.0247 27.0694C19.9245 27.6518 20.0347 28.2509 20.3355 28.7597C20.6362 29.2684 21.1081 29.6537 21.6667 29.8467V41.6667C21.6667 42.1087 21.8423 42.5326 22.1548 42.8452C22.4674 43.1577 22.8913 43.3333 23.3333 43.3333H25C25.442 43.3333 25.866 43.1577 26.1785 42.8452C26.4911 42.5326 26.6667 42.1087 26.6667 41.6667V30H37.5C38.1631 30 38.7989 29.7366 39.2678 29.2678C39.7366 28.7989 40 28.163 40 27.5C40 26.837 39.7366 26.2011 39.2678 25.7322C38.7989 25.2634 38.1631 25 37.5 25Z" fill="#DD2E44"/>
<path d="M31.6667 40C31.677 40.2249 31.6416 40.4496 31.5627 40.6604C31.4837 40.8713 31.3629 41.064 31.2075 41.2268C31.052 41.3897 30.8652 41.5194 30.6583 41.6081C30.4513 41.6968 30.2286 41.7426 30.0034 41.7428C29.7783 41.7431 29.5554 41.6977 29.3483 41.6094C29.1412 41.5211 28.9541 41.3918 28.7983 41.2292C28.6426 41.0667 28.5214 40.8742 28.442 40.6635C28.3627 40.4528 28.3268 40.2283 28.3367 40.0033C28.3554 39.5746 28.5388 39.1696 28.8487 38.8728C29.1585 38.5759 29.571 38.4099 30.0001 38.4095C30.4292 38.4091 30.842 38.5742 31.1524 38.8704C31.4629 39.1667 31.6471 39.5713 31.6667 40ZM31.6667 48.3333C31.677 48.5582 31.6416 48.7829 31.5627 48.9938C31.4837 49.2046 31.3629 49.3973 31.2075 49.5602C31.052 49.723 30.8652 49.8527 30.6583 49.9414C30.4513 50.0301 30.2286 50.0759 30.0034 50.0762C29.7783 50.0764 29.5554 50.031 29.3483 49.9427C29.1412 49.8545 28.9541 49.7251 28.7983 49.5626C28.6426 49.4 28.5214 49.2076 28.442 48.9969C28.3627 48.7862 28.3268 48.5616 28.3367 48.3367C28.3554 47.9079 28.5388 47.503 28.8487 47.2061C29.1585 46.9092 29.571 46.7433 30.0001 46.7428C30.4292 46.7424 30.842 46.9075 31.1524 47.2038C31.4629 47.5001 31.6471 47.9047 31.6667 48.3333Z" fill="#414042"/>
<path d="M31.6667 20C31.677 20.2249 31.6416 20.4496 31.5627 20.6604C31.4837 20.8713 31.3629 21.064 31.2075 21.2268C31.052 21.3897 30.8652 21.5194 30.6583 21.6081C30.4513 21.6968 30.2286 21.7426 30.0034 21.7428C29.7783 21.7431 29.5554 21.6977 29.3483 21.6094C29.1412 21.5211 28.9541 21.3918 28.7983 21.2292C28.6426 21.0667 28.5214 20.8742 28.442 20.6635C28.3627 20.4529 28.3268 20.2283 28.3367 20.0033C28.3554 19.5746 28.5388 19.1696 28.8487 18.8728C29.1585 18.5759 29.571 18.4099 30.0001 18.4095C30.4292 18.4091 30.842 18.5742 31.1524 18.8705C31.4629 19.1667 31.6471 19.5713 31.6667 20Z" fill="#F4900C"/>
<path d="M26.6667 16.6667C26.6667 17.1087 26.4911 17.5326 26.1785 17.8452C25.866 18.1577 25.442 18.3333 25 18.3333C24.558 18.3333 24.1341 18.1577 23.8215 17.8452C23.5089 17.5326 23.3333 17.1087 23.3333 16.6667C23.3333 16.2246 23.5089 15.8007 23.8215 15.4882C24.1341 15.1756 24.558 15 25 15C25.442 15 25.866 15.1756 26.1785 15.4882C26.4911 15.8007 26.6667 16.2246 26.6667 16.6667ZM36.6667 16.6667C36.6667 17.1087 36.4911 17.5326 36.1785 17.8452C35.866 18.1577 35.442 18.3333 35 18.3333C34.558 18.3333 34.1341 18.1577 33.8215 17.8452C33.5089 17.5326 33.3333 17.1087 33.3333 16.6667C33.3333 16.2246 33.5089 15.8007 33.8215 15.4882C34.1341 15.1756 34.558 15 35 15C35.442 15 35.866 15.1756 36.1785 15.4882C36.4911 15.8007 36.6667 16.2246 36.6667 16.6667Z" fill="#414042"/>
<path d="M17.3233 33.4683L11.57 31.0033L10.6583 26.2267C10.5754 25.7924 10.3234 25.4088 9.95774 25.1603C9.59205 24.9118 9.14262 24.8188 8.70833 24.9017C8.27403 24.9845 7.89045 25.2366 7.64197 25.6023C7.39348 25.9679 7.30045 26.4174 7.38333 26.8517L7.87333 29.4183L5.65666 28.4683C5.25044 28.2942 4.79167 28.2885 4.38128 28.4526C3.97088 28.6167 3.64249 28.9371 3.46833 29.3433C3.29417 29.7496 3.28851 30.2083 3.45261 30.6187C3.6167 31.0291 3.9371 31.3575 4.34333 31.5317L5.58166 32.0617L3.82166 33.8217C3.66692 33.9764 3.54417 34.1601 3.46043 34.3623C3.37668 34.5645 3.33358 34.7812 3.33358 35C3.33358 35.2188 3.37668 35.4355 3.46043 35.6377C3.54417 35.8399 3.66692 36.0236 3.82166 36.1783C3.9764 36.3331 4.16011 36.4558 4.36228 36.5396C4.56446 36.6233 4.78116 36.6664 4.99999 36.6664C5.21883 36.6664 5.43552 36.6233 5.6377 36.5396C5.83988 36.4558 6.02359 36.3331 6.17833 36.1783L8.87999 33.4767L16.01 36.5317C16.2111 36.6179 16.4273 36.6637 16.6461 36.6664C16.865 36.6691 17.0822 36.6286 17.2854 36.5474C17.4886 36.4661 17.6738 36.3457 17.8304 36.1928C17.9871 36.04 18.1121 35.8578 18.1983 35.6567C18.2846 35.4555 18.3303 35.2394 18.333 35.0205C18.3357 34.8017 18.2953 34.5845 18.214 34.3813C18.1328 34.1781 18.0123 33.9929 17.8595 33.8362C17.7067 33.6796 17.5245 33.5546 17.3233 33.4683ZM55.5267 28.4183L53.085 27.605L54.51 26.18C54.6647 26.0253 54.7875 25.8416 54.8712 25.6394C54.955 25.4372 54.9981 25.2205 54.9981 25.0017C54.9981 24.7828 54.955 24.5661 54.8712 24.364C54.7875 24.1618 54.6647 23.9781 54.51 23.8233C54.3553 23.6686 54.1715 23.5458 53.9694 23.4621C53.7672 23.3784 53.5505 23.3353 53.3317 23.3353C53.1128 23.3353 52.8961 23.3784 52.694 23.4621C52.4918 23.5458 52.3081 23.6686 52.1533 23.8233L50.9017 25.075L49.9483 21.2633C49.8951 21.0511 49.8007 20.8515 49.6703 20.6758C49.54 20.5001 49.3763 20.3518 49.1887 20.2394C49.001 20.127 48.7931 20.0526 48.5767 20.0205C48.3603 19.9884 48.1397 19.9993 47.9275 20.0525C47.7153 20.1057 47.5157 20.2001 47.34 20.3305C47.1643 20.4608 47.016 20.6245 46.9035 20.8121C46.7911 20.9998 46.7167 21.2078 46.6847 21.4242C46.6526 21.6405 46.6635 21.8611 46.7167 22.0733L48.1533 27.8233L42.1533 33.8233C41.841 34.1361 41.6658 34.5601 41.6661 35.002C41.6664 35.444 41.8423 35.8677 42.155 36.18C42.4677 36.4923 42.8917 36.6676 43.3337 36.6672C43.7756 36.6669 44.1994 36.4911 44.5117 36.1783L50.45 30.24L54.4717 31.5817C54.6794 31.6509 54.8987 31.6786 55.1171 31.6631C55.3355 31.6476 55.5487 31.5893 55.7446 31.4914C55.9404 31.3935 56.1151 31.258 56.2586 31.0926C56.402 30.9272 56.5116 30.7352 56.5808 30.5275C56.6501 30.3198 56.6778 30.1005 56.6623 29.8821C56.6468 29.6637 56.5885 29.4504 56.4906 29.2546C56.3927 29.0587 56.2572 28.8841 56.0918 28.7406C55.9264 28.5971 55.7344 28.4876 55.5267 28.4183Z" fill="#FFAC33"/>
<path d="M16.8 3.52167C16.6772 3.33814 16.4867 3.21083 16.2701 3.1677C16.0535 3.12458 15.8287 3.16917 15.645 3.29167L14.1667 4.27667V2.50001C14.1667 2.27899 14.0789 2.06703 13.9226 1.91075C13.7663 1.75447 13.5544 1.66667 13.3333 1.66667C13.1123 1.66667 12.9004 1.75447 12.7441 1.91075C12.5878 2.06703 12.5 2.27899 12.5 2.50001V4.27667L11.0217 3.29167C10.9309 3.22437 10.8275 3.17622 10.7176 3.15014C10.6077 3.12406 10.4936 3.12059 10.3823 3.13995C10.271 3.15932 10.1649 3.2011 10.0702 3.26278C9.97557 3.32445 9.89446 3.40472 9.8318 3.4987C9.76914 3.59269 9.72625 3.69844 9.70572 3.80952C9.68519 3.92059 9.68746 4.03469 9.71239 4.14486C9.73732 4.25504 9.78439 4.35899 9.85073 4.45041C9.91708 4.54183 10.0013 4.61881 10.0983 4.67667L11.8317 5.83334L10.0983 6.98834C9.91423 7.111 9.7864 7.30178 9.74295 7.51869C9.69951 7.73561 9.74401 7.9609 9.86667 8.14501C9.98933 8.32911 10.1801 8.45695 10.397 8.50039C10.6139 8.54384 10.8392 8.49933 11.0233 8.37667L12.5 7.39V9.16667C12.5 9.38769 12.5878 9.59965 12.7441 9.75593C12.9004 9.91221 13.1123 10 13.3333 10C13.5544 10 13.7663 9.91221 13.9226 9.75593C14.0789 9.59965 14.1667 9.38769 14.1667 9.16667V7.39L15.645 8.37501C15.7361 8.43574 15.8382 8.47795 15.9455 8.49922C16.0529 8.52049 16.1634 8.5204 16.2707 8.49897C16.3781 8.47753 16.4801 8.43517 16.5711 8.37429C16.662 8.31342 16.7401 8.23522 16.8008 8.14417C16.8616 8.05312 16.9038 7.951 16.9251 7.84364C16.9463 7.73628 16.9462 7.62578 16.9248 7.51845C16.9034 7.41112 16.861 7.30906 16.8001 7.21811C16.7393 7.12715 16.6611 7.04907 16.57 6.98834L14.835 5.83334L16.5683 4.67834C16.6596 4.61767 16.738 4.53961 16.799 4.44862C16.86 4.35762 16.9025 4.25548 16.924 4.14805C16.9456 4.04061 16.9457 3.92999 16.9244 3.82251C16.9031 3.71503 16.8608 3.6128 16.8 3.52167ZM10.1333 15.1883C10.0106 15.0048 9.81998 14.8775 9.60342 14.8344C9.38687 14.7912 9.16205 14.8358 8.97834 14.9583L7.5 15.9433V14.1667C7.5 13.9457 7.41221 13.7337 7.25593 13.5774C7.09965 13.4211 6.88769 13.3333 6.66667 13.3333C6.44566 13.3333 6.2337 13.4211 6.07742 13.5774C5.92114 13.7337 5.83334 13.9457 5.83334 14.1667V15.9433L4.355 14.9583C4.26428 14.891 4.16083 14.8429 4.05092 14.8168C3.94101 14.7907 3.82695 14.7873 3.71566 14.8066C3.60437 14.826 3.49818 14.8678 3.40355 14.9294C3.30891 14.9911 3.22779 15.0714 3.16514 15.1654C3.10248 15.2594 3.05958 15.3651 3.03905 15.4762C3.01852 15.5873 3.02079 15.7014 3.04572 15.8115C3.07065 15.9217 3.11772 16.0257 3.18407 16.1171C3.25041 16.2085 3.33465 16.2855 3.43167 16.3433L5.165 17.4983L3.43167 18.6533C3.24779 18.776 3.12016 18.9667 3.07687 19.1834C3.03358 19.4002 3.07818 19.6253 3.20084 19.8092C3.3235 19.9931 3.51419 20.1207 3.73095 20.164C3.94771 20.2073 4.17279 20.1627 4.35667 20.04L5.83334 19.0567V20.8333C5.83334 21.0544 5.92114 21.2663 6.07742 21.4226C6.2337 21.5789 6.44566 21.6667 6.66667 21.6667C6.88769 21.6667 7.09965 21.5789 7.25593 21.4226C7.41221 21.2663 7.5 21.0544 7.5 20.8333V19.0567L8.97834 20.0417C9.16222 20.1643 9.3873 20.2089 9.60406 20.1656C9.82082 20.1223 10.0115 19.9947 10.1342 19.8108C10.2568 19.627 10.3014 19.4019 10.2581 19.1851C10.2148 18.9684 10.0872 18.7777 9.90334 18.655L8.16834 17.5L9.90167 16.345C9.99291 16.2843 10.0713 16.2063 10.1323 16.1153C10.1934 16.0243 10.2359 15.9222 10.2574 15.8147C10.2789 15.7073 10.279 15.5967 10.2577 15.4892C10.2365 15.3817 10.1942 15.2795 10.1333 15.1883ZM10.1333 43.5217C10.0108 43.3379 9.82036 43.2102 9.60379 43.1668C9.38721 43.1233 9.16225 43.1677 8.97834 43.29L7.5 44.2767V42.5C7.5 42.279 7.41221 42.067 7.25593 41.9107C7.09965 41.7545 6.88769 41.6667 6.66667 41.6667C6.44566 41.6667 6.2337 41.7545 6.07742 41.9107C5.92114 42.067 5.83334 42.279 5.83334 42.5V44.2767L4.355 43.2917C4.26406 43.2272 4.16109 43.1816 4.05221 43.1576C3.94332 43.1336 3.83074 43.1318 3.72111 43.1521C3.61149 43.1724 3.50706 43.2145 3.414 43.2759C3.32095 43.3373 3.24116 43.4168 3.17937 43.5096C3.11757 43.6024 3.07503 43.7067 3.05426 43.8162C3.03348 43.9257 3.0349 44.0383 3.05843 44.1473C3.08195 44.2563 3.12711 44.3594 3.19122 44.4507C3.25533 44.5419 3.3371 44.6193 3.43167 44.6783L5.165 45.8333L3.43167 46.9883C3.34062 47.0491 3.26243 47.1271 3.20155 47.2181C3.14067 47.3091 3.09831 47.4111 3.07687 47.5184C3.05544 47.6258 3.05535 47.7363 3.07662 47.8436C3.09789 47.951 3.1401 48.0531 3.20084 48.1442C3.26157 48.2352 3.33965 48.3134 3.43061 48.3743C3.52156 48.4352 3.62362 48.4775 3.73095 48.499C3.83828 48.5204 3.94878 48.5205 4.05614 48.4992C4.1635 48.4779 4.26562 48.4357 4.35667 48.375L5.83334 47.39V49.1667C5.83334 49.3877 5.92114 49.5996 6.07742 49.7559C6.2337 49.9122 6.44566 50 6.66667 50C6.88769 50 7.09965 49.9122 7.25593 49.7559C7.41221 49.5996 7.5 49.3877 7.5 49.1667V47.39L8.97834 48.375C9.06939 48.4357 9.17151 48.4779 9.27887 48.4992C9.38623 48.5205 9.49673 48.5204 9.60406 48.499C9.71139 48.4775 9.81345 48.4352 9.9044 48.3743C9.99536 48.3134 10.0734 48.2352 10.1342 48.1442C10.1949 48.0531 10.2371 47.951 10.2584 47.8436C10.2797 47.7363 10.2796 47.6258 10.2581 47.5184C10.2367 47.4111 10.1943 47.3091 10.1335 47.2181C10.0726 47.1271 9.99439 47.0491 9.90334 46.9883L8.16834 45.8333L9.90167 44.6783C9.99291 44.6177 10.0713 44.5396 10.1323 44.4486C10.1934 44.3576 10.2359 44.2555 10.2574 44.148C10.2789 44.0406 10.279 43.93 10.2577 43.8225C10.2365 43.715 10.1942 43.6128 10.1333 43.5217ZM56.5017 15.8333L58.235 14.6783C58.3296 14.6193 58.4113 14.5419 58.4755 14.4507C58.5396 14.3594 58.5847 14.2563 58.6083 14.1473C58.6318 14.0383 58.6332 13.9257 58.6124 13.8162C58.5916 13.7067 58.5491 13.6024 58.4873 13.5096C58.4255 13.4168 58.3457 13.3373 58.2527 13.2759C58.1596 13.2145 58.0552 13.1724 57.9456 13.1521C57.8359 13.1318 57.7234 13.1336 57.6145 13.1576C57.5056 13.1816 57.4026 13.2272 57.3117 13.2917L55.8333 14.2767V12.5C55.8333 12.279 55.7455 12.067 55.5893 11.9107C55.433 11.7545 55.221 11.6667 55 11.6667C54.779 11.6667 54.567 11.7545 54.4107 11.9107C54.2545 12.067 54.1667 12.279 54.1667 12.5V14.2767L52.6883 13.2917C52.5974 13.2272 52.4944 13.1816 52.3855 13.1576C52.2767 13.1336 52.1641 13.1318 52.0544 13.1521C51.9448 13.1724 51.8404 13.2145 51.7473 13.2759C51.6543 13.3373 51.5745 13.4168 51.5127 13.5096C51.4509 13.6024 51.4084 13.7067 51.3876 13.8162C51.3668 13.9257 51.3682 14.0383 51.3918 14.1473C51.4153 14.2563 51.4604 14.3594 51.5246 14.4507C51.5887 14.5419 51.6704 14.6193 51.765 14.6783L53.4983 15.8333L51.765 16.9883C51.674 17.0491 51.5958 17.1272 51.5349 17.2181C51.474 17.3091 51.4316 17.4111 51.4102 17.5184C51.3888 17.6258 51.3887 17.7363 51.41 17.8436C51.4312 17.951 51.4734 18.0531 51.5342 18.1442C51.5949 18.2352 51.673 18.3134 51.7639 18.3743C51.8549 18.4352 51.9569 18.4775 52.0643 18.499C52.1716 18.5204 52.2821 18.5205 52.3895 18.4992C52.4968 18.4779 52.599 18.4357 52.69 18.375L54.1683 17.39V19.1667C54.1683 19.3877 54.2561 19.5996 54.4124 19.7559C54.5687 19.9122 54.7807 20 55.0017 20C55.2227 20 55.4346 19.9122 55.5909 19.7559C55.7472 19.5996 55.835 19.3877 55.835 19.1667V17.39L57.3133 18.375C57.4044 18.4357 57.5065 18.4779 57.6139 18.4992C57.7212 18.5205 57.8317 18.5204 57.9391 18.499C58.0464 18.4775 58.1484 18.4352 58.2394 18.3743C58.3304 18.3134 58.4084 18.2352 58.4692 18.1442C58.5299 18.0531 58.5721 17.951 58.5934 17.8436C58.6147 17.7363 58.6146 17.6258 58.5931 17.5184C58.5717 17.4111 58.5293 17.3091 58.4685 17.2181C58.4076 17.1272 58.3294 17.0491 58.2383 16.9883L56.5017 15.8333ZM56.8 38.5217C56.6775 38.3379 56.487 38.2102 56.2705 38.1668C56.0539 38.1233 55.8289 38.1677 55.645 38.29L54.1667 39.2767V37.5C54.1667 37.279 54.0789 37.067 53.9226 36.9107C53.7663 36.7545 53.5544 36.6667 53.3333 36.6667C53.1123 36.6667 52.9004 36.7545 52.7441 36.9107C52.5878 37.067 52.5 37.279 52.5 37.5V39.2767L51.0217 38.2917C50.9307 38.2272 50.8278 38.1816 50.7189 38.1576C50.61 38.1336 50.4974 38.1318 50.3878 38.1521C50.2782 38.1724 50.1737 38.2145 50.0807 38.2759C49.9876 38.3373 49.9078 38.4168 49.846 38.5096C49.7842 38.6024 49.7417 38.7067 49.7209 38.8162C49.7001 38.9257 49.7016 39.0383 49.7251 39.1473C49.7486 39.2563 49.7938 39.3594 49.8579 39.4507C49.922 39.5419 50.0038 39.6193 50.0983 39.6783L51.8317 40.8333L50.0983 41.9883C50.0073 42.0491 49.9291 42.1271 49.8682 42.2181C49.8073 42.3091 49.765 42.4111 49.7435 42.5184C49.7221 42.6258 49.722 42.7363 49.7433 42.8436C49.7646 42.951 49.8068 43.0531 49.8675 43.1442C49.9282 43.2352 50.0063 43.3134 50.0973 43.3743C50.1882 43.4352 50.2903 43.4775 50.3976 43.499C50.5049 43.5204 50.6154 43.5205 50.7228 43.4992C50.8302 43.4779 50.9323 43.4357 51.0233 43.375L52.5017 42.39V44.1667C52.5017 44.3877 52.5895 44.5996 52.7457 44.7559C52.902 44.9122 53.114 45 53.335 45C53.556 45 53.768 44.9122 53.9243 44.7559C54.0805 44.5996 54.1683 44.3877 54.1683 44.1667V42.39L55.6467 43.375C55.7377 43.4357 55.8398 43.4779 55.9472 43.4992C56.0546 43.5205 56.1651 43.5204 56.2724 43.499C56.3797 43.4775 56.4818 43.4352 56.5727 43.3743C56.6637 43.3134 56.7418 43.2352 56.8025 43.1442C56.8632 43.0531 56.9055 42.951 56.9267 42.8436C56.948 42.7363 56.9479 42.6258 56.9265 42.5184C56.905 42.4111 56.8627 42.3091 56.8018 42.2181C56.7409 42.1271 56.6627 42.0491 56.5717 41.9883L54.8383 40.8333L56.5717 39.6783C56.7547 39.5547 56.8814 39.3637 56.9242 39.1471C56.967 38.9304 56.9223 38.7056 56.8 38.5217ZM49.9017 6.98834L48.1683 5.83334L49.9017 4.67834C49.9962 4.61929 50.078 4.54187 50.1421 4.45066C50.2062 4.35944 50.2514 4.25629 50.2749 4.14731C50.2984 4.03833 50.2999 3.92573 50.2791 3.81619C50.2583 3.70665 50.2158 3.6024 50.154 3.5096C50.0922 3.41679 50.0124 3.33734 49.9193 3.27593C49.8263 3.21452 49.7219 3.17241 49.6122 3.15209C49.5026 3.13176 49.39 3.13365 49.2811 3.15763C49.1723 3.1816 49.0693 3.22718 48.9783 3.29167L47.5 4.27667V2.50001C47.5 2.27899 47.4122 2.06703 47.2559 1.91075C47.0996 1.75447 46.8877 1.66667 46.6667 1.66667C46.4457 1.66667 46.2337 1.75447 46.0774 1.91075C45.9211 2.06703 45.8333 2.27899 45.8333 2.50001V4.27667L44.355 3.29167C44.2641 3.22718 44.1611 3.1816 44.0522 3.15763C43.9433 3.13365 43.8307 3.13176 43.7211 3.15209C43.6115 3.17241 43.5071 3.21452 43.414 3.27593C43.3209 3.33734 43.2412 3.41679 43.1794 3.5096C43.1176 3.6024 43.075 3.70665 43.0543 3.81619C43.0335 3.92573 43.0349 4.03833 43.0584 4.14731C43.082 4.25629 43.1271 4.35944 43.1912 4.45066C43.2553 4.54187 43.3371 4.61929 43.4317 4.67834L45.165 5.83334L43.4317 6.98834C43.3406 7.04907 43.2624 7.12715 43.2015 7.21811C43.1407 7.30906 43.0983 7.41112 43.0769 7.51845C43.0554 7.62578 43.0554 7.73628 43.0766 7.84364C43.0979 7.951 43.1401 8.05312 43.2008 8.14417C43.2616 8.23522 43.3396 8.31342 43.4306 8.37429C43.5216 8.43517 43.6236 8.47753 43.7309 8.49897C43.8383 8.5204 43.9488 8.52049 44.0561 8.49922C44.1635 8.47795 44.2656 8.43574 44.3567 8.37501L45.8333 7.39V9.16667C45.8333 9.38769 45.9211 9.59965 46.0774 9.75593C46.2337 9.91221 46.4457 10 46.6667 10C46.8877 10 47.0996 9.91221 47.2559 9.75593C47.4122 9.59965 47.5 9.38769 47.5 9.16667V7.39L48.9783 8.37501C49.0693 8.43949 49.1723 8.48507 49.2811 8.50905C49.39 8.53303 49.5026 8.53491 49.6122 8.51459C49.7219 8.49427 49.8263 8.45216 49.9193 8.39075C50.0124 8.32934 50.0922 8.24988 50.154 8.15708C50.2158 8.06428 50.2583 7.96002 50.2791 7.85048C50.2999 7.74094 50.2984 7.62835 50.2749 7.51937C50.2514 7.41039 50.2062 7.30724 50.1421 7.21602C50.078 7.12481 49.9962 7.04738 49.9017 6.98834Z" fill="#88C9F9"/>
</svg>
